<?xml version="1.0" encoding="utf-8"?>
<!-- Generator: Adobe Illustrator 26.5.0, SVG Export Plug-In . SVG Version: 6.00 Build 0)  -->
<svg version="1.1" id="Layer_2_00000029765944411535552280000011461837204783475089_"
	 xmlns="http://www.w3.org/2000/svg" xmlns:xlink="http://www.w3.org/1999/xlink" x="0px" y="0px" viewBox="0 0 500 500"
	 style="enable-background:new 0 0 500 500;" xml:space="preserve">
<style type="text/css">
	.st0{fill:#002D5D;}
	.st1{fill:#FFFFFF;}
	.st2{fill:#FDBA58;}
	.st3{fill:#FFEBC6;}
	.st4{clip-path:url(#SVGID_00000024680776455358485320000000315439741521467067_);}
	.st5{fill-rule:evenodd;clip-rule:evenodd;fill:#002D5D;}
</style>
<g id="Livello_1">
	<g>
		<path class="st0" d="M489.4,166.8c-50-15.6-101.3-26.2-152.8-31.8C322.1,101,288.3,77,249,77s-73.2,24-87.6,58.2
			c-50.9,5.7-101.4,16.2-150.8,31.6c-4.9,1.5-8.9,6.9-8.9,11.9c0,78.4,0,156.8,0,235.2c0,5,4.1,9.1,9.1,9.1h478.4
			c5,0,9.1-4.1,9.1-9.1V178.7C498.3,173.7,494.3,168.4,489.4,166.8L489.4,166.8z"/>
		<g>
			<path class="st1" d="M162,360.3c0,2.5,0.4,2.9,4.1,3v2c-2.7-0.2-5.4-0.3-8.4-0.3c-3.6,0-5.3,0.3-7.3,0.3h-0.1v-2c3.6,0,4-0.5,4-3
				v-20.5c0-2.5-0.4-2.9-4-3v-2h0.1c1,0,1.9,0,3,0.1c1.1,0,2.4,0.1,4.2,0.1h8.4c6.9,0,11.8,2.1,11.8,8.1c0,5.5-4.5,8.3-12.9,8.3
				c-1.5,0-2.3,0-3-0.1V360.3L162,360.3z M162,349.1h1.1c4.4,0,6.2-1.7,6.2-6c0-4.8-3.2-5.8-7.3-5.8C162,337.3,162,349.1,162,349.1z
				"/>
			<path class="st1" d="M206.5,365h-20.7c-1.8,0-3.1,0-4.2,0.1c-1.1,0-2,0.1-3,0.1h-0.1v-2c3.6,0,4-0.5,4-3v-20.5c0-2.5-0.4-2.9-4-3
				v-2c3.5,0.1,6.9,0.3,10.4,0.3c4.4,0,10.5-0.2,15.8-0.3l0.3,7h-2.4c-1.1-4-2.8-4.7-8.9-4.7H190v11.2h3.9c3.9,0,5-0.7,5.2-3.9h2v10
				h-2c-0.3-3.2-1.3-3.9-5.2-3.9H190v12.2h3.6c8.4,0,9.6-0.6,11.9-5.8l2.1,0.6L206.5,365L206.5,365z"/>
			<path class="st1" d="M212.5,339.8c0-2.5-0.4-2.9-4-3v-2h0.1c1,0,1.9,0,3,0.1c1.1,0,2.4,0.1,4.2,0.1h7.5c8.6,0,12.9,1.9,12.9,8.3
				c0,4.1-2.2,6.2-6.7,7.3c7.3,11.4,8.6,12.1,11.7,12.7v2h-0.1c-0.6,0-5.2-0.3-10.2-0.3c-3-4.2-5.9-8.5-8.9-13.4
				c-0.6,0-1.2,0-1.8,0.1v8.6c0,2.5,0.4,2.9,4.1,3v2c-2.7-0.2-5.4-0.3-8.4-0.3c-3.6,0-5.3,0.3-7.3,0.3h-0.1v-2c3.6,0,4-0.5,4-3
				L212.5,339.8L212.5,339.8z M220.1,349.5h0.8c4.1,0,7.5-1.9,7.5-6c0-4.6-2.7-6.1-6.3-6.1h-2C220.1,337.3,220.1,349.5,220.1,349.5z
				"/>
			<path class="st1" d="M261.2,334.8c1.4,0.1,3.3,0.3,5.1,0.3c1.6,0,3.3-0.1,4.4-0.3v2c-3.2,0-3.6,0.5-3.6,3v13.9
				c0,7.4-3,12-11.6,12c-7,0-11.6-2.8-11.6-10.9v-15c0-2.5-0.4-2.9-3.8-3v-2c1.5,0.2,4.3,0.3,7.5,0.3c3.2,0,6-0.1,7.6-0.3v2
				c-3.4,0-3.8,0.5-3.8,3v16.1c0,3.9,1.8,6.8,6.3,6.8c4.7,0,6.9-2.9,6.9-8.8v-14.1c0-2.5-0.4-2.9-3.6-3V334.8L261.2,334.8z"/>
			<path class="st1" d="M299.8,343.8c-0.7,0-1.4-0.1-2-0.1c-0.6,0-1.2,0.1-1.8,0.1c-0.5-4-2.6-7.3-6.9-7.3c-5.6,0-8.7,5-8.7,12.2
				c0,10.2,2.3,14.8,8.1,14.8c2,0,3.5-0.6,4.8-1.2v-6c0-1.7-0.4-2.5-3.4-2.5v-2c2.2,0.1,4.3,0.2,6.5,0.2s4.6-0.1,6.8-0.2v2
				c-2.1,0-2.6,0.8-2.6,2.5v6c-3.7,2.1-8,3.4-12.3,3.4c-9.6,0-16.5-5.2-16.5-15.5c0-9.3,6.9-15.9,15.8-15.9c4.9,0,8.9,1.5,12.1,3.9
				L299.8,343.8L299.8,343.8z"/>
			<path class="st1" d="M303.9,363.3c3.9,0,4.2-0.5,4.2-3v-20.5c0-2.5-0.4-2.9-4.1-3v-2c1.9,0.2,4.7,0.3,7.9,0.3c3.2,0,6-0.1,8-0.3
				v2c-3.8,0-4.1,0.5-4.1,3v20.5c0,2.5,0.4,2.9,4.1,3v2c-2-0.2-4.8-0.3-8-0.3c-3.2,0-6,0.1-8,0.3V363.3z"/>
			<path class="st1" d="M319.9,363.3c2,0,2.6-1.1,3.5-3.5l7.5-21.5l-1-3.5c1.1,0.1,2.3,0.3,3.4,0.3c1.4,0,2.8-0.1,4.2-0.3
				c0.2,1.9,5.9,18.4,8.4,25.3c0.8,2.2,1.2,3,3.3,3.1v2c-1.2-0.2-3.6-0.3-6.7-0.3c-2.5,0-6.5,0-7.5,0.3v-2c2.4,0,3.5-0.5,3.5-1.5
				c0-0.6-0.8-2.6-1.9-5.9h-9.3c-1.1,3.5-1.9,5.3-1.9,5.8c0,1.1,0.8,1.5,2.6,1.5v2c-0.8-0.2-2.2-0.3-4-0.3c-1.7,0-3.2,0-4,0.3
				L319.9,363.3L319.9,363.3z M335.7,353.7l-3.7-11.8h-0.1c-0.3,0.9-0.5,1.8-1,3.5l-2.9,8.4L335.7,353.7L335.7,353.7z"/>
		</g>
		<g>
			<path class="st1" d="M226.8,383.9c1.3-0.8,2.5-1.9,3.7-3c0.5,0.1,0.9,0.1,1.4,0.1s0.9-0.1,1.4-0.1c-0.1,2.7-0.2,7.4-0.2,10.7v3.8
				c0,1.6,0.3,1.8,2.3,1.9v1c-0.7-0.1-2-0.1-4.4-0.1c-2.2,0-3.4,0.1-4,0.1v-1c2.1-0.1,2.5-0.3,2.5-1.9v-9.7c0-1.3-0.1-1.5-0.4-1.5
				c-0.2,0-1,0.3-1.7,0.7L226.8,383.9L226.8,383.9z"/>
			<path class="st1" d="M239.3,397.4c3.7-0.8,6.2-3,7-6.8l-2.2,1.2c-0.4,0.2-0.8,0.3-1.3,0.3c-3.2,0-5.2-2.1-5.2-5.1
				c0-3.3,2.8-6,6-6c3.7,0,6.5,2.6,6.5,7.1c0,6.5-4.8,10.4-10.6,10.4L239.3,397.4L239.3,397.4z M243.4,382.2c-1.5,0-2.4,1.7-2.4,3.1
				c0,2.2,1,4.4,3.4,4.4c0.7,0,1.4-0.3,2-0.7c0-0.5,0-0.9,0-1.5C246.5,385.6,245.8,382.2,243.4,382.2z"/>
			<path class="st1" d="M258.7,398.5c-3.7,0-6.3-3.3-6.3-8.8s2.5-8.8,6.3-8.8c3.7,0,6.3,3.3,6.3,8.8S262.4,398.5,258.7,398.5z
				 M258.7,382.2c-1.7,0-2.3,1.5-2.3,7.5c0,6.1,0.6,7.5,2.3,7.5c1.7,0,2.3-1.5,2.3-7.5C261,383.6,260.4,382.2,258.7,382.2z"/>
			<path class="st1" d="M269.9,384.6c-1.3,0-1.9,0.5-2.4,1.5h-1.1v-0.1c0-0.3,0.7-2.6,1-5h0.1c0.1,0,0.8,0.1,1.8,0.1
				c1,0.1,2.3,0.1,3.6,0.1c2.5,0,4.5-0.1,6-0.1c-1.8,4-5.1,14.2-5.1,15.1c0,0.7,0.2,0.8,0.7,1.1l-0.2,0.9h-0.1c0,0-0.3-0.1-0.8-0.1
				c-0.5-0.1-1.2-0.1-2.1-0.1c-1.1,0-1.5,0-1.9,0.1c1.7-4.7,3.9-9.1,6.3-13.6L269.9,384.6L269.9,384.6z"/>
		</g>
		<g>
			<path class="st1" d="M57.8,288.6c-17,0-28.1-11.6-28.1-29.2c0-17.6,11.1-29.2,28.1-29.2s28.1,11.6,28.1,29.2
				C85.9,276.9,74.8,288.6,57.8,288.6z M57.8,234.2c-7.8,0-12.5,4.7-12.5,25.2s4.7,25.2,12.5,25.2s12.5-4.7,12.5-25.2
				S65.6,234.2,57.8,234.2z"/>
			<path class="st1" d="M95.3,240.2c0-4.6-0.7-5.5-7.3-5.5v-3.7h0.1c1.8,0,3.5,0.1,5.5,0.2c2,0.1,4.4,0.2,7.7,0.2h13.7
				c15.6,0,23.3,3.6,23.3,15.5c0,7.6-4.1,11.6-12.2,13.5c13.3,21.3,15.6,22.5,21.2,23.6v3.7h-0.1c-1.1,0-9.5-0.5-18.6-0.5
				c-5.4-7.8-10.7-15.8-16.2-24.9c-1,0.1-2.2,0.1-3.3,0.2v16c0,4.6,0.7,5.5,7.4,5.5v3.7c-4.9-0.3-9.9-0.5-15.2-0.5
				c-6.5,0-9.7,0.5-13.2,0.5H88V284c6.6-0.1,7.3-1,7.3-5.5L95.3,240.2L95.3,240.2z M109.2,258.3h1.4c7.5,0,13.5-3.6,13.5-11.2
				c0-8.6-5-11.4-11.4-11.4h-3.6V258.3z"/>
			<path class="st1" d="M197.2,287.3h-37.5c-3.3,0-5.7,0.1-7.7,0.2c-2,0.1-3.7,0.2-5.5,0.2h-0.1V284c6.5-0.1,7.2-1,7.2-5.5v-38.3
				c0-4.6-0.7-5.5-7.2-5.5v-3.7c6.3,0.2,12.6,0.5,18.8,0.5c8.1,0,19.1-0.3,28.7-0.5l0.6,13h-4.3c-2-7.4-5.1-8.8-16.1-8.8h-6.6V256
				h7.1c7.2,0,9-1.2,9.5-7.2h3.6v18.7H184c-0.5-6-2.3-7.3-9.5-7.3h-7.1v22.8h6.5c15.2,0,17.4-1.1,21.6-10.8l3.9,1.1L197.2,287.3
				L197.2,287.3z"/>
			<path class="st1" d="M267.4,287.3h-32.9c-3.3,0-5.7,0.1-7.7,0.2c-2,0.1-3.7,0.2-5.5,0.2h-0.1V284c6.8-0.1,7.5-1,7.5-5.5v-38.3
				c0-4.6-0.7-5.5-7.5-5.5v-3.7c3.3,0.3,8.5,0.5,14.3,0.5c5.8,0,11-0.2,14.6-0.5v3.7c-6.9,0.1-7.6,1-7.6,5.5v42.9h7.2
				c8.9,0,13.2-2,16.1-10.1l4.3,0.4L267.4,287.3L267.4,287.3z"/>
			<path class="st1" d="M273.4,284c7-0.1,7.7-1,7.7-5.5v-38.3c0-4.6-0.7-5.5-7.6-5.5v-3.7c3.4,0.3,8.6,0.5,14.4,0.5s11-0.2,14.5-0.5
				v3.7c-6.8,0.1-7.6,1-7.6,5.5v38.3c0,4.6,0.7,5.5,7.6,5.5v3.7c-3.6-0.3-8.7-0.5-14.5-0.5s-11,0.2-14.5,0.5V284z"/>
			<path class="st1" d="M358.3,287.3h-37.5c-3.3,0-5.7,0.1-7.7,0.2c-2,0.1-3.7,0.2-5.5,0.2h-0.1V284c6.5-0.1,7.2-1,7.2-5.5v-38.3
				c0-4.6-0.7-5.5-7.2-5.5v-3.7c6.3,0.2,12.6,0.5,18.8,0.5c8.1,0,19.1-0.3,28.7-0.5l0.6,13h-4.3c-2-7.4-5.1-8.8-16.1-8.8h-6.6V256
				h7.1c7.2,0,9-1.2,9.5-7.2h3.6v18.7h-3.6c-0.5-6-2.3-7.3-9.5-7.3h-7.1v22.8h6.5c15.2,0,17.4-1.1,21.6-10.8l3.9,1.1L358.3,287.3
				L358.3,287.3z"/>
			<path class="st1" d="M393.4,278.5c0,4.6,0.7,5.5,7.6,5.5v3.7c-3.7-0.3-8.8-0.5-14.5-0.5s-10.9,0.2-14.5,0.5V284
				c6.9-0.1,7.6-1,7.6-5.5v-42.9c-9.6,0-12.2,0.8-14.7,9.9H361l0.6-14.7c4.2,0.2,12,0.5,24.9,0.5c12.9,0,20.7-0.3,24.9-0.5l0.6,14.7
				h-3.9c-2.5-9.1-5.1-9.9-14.7-9.9V278.5z"/>
			<path class="st1" d="M463.9,287.3h-37.5c-3.3,0-5.7,0.1-7.7,0.2c-2,0.1-3.7,0.2-5.5,0.2H413V284c6.5-0.1,7.2-1,7.2-5.5v-38.3
				c0-4.6-0.7-5.5-7.2-5.5v-3.7c6.3,0.2,12.6,0.5,18.8,0.5c8.1,0,19.1-0.3,28.7-0.5l0.6,13h-4.3c-2-7.4-5.1-8.8-16.1-8.8h-6.6V256
				h7.1c7.2,0,9-1.2,9.5-7.2h3.6v18.7h-3.6c-0.5-6-2.3-7.3-9.5-7.3h-7.1v22.8h6.5c15.2,0,17.4-1.1,21.6-10.8l3.9,1.1L463.9,287.3
				L463.9,287.3z"/>
		</g>
		<path class="st2" d="M52,308.5h396.1c0.8,0,1.5,0.7,1.5,1.6c0,0.9-0.7,1.6-1.5,1.6H52c-0.8,0-1.5-0.7-1.5-1.6
			C50.5,309.2,51.2,308.5,52,308.5z"/>
		<path class="st2" d="M150.2,387.8h63.4c0.9,0,1.5,0.7,1.5,1.7s-0.7,1.7-1.5,1.7h-63.4c-0.9,0-1.5-0.7-1.5-1.7
			S149.4,387.8,150.2,387.8z"/>
		<path class="st2" d="M287,387.8h63.4c0.9,0,1.5,0.7,1.5,1.7s-0.7,1.7-1.5,1.7H287c-0.9,0-1.5-0.7-1.5-1.7S286.1,387.8,287,387.8z"
			/>
		<path class="st2" d="M69.9,212.5c121.5-19.1,245.3-19.1,366.8,0c0.7,0.1,1.2,0.9,1.2,1.8s-0.5,1.5-1.2,1.4
			c-121.5-19.1-245.3-19.1-366.8,0c-0.7,0.1-1.2-0.5-1.2-1.4C68.7,213.4,69.3,212.6,69.9,212.5z"/>
		<g>
			<g>
				<g>
					<path class="st3" d="M364.5,163c-1.1-1.5-3.2-1.7-4.7-0.6c-1.5,1.1-1.7,3.2-0.6,4.7c1.1,1.5,3.2,1.7,4.7,0.6
						C365.4,166.5,365.7,164.4,364.5,163z"/>
					<path class="st3" d="M373.2,163.7c-0.9-1.1-2.4-1.3-3.5-0.4c-1.1,0.9-1.3,2.4-0.4,3.5c0.9,1.1,2.4,1.3,3.5,0.4
						C373.9,166.4,374.1,164.8,373.2,163.7L373.2,163.7z"/>
					<path class="st3" d="M379.5,167.3c-0.7-0.9-2-1-2.8-0.3c-0.9,0.7-1,2-0.3,2.8c0.7,0.9,2,1,2.8,0.3
						C380.1,169.4,380.2,168.2,379.5,167.3z"/>
					<path class="st3" d="M383.1,171.9c-0.5-0.6-1.4-0.7-2-0.2s-0.7,1.4-0.2,2c0.5,0.6,1.4,0.7,2,0.2S383.6,172.6,383.1,171.9z"/>
				</g>
				<path class="st2" d="M377.7,178.7c-1.7-2.4-4.3-3.9-7.4-4.3c-2.6-0.3-5.3,0.3-7.6,1.7c0,0-0.1,0-0.1,0
					c-4.7,2.8-11.6,6.8-17.1,8.5c-6.5,2.2-13.5-1.3-15.6-7.8c-1.7-5,1-10.5,6-12.2c3.9-1.3,8.1,0.8,9.4,4.7c0.5,1.4,0.4,2.9-0.3,4.3
					c-0.7,1.3-1.8,2.4-3.3,2.8c-2.2,0.7-4.6-0.4-5.4-2.7c-0.3-0.8-0.3-1.7,0.2-2.4c0.4-0.7,1-1.3,1.8-1.6c1.2-0.4,2.4,0.2,2.8,1.4
					c0.2,0.7,1,1.1,1.8,0.9c0.7-0.2,1.1-1,0.9-1.8c-0.9-2.6-3.7-4-6.3-3.2c-1.5,0.5-2.7,1.6-3.4,3c-0.9,1.4-0.8,3-0.3,4.5
					c1.2,3.7,5.2,5.7,8.9,4.4c2.1-0.7,3.9-2.2,4.9-4.2c1-2,1.2-4.3,0.4-6.4c-1.8-5.3-7.6-8.2-12.9-6.4c-3.3,1.1-5.8,3.5-7.3,6.4
					c-1.3,2.8-1.6,6.1-0.6,9.3c2.7,7.9,11.3,12.2,19.2,9.6c5.4-1.7,12-5.4,16.8-8.2c0.2,0,0.3-0.1,0.5-0.2c1.8-1.3,4.1-1.9,6.3-1.6
					c2.3,0.3,4.2,1.4,5.4,3.1c1,1.4,1.3,3,1.1,4.7c-0.3,1.7-1.2,3.1-2.5,4.1c-2.1,1.5-5.1,1-6.6-1.1c-1.1-1.6-0.7-3.7,0.8-4.9
					c0.6-0.4,1.2-0.5,1.9-0.4c0.7,0.1,1.2,0.5,1.6,1c0.4,0.7,1.4,0.8,2,0.4c0.7-0.5,0.8-1.4,0.4-2c-0.8-1.2-2-2-3.5-2.2
					c-1.4-0.2-2.8,0.1-4,0.9c-2.8,2-3.5,6-1.5,8.9c1.2,1.7,2.9,2.8,4.9,3.1c2,0.3,4-0.1,5.7-1.3c2-1.4,3.3-3.5,3.7-5.9
					C379.7,183,379.1,180.6,377.7,178.7L377.7,178.7z"/>
			</g>
			<g>
				<g>
					<path class="st3" d="M135.1,163c1.1-1.5,3.2-1.7,4.7-0.6c1.5,1.1,1.7,3.2,0.6,4.7c-1.1,1.5-3.2,1.7-4.7,0.6
						C134.2,166.5,134,164.4,135.1,163z"/>
					<path class="st3" d="M126.5,163.7c0.9-1.1,2.4-1.3,3.5-0.4c1.1,0.9,1.3,2.4,0.4,3.5c-0.9,1.1-2.4,1.3-3.5,0.4
						C125.8,166.4,125.6,164.8,126.5,163.7L126.5,163.7z"/>
					<path class="st3" d="M120.1,167.3c0.7-0.9,2-1,2.8-0.3c0.9,0.7,1,2,0.3,2.8c-0.7,0.9-2,1-2.8,0.3
						C119.6,169.4,119.4,168.2,120.1,167.3z"/>
					<path class="st3" d="M116.6,171.9c0.5-0.6,1.4-0.7,2-0.2c0.6,0.5,0.7,1.4,0.2,2c-0.5,0.6-1.4,0.7-2,0.2
						S116.1,172.6,116.6,171.9z"/>
				</g>
				<path class="st2" d="M171.8,168.4c-1.4-2.9-3.9-5.3-7.3-6.4c-5.3-1.8-11.1,1.1-12.9,6.4c-0.7,2.1-0.6,4.4,0.4,6.4
					c1,2,2.7,3.5,4.9,4.2c3.7,1.2,7.7-0.8,8.9-4.4c0.5-1.5,0.6-3.1-0.3-4.5c-0.7-1.4-1.9-2.5-3.4-3c-2.6-0.9-5.5,0.5-6.3,3.2
					c-0.2,0.7,0.1,1.5,0.9,1.8c0.7,0.2,1.5-0.1,1.8-0.9c0.4-1.2,1.6-1.8,2.8-1.4c0.8,0.3,1.4,0.8,1.8,1.6c0.5,0.7,0.4,1.6,0.2,2.4
					c-0.7,2.2-3.1,3.4-5.4,2.7c-1.4-0.5-2.6-1.5-3.3-2.8c-0.7-1.4-0.8-2.9-0.3-4.3c1.3-3.9,5.5-6,9.4-4.7c5,1.7,7.7,7.1,6,12.2
					c-2.2,6.5-9.2,10-15.6,7.8c-5.5-1.7-12.4-5.7-17.1-8.5c0,0-0.1,0-0.1,0c-2.3-1.3-4.9-2-7.6-1.7c-3.1,0.4-5.7,1.9-7.4,4.3
					c-1.4,2-2,4.4-1.6,6.8c0.4,2.4,1.7,4.5,3.7,5.9c1.7,1.2,3.7,1.6,5.7,1.3c2-0.3,3.7-1.4,4.9-3.1c2-2.8,1.3-6.8-1.5-8.9
					c-1.2-0.8-2.6-1.2-4-0.9c-1.4,0.2-2.6,1-3.5,2.2c-0.5,0.7-0.3,1.5,0.4,2c0.7,0.5,1.5,0.3,2-0.4c0.4-0.5,0.9-0.9,1.6-1
					s1.3,0,1.9,0.4c1.6,1.1,1.9,3.3,0.8,4.9c-1.5,2.1-4.4,2.6-6.6,1.1c-1.4-1-2.3-2.4-2.5-4.1c-0.3-1.6,0.1-3.3,1.1-4.7
					c1.2-1.7,3.1-2.8,5.4-3.1c2.2-0.3,4.5,0.3,6.3,1.6c0.1,0.1,0.3,0.2,0.5,0.2c4.8,2.8,11.3,6.5,16.8,8.2
					c7.9,2.6,16.5-1.6,19.2-9.6C173.4,174.5,173.1,171.2,171.8,168.4L171.8,168.4z"/>
			</g>
			<g>
				<defs>
					<path id="SVGID_1_" d="M389.2,194.6C297,180,203,180,110.8,194.6V94.4c92.2-14.6,186.2-14.6,278.4,0V194.6z"/>
				</defs>
				<clipPath id="SVGID_00000057124856555173918810000002143401030570402183_">
					<use xlink:href="#SVGID_1_"  style="overflow:visible;"/>
				</clipPath>
				<g style="clip-path:url(#SVGID_00000057124856555173918810000002143401030570402183_);">
					<path class="st2" d="M249.7,250.8c-42.8,0-77.6-34.8-77.6-77.6s34.8-77.7,77.6-77.7s77.6,34.8,77.6,77.6
						S292.5,250.8,249.7,250.8L249.7,250.8z M249.7,98.6c-41.1,0-74.6,33.5-74.6,74.6s33.5,74.6,74.6,74.6s74.6-33.5,74.6-74.6
						S290.8,98.6,249.7,98.6z"/>
					<g>
						<path class="st1" d="M316.3,173.2c0-36.8-29.8-66.6-66.6-66.6s-66.6,29.8-66.6,66.6s29.8,66.6,66.6,66.6
							S316.3,209.9,316.3,173.2z"/>
						<path class="st0" d="M249.8,106.4c18.5,0,35.2,7.5,47.3,19.6c12.1,12.1,19.6,28.8,19.6,47.3s-7.5,35.2-19.6,47.3
							c-12.1,12.1-28.8,19.6-47.3,19.6s-35.2-7.5-47.3-19.6c-12.1-12.1-19.6-28.8-19.6-47.3s7.5-35.2,19.6-47.3
							C214.6,113.9,231.3,106.4,249.8,106.4C249.8,106.4,249.8,106.4,249.8,106.4z M296.7,126.4c-12-12-28.6-19.4-46.9-19.4
							s-34.9,7.4-46.9,19.4s-19.4,28.6-19.4,46.9s7.4,34.9,19.4,46.9c12,12,28.6,19.4,46.9,19.4c18.3,0,34.9-7.4,46.9-19.4
							c12-12,19.4-28.6,19.4-46.9S308.7,138.4,296.7,126.4C296.7,126.4,296.7,126.4,296.7,126.4z"/>
						<path class="st0" d="M275.8,133l-0.2,0.4l-3.7-2.1l0.2-0.4l0.3,0.2c0.4,0.2,0.7,0.2,1.1-0.1c0.2-0.2,0.6-0.7,1.1-1.6l5.2-9.5
							c0.4-0.7,0.7-1.2,0.7-1.5c0.1-0.2,0.1-0.4,0-0.6c-0.1-0.3-0.2-0.5-0.4-0.6l-0.3-0.2l0.2-0.4l3.7,2.1l-0.2,0.4l-0.3-0.2
							c-0.4-0.2-0.7-0.2-1.1,0.1c-0.2,0.2-0.6,0.7-1.1,1.6l-5.2,9.5c-0.4,0.7-0.7,1.2-0.7,1.5c-0.1,0.2-0.1,0.4,0,0.6
							c0.1,0.3,0.2,0.5,0.4,0.6L275.8,133L275.8,133L275.8,133z M245.2,116.8l2.3,5.2c0.6,1.5,1.1,2.3,1.4,2.7
							c0.3,0.4,0.6,0.6,1,0.6l0,0.4l-3.8,0.3l0-0.4c0.2,0,0.4-0.1,0.5-0.2c0.1-0.1,0.1-0.2,0.2-0.4c0.1-0.1,0.1-0.3,0.1-0.5
							c0-0.2-0.1-0.4-0.1-0.6c0-0.1-0.2-0.5-0.4-1.1l-1.8-4.2l-1.5,4.6c-0.2,0.5-0.3,0.8-0.3,1c0,0.2,0,0.3,0,0.5
							c0,0.3,0.1,0.5,0.2,0.6c0.1,0.2,0.4,0.2,0.7,0.3l0,0.4l-3.1,0.2l0-0.4c0.2-0.1,0.4-0.2,0.6-0.3c0.3-0.2,0.5-0.5,0.7-0.9
							c0.2-0.4,0.4-0.9,0.7-1.7l1.7-5.1l-2.1-4.7c-0.6-1.3-1-2.1-1.4-2.5c-0.4-0.4-0.7-0.6-1.2-0.6l0-0.5l4.1-0.3l0,0.5
							c-0.3,0.1-0.6,0.2-0.7,0.4s-0.2,0.4-0.1,0.6c0,0.3,0.1,0.7,0.4,1.3l1.6,3.7l1.3-3.9c0.1-0.4,0.2-0.8,0.3-0.9
							c0-0.2,0-0.3,0-0.5c0-0.2-0.1-0.3-0.1-0.4c-0.1-0.2-0.2-0.3-0.3-0.4c-0.1-0.1-0.3-0.1-0.6-0.1l0-0.5l3.1-0.2l0,0.5
							c-0.2,0-0.4,0.1-0.6,0.3c-0.2,0.2-0.4,0.5-0.6,0.8c-0.2,0.3-0.4,0.9-0.7,1.8L245.2,116.8L245.2,116.8L245.2,116.8z
							 M254.2,125.5l0,0.4l-3.8-0.3l0-0.4h0.3c0.4,0.1,0.7-0.1,0.8-0.5c0.1-0.3,0.2-0.9,0.3-1.9l0.8-10.8c0.1-0.8,0.1-1.4,0-1.7
							c0-0.2-0.1-0.4-0.2-0.5c-0.2-0.2-0.4-0.3-0.6-0.3h-0.3l0-0.5l3.8,0.3l0,0.5H255c-0.4-0.1-0.6,0.1-0.8,0.5
							c-0.1,0.3-0.2,0.9-0.3,1.9l-0.8,10.8c-0.1,0.8-0.1,1.4,0,1.7c0,0.2,0.1,0.4,0.2,0.5c0.2,0.2,0.4,0.3,0.6,0.3L254.2,125.5
							L254.2,125.5z M258.6,126l-0.1,0.4l-3.8-0.5l0.1-0.4l0.3,0c0.4,0,0.7-0.1,0.9-0.5c0.1-0.2,0.3-0.9,0.4-1.9l1.3-10.7
							c0.1-0.8,0.1-1.4,0.1-1.7c0-0.2-0.1-0.4-0.2-0.6c-0.2-0.2-0.4-0.3-0.6-0.4l-0.3,0l0.1-0.4l3.8,0.5l-0.1,0.5l-0.3,0
							c-0.4,0-0.6,0.1-0.9,0.5c-0.1,0.2-0.3,0.9-0.4,1.9l-1.3,10.7c-0.1,0.8-0.1,1.4-0.1,1.7c0,0.2,0.1,0.4,0.2,0.6
							c0.2,0.2,0.4,0.3,0.6,0.4L258.6,126L258.6,126L258.6,126z M217.9,126.2l4.8,3.2c1.3,0.9,2.2,1.4,2.7,1.6
							c0.4,0.2,0.9,0.1,1.2-0.1l0.3,0.4l-3.4,2.4l-0.3-0.4c0.2-0.2,0.4-0.3,0.4-0.5c0-0.1,0-0.3,0-0.4c0-0.2-0.1-0.3-0.2-0.4
							c-0.1-0.1-0.2-0.3-0.4-0.4c-0.1-0.1-0.4-0.3-0.9-0.7l-3.8-2.6l0.9,4.8c0.1,0.5,0.2,0.9,0.2,1c0.1,0.1,0.1,0.3,0.2,0.4
							c0.1,0.2,0.3,0.4,0.5,0.4c0.2,0.1,0.5,0,0.8-0.2l0.3,0.4l-2.8,2l-0.3-0.4c0.2-0.2,0.3-0.4,0.4-0.6c0.1-0.4,0.2-0.7,0.2-1.2
							s-0.1-1.1-0.2-1.9l-1-5.4l-4.3-2.9c-1.2-0.8-2-1.2-2.5-1.4c-0.5-0.1-1-0.1-1.4,0.2l-0.3-0.4l3.6-2.5l0.3,0.4
							c-0.3,0.2-0.4,0.5-0.4,0.7c0,0.2,0.1,0.4,0.2,0.6c0.2,0.3,0.5,0.6,1,0.9l3.4,2.3l-0.8-4.1c-0.1-0.5-0.2-0.8-0.2-0.9
							c-0.1-0.2-0.1-0.3-0.2-0.4c-0.1-0.1-0.2-0.2-0.3-0.3c-0.1-0.1-0.3-0.1-0.4-0.1s-0.3,0.1-0.6,0.3l-0.3-0.4l2.8-2l0.3,0.4
							c-0.2,0.2-0.4,0.4-0.4,0.6c-0.1,0.3-0.1,0.7-0.1,1c0,0.4,0.1,1,0.3,2L217.9,126.2L217.9,126.2L217.9,126.2z M231.1,129.2
							l0.2,0.4l-3.8,1.7l-0.2-0.4l0.3-0.1c0.4-0.2,0.5-0.5,0.5-0.9c0-0.3-0.2-0.9-0.6-1.8l-4.4-9.9c-0.4-0.8-0.6-1.3-0.8-1.5
							c-0.1-0.2-0.3-0.3-0.5-0.4c-0.3-0.1-0.5-0.1-0.7,0l-0.3,0.1l-0.2-0.4l3.8-1.7l0.2,0.4l-0.3,0.1c-0.4,0.2-0.5,0.5-0.5,0.9
							c0,0.3,0.2,0.9,0.6,1.8l4.4,9.9c0.3,0.8,0.6,1.3,0.8,1.5c0.1,0.2,0.3,0.3,0.5,0.4c0.3,0.1,0.5,0.1,0.7,0L231.1,129.2
							L231.1,129.2L231.1,129.2z M201,144.5l5.7,0.9c1.6,0.3,2.6,0.4,3.1,0.3c0.5,0,0.8-0.2,1.1-0.6l0.4,0.2l-2,3.5l-0.4-0.2
							c0.1-0.2,0.2-0.4,0.2-0.6c0-0.1-0.1-0.2-0.2-0.4c-0.1-0.1-0.2-0.2-0.4-0.3c-0.2-0.1-0.3-0.2-0.5-0.2c-0.1,0-0.5-0.1-1.1-0.2
							l-4.5-0.8l2.9,4c0.3,0.4,0.5,0.7,0.6,0.8c0.1,0.1,0.3,0.2,0.4,0.3c0.2,0.1,0.4,0.2,0.7,0.2s0.4-0.2,0.6-0.5l0.4,0.2l-1.7,2.9
							l-0.4-0.2c0.1-0.2,0.1-0.4,0.1-0.7c0-0.4-0.1-0.7-0.3-1.1c-0.2-0.4-0.5-0.9-1-1.6l-3.2-4.4l-5.1-0.8c-1.4-0.2-2.3-0.3-2.9-0.2
							c-0.5,0.1-0.9,0.4-1.2,0.7l-0.4-0.2l2.2-3.8l0.4,0.2c-0.2,0.3-0.2,0.6-0.1,0.8c0.1,0.2,0.2,0.4,0.4,0.5
							c0.3,0.1,0.7,0.3,1.3,0.4l4.1,0.7l-2.4-3.3c-0.3-0.4-0.5-0.7-0.6-0.8c-0.1-0.1-0.3-0.2-0.4-0.3c-0.1-0.1-0.3-0.1-0.4-0.1
							c-0.2,0-0.3,0-0.4,0.1c-0.1,0.1-0.3,0.2-0.4,0.5l-0.4-0.2l1.7-2.9l0.4,0.2c-0.1,0.2-0.1,0.5-0.1,0.7c0,0.3,0.1,0.6,0.3,1
							c0.2,0.3,0.5,0.9,1.1,1.7L201,144.5L201,144.5L201,144.5z M201.9,176.1l0.4,0l0.2,3.5l-0.4,0v-0.3c0-0.3-0.3-0.6-0.7-0.7
							c-0.3-0.1-0.9-0.1-1.9,0l-10.8,0.8c-0.8,0.1-1.4,0.1-1.7,0.2c-0.2,0.1-0.4,0.1-0.5,0.3c-0.2,0.2-0.3,0.4-0.3,0.6v0.3l-0.4,0
							l-0.2-3.5l0.5,0v0.3c0,0.3,0.3,0.6,0.7,0.7c0.3,0.1,0.9,0.1,1.9,0l10.8-0.8c0.8-0.1,1.4-0.1,1.7-0.2c0.2-0.1,0.4-0.1,0.5-0.3
							c0.2-0.2,0.3-0.4,0.3-0.6V176.1L201.9,176.1L201.9,176.1z M193.1,170.2l5.4-1.6c1.5-0.4,2.5-0.8,2.8-1
							c0.4-0.2,0.6-0.5,0.7-0.9h0.4l-0.1,3.5h-0.4c0-0.2,0-0.4-0.1-0.5c-0.1-0.1-0.2-0.2-0.3-0.2s-0.3-0.1-0.5-0.1
							c-0.2,0-0.4,0-0.6,0c-0.1,0-0.5,0.1-1.1,0.3L195,171l4.4,1.9c0.5,0.2,0.8,0.3,0.9,0.4c0.2,0,0.3,0.1,0.5,0.1
							c0.3,0,0.5,0,0.7-0.1c0.2-0.1,0.3-0.3,0.3-0.6h0.4l-0.1,2.9h-0.4c0-0.2-0.1-0.4-0.2-0.6c-0.2-0.3-0.5-0.5-0.8-0.7
							c-0.4-0.2-0.9-0.5-1.6-0.8l-4.9-2.1l-4.9,1.5c-1.3,0.4-2.2,0.7-2.6,1c-0.4,0.3-0.7,0.6-0.7,1h-0.5l0.1-3.8h0.5
							c0,0.3,0.1,0.6,0.3,0.7c0.2,0.1,0.4,0.2,0.6,0.2c0.3,0,0.7-0.1,1.3-0.2l3.9-1.1l-3.7-1.6c-0.4-0.2-0.7-0.3-0.9-0.3
							c-0.2,0-0.3-0.1-0.5-0.1c-0.2,0-0.3,0-0.5,0.1c-0.2,0.1-0.3,0.1-0.4,0.2c-0.1,0.1-0.1,0.3-0.1,0.6h-0.5l0.1-2.9h0.5
							c0,0.2,0.1,0.4,0.2,0.6c0.2,0.2,0.4,0.4,0.7,0.6c0.3,0.2,0.9,0.5,1.7,0.8L193.1,170.2L193.1,170.2L193.1,170.2z M195.6,207.7
							l0.4-0.3c0.2,0.1,0.5,0.2,0.8,0.1c0.4-0.1,1-0.3,1.8-0.7l13.1-6.1l0.1,0.2l-10.3,10.5c-0.5,0.5-0.8,0.9-0.9,1
							c-0.2,0.2-0.3,0.4-0.3,0.6c0,0.2,0,0.4,0.1,0.6L200,214l-1.7-2.4l0.4-0.3c0.3,0.2,0.5,0.3,0.7,0.3c0.2,0,0.4-0.1,0.7-0.3
							c0.3-0.2,0.8-0.7,1.4-1.3l7-7.1l-8.9,4.1c-0.9,0.4-1.5,0.7-1.8,0.9c-0.2,0.1-0.4,0.3-0.5,0.5s-0.1,0.4-0.1,0.7
							c0,0,0,0.1,0,0.1l-0.4,0.3L195.6,207.7L195.6,207.7L195.6,207.7z M207.2,195.4l0.4-0.2l1.5,2.7l-0.4,0.2l-0.1-0.2
							c-0.1-0.3-0.4-0.4-0.8-0.3c-0.3,0.1-0.9,0.3-1.7,0.8l-9.5,5.2c-0.7,0.4-1.2,0.7-1.4,0.9c-0.2,0.1-0.3,0.3-0.4,0.4
							c-0.1,0.2-0.1,0.4,0,0.6l0.1,0.2l-0.4,0.2l-1.5-2.7l0.4-0.2l0.1,0.2c0.1,0.3,0.4,0.4,0.8,0.3c0.3-0.1,0.9-0.3,1.7-0.8l9.5-5.2
							c0.7-0.4,1.2-0.7,1.4-0.9c0.2-0.1,0.3-0.3,0.4-0.4c0.1-0.2,0.1-0.4,0-0.6L207.2,195.4C207.2,195.4,207.2,195.4,207.2,195.4z
							 M205.7,191.9l0.4-0.2l1.3,2.8l-0.4,0.2l-0.1-0.2c-0.1-0.3-0.4-0.4-0.8-0.4c-0.3,0-0.9,0.2-1.8,0.7l-9.9,4.4
							c-0.8,0.4-1.3,0.6-1.5,0.7c-0.2,0.1-0.3,0.3-0.4,0.4c-0.1,0.2-0.1,0.4-0.1,0.6l0.1,0.2l-0.4,0.2l-1.3-2.8l0.4-0.2l0.1,0.2
							c0.1,0.3,0.4,0.4,0.8,0.4c0.3,0,0.9-0.2,1.8-0.7l9.9-4.4c0.8-0.4,1.3-0.6,1.5-0.7c0.2-0.1,0.3-0.3,0.4-0.4
							c0.1-0.2,0.1-0.4,0.1-0.6L205.7,191.9L205.7,191.9L205.7,191.9z M204.3,188.6l0.4-0.2l1.1,2.9l-0.4,0.2l-0.1-0.2
							c-0.1-0.3-0.4-0.4-0.8-0.4c-0.3,0-0.9,0.2-1.8,0.6l-10.1,3.9c-0.8,0.3-1.3,0.5-1.5,0.7c-0.2,0.1-0.3,0.2-0.4,0.4
							c-0.1,0.2-0.2,0.4-0.1,0.6l0.1,0.2l-0.4,0.2l-1.1-2.9l0.4-0.2l0.1,0.2c0.1,0.3,0.4,0.4,0.8,0.4c0.3,0,0.9-0.2,1.8-0.6
							l10.1-3.9c0.8-0.3,1.3-0.5,1.5-0.7c0.2-0.1,0.3-0.2,0.4-0.4c0.1-0.2,0.2-0.4,0.1-0.6L204.3,188.6L204.3,188.6L204.3,188.6z
							 M220.3,230.2l0.2-0.4c0.3,0,0.6-0.1,0.8-0.2c0.4-0.3,0.8-0.8,1.3-1.5l8.5-11.7l0.2,0.1l-3.4,14.3c-0.2,0.7-0.3,1.2-0.3,1.4
							c0,0.3,0,0.5,0.1,0.7c0.1,0.2,0.2,0.4,0.4,0.5l-0.2,0.4l-3-1.4l0.2-0.4c0.4,0.1,0.6,0.1,0.8-0.1c0.2-0.1,0.3-0.3,0.5-0.6
							c0.2-0.4,0.4-1,0.6-1.9l2.3-9.7l-5.8,8c-0.6,0.8-0.9,1.4-1.1,1.7c-0.1,0.2-0.1,0.4-0.1,0.7c0,0.2,0.1,0.5,0.3,0.7
							c0,0,0,0,0.1,0.1l-0.2,0.4L220.3,230.2L220.3,230.2L220.3,230.2z M223.8,213.6l0.2-0.4l3,1.7l-0.2,0.4l-0.2-0.1
							c-0.3-0.2-0.6-0.1-0.9,0.2c-0.2,0.2-0.6,0.7-1.1,1.6l-5.4,9.4c-0.4,0.7-0.7,1.2-0.8,1.5c-0.1,0.2-0.1,0.4-0.1,0.6
							c0.1,0.3,0.1,0.4,0.3,0.5l0.2,0.1l-0.2,0.4l-3-1.7l0.2-0.4l0.2,0.1c0.3,0.2,0.6,0.1,0.9-0.2c0.2-0.2,0.6-0.7,1.1-1.6l5.4-9.4
							c0.4-0.7,0.7-1.2,0.8-1.5c0.1-0.2,0.1-0.4,0.1-0.6c-0.1-0.3-0.1-0.4-0.3-0.5L223.8,213.6L223.8,213.6L223.8,213.6z
							 M220.5,211.3l0.3-0.4l2.8,2l-0.3,0.4l-0.2-0.2c-0.3-0.2-0.6-0.2-0.9,0.1c-0.2,0.1-0.7,0.7-1.2,1.5l-6.4,8.7
							c-0.5,0.7-0.8,1.2-0.9,1.4c-0.1,0.2-0.1,0.4-0.1,0.6c0,0.3,0.1,0.4,0.3,0.6l0.2,0.2l-0.3,0.4l-2.8-2l0.3-0.4l0.2,0.2
							c0.3,0.2,0.6,0.2,0.9-0.1c0.2-0.1,0.7-0.6,1.2-1.5l6.4-8.7c0.5-0.7,0.8-1.2,0.9-1.4c0.1-0.2,0.1-0.4,0.1-0.6
							c0-0.3-0.1-0.4-0.3-0.6L220.5,211.3L220.5,211.3L220.5,211.3z M249.8,237.6l0-0.5c0.3-0.1,0.5-0.3,0.7-0.6
							c0.2-0.4,0.3-1.1,0.4-1.9l1.8-14.5h0.2l4.5,14.1c0.2,0.7,0.4,1.2,0.5,1.3c0.1,0.2,0.3,0.4,0.4,0.6s0.4,0.2,0.7,0.2l0,0.5
							l-3.6,0.3l0-0.5c0.4-0.1,0.7-0.3,0.7-0.5c0.1-0.2,0.1-0.4,0.1-0.7c0-0.4-0.2-1-0.5-1.9l-3.1-9.6l-1.2,9.8
							c-0.1,1-0.2,1.6-0.1,2c0,0.2,0.1,0.5,0.2,0.7c0.1,0.2,0.4,0.3,0.7,0.4c0,0,0.1,0,0.1,0l0,0.5L249.8,237.6L249.8,237.6
							L249.8,237.6z M244,220.7l0-0.4l3.7,0.3l0,0.4h-0.3c-0.4-0.1-0.6,0.1-0.8,0.5c-0.1,0.3-0.2,0.9-0.3,1.9l-0.9,10.8
							c-0.1,0.8-0.1,1.4-0.1,1.7c0,0.2,0.1,0.4,0.2,0.6c0.2,0.2,0.4,0.3,0.6,0.4h0.3l0,0.5l-3.7-0.3l0-0.5h0.3
							c0.4,0.1,0.6-0.1,0.8-0.5c0.1-0.3,0.2-0.9,0.3-1.9l0.9-10.8c0.1-0.8,0.1-1.4,0.1-1.7c0-0.2-0.1-0.4-0.2-0.6
							c-0.2-0.2-0.4-0.3-0.6-0.4L244,220.7L244,220.7z M277.8,231l-0.2-0.4c0.2-0.3,0.4-0.6,0.4-0.9c0-0.5-0.1-1.1-0.4-1.9l-4.3-14
							l0.2-0.1l10.3,10.7c0.5,0.6,0.9,0.9,1,1c0.2,0.2,0.4,0.3,0.7,0.3c0.2,0,0.5,0,0.7-0.1l0.2,0.4l-3.3,1.9l-0.2-0.4
							c0.3-0.3,0.5-0.5,0.5-0.8c0-0.2-0.1-0.5-0.2-0.7c-0.2-0.4-0.6-0.9-1.2-1.5l-7-7.3l2.9,9.5c0.3,0.9,0.5,1.6,0.7,1.9
							c0.1,0.2,0.3,0.4,0.5,0.5c0.2,0.1,0.5,0.1,0.8,0.1c0,0,0.1,0,0.1,0l0.2,0.4L277.8,231L277.8,231L277.8,231z M291.5,196.7
							l-0.4-0.2l1.7-3.3l0.4,0.2l-0.1,0.3c-0.2,0.3-0.1,0.6,0.2,0.9c0.2,0.2,0.7,0.5,1.6,1l9.6,4.9c0.8,0.4,1.3,0.6,1.5,0.7
							c0.2,0.1,0.4,0.1,0.6,0c0.3-0.1,0.4-0.2,0.5-0.4l0.1-0.3l0.4,0.2l-1.7,3.3l-0.4-0.2l0.1-0.3c0.2-0.3,0.1-0.6-0.2-0.9
							c-0.2-0.2-0.7-0.6-1.6-1l-9.6-4.9c-0.7-0.4-1.3-0.6-1.5-0.7c-0.2-0.1-0.4-0.1-0.6,0c-0.3,0.1-0.4,0.2-0.5,0.4L291.5,196.7
							L291.5,196.7L291.5,196.7z M299.5,213.8l-0.4-0.3c0.1-0.3,0.1-0.6-0.1-0.9c-0.2-0.4-0.6-0.9-1.2-1.5l-10-10.6l0.1-0.2
							l13.7,5.7c0.7,0.3,1.1,0.5,1.3,0.5c0.3,0.1,0.5,0.1,0.7,0c0.2,0,0.4-0.1,0.6-0.4l0.4,0.3l-2,2.8l-0.4-0.3
							c0.2-0.4,0.2-0.7,0.1-0.9c-0.1-0.2-0.3-0.4-0.5-0.6c-0.3-0.2-0.9-0.5-1.7-0.9l-9.3-3.9l6.8,7.2c0.7,0.7,1.2,1.2,1.5,1.4
							c0.2,0.1,0.4,0.2,0.7,0.2c0.2,0,0.5-0.1,0.7-0.2c0,0,0.1,0,0.1-0.1l0.4,0.3L299.5,213.8L299.5,213.8L299.5,213.8z
							 M297.5,170.7l-0.4,0l-0.3-3.8l0.4,0l0,0.3c0,0.4,0.3,0.6,0.7,0.7c0.3,0.1,0.9,0.1,1.9,0l10.8-0.9c0.8-0.1,1.4-0.1,1.7-0.2
							c0.2-0.1,0.4-0.2,0.5-0.3c0.2-0.2,0.3-0.4,0.2-0.6v-0.3l0.4,0l0.3,3.8l-0.4,0l0-0.3c0-0.4-0.3-0.6-0.7-0.7
							c-0.3-0.1-0.9-0.1-1.9,0l-10.8,0.9c-0.8,0.1-1.4,0.1-1.7,0.2c-0.2,0.1-0.4,0.2-0.5,0.3c-0.2,0.2-0.3,0.4-0.2,0.6L297.5,170.7
							L297.5,170.7L297.5,170.7z M297.6,175h-0.4l-0.1-3.8h0.5v0.3c0,0.4,0.2,0.6,0.6,0.8c0.3,0.1,0.9,0.1,1.9,0.1l10.8-0.4
							c0.9,0,1.4-0.1,1.7-0.1c0.2-0.1,0.4-0.1,0.5-0.3c0.2-0.2,0.3-0.4,0.3-0.6v-0.3h0.4l0.1,3.8h-0.5v-0.3c0-0.4-0.2-0.6-0.6-0.8
							c-0.3-0.1-0.9-0.1-1.9-0.1l-10.8,0.4c-0.8,0-1.4,0.1-1.7,0.1c-0.2,0.1-0.4,0.1-0.5,0.3c-0.2,0.2-0.3,0.4-0.3,0.6V175
							L297.6,175L297.6,175z M297.2,179.6l-0.4,0l0.3-3.8l0.4,0v0.3c-0.1,0.4,0.1,0.6,0.5,0.8c0.3,0.1,0.9,0.2,1.9,0.3l10.8,0.8
							c0.8,0.1,1.4,0.1,1.7,0c0.2,0,0.4-0.1,0.5-0.2c0.2-0.2,0.3-0.4,0.3-0.6V177l0.5,0l-0.3,3.8l-0.5,0v-0.3c0-0.4-0.1-0.6-0.5-0.8
							c-0.3-0.1-0.9-0.2-1.9-0.3l-10.8-0.7c-0.8-0.1-1.4-0.1-1.7,0c-0.2,0-0.4,0.1-0.5,0.2c-0.2,0.2-0.3,0.4-0.3,0.6L297.2,179.6
							L297.2,179.6L297.2,179.6z M291.2,149.3l-0.4,0.2l-2.3-3.5l0.4-0.2l0.2,0.3c0.2,0.3,0.6,0.5,1,0.4c0.3,0,0.9-0.3,1.7-0.9
							l9.1-5.9c0.7-0.5,1.2-0.8,1.4-1c0.1-0.1,0.2-0.3,0.3-0.5c0.1-0.3,0-0.5-0.1-0.7l-0.2-0.3l0.4-0.2l2.3,3.5l-0.4,0.2l-0.2-0.3
							c-0.2-0.3-0.5-0.5-1-0.4c-0.3,0-0.9,0.3-1.7,0.9l-9.1,5.9c-0.7,0.5-1.2,0.8-1.4,1c-0.1,0.1-0.2,0.3-0.3,0.5
							c-0.1,0.3,0,0.5,0.1,0.7L291.2,149.3L291.2,149.3L291.2,149.3z M293.5,153.6l-0.4,0.2l-2-3.7l0.4-0.2l0.2,0.3
							c0.2,0.4,0.5,0.5,0.9,0.5c0.3,0,0.9-0.3,1.8-0.7l9.5-5.1c0.7-0.4,1.2-0.7,1.4-0.9c0.1-0.1,0.3-0.3,0.3-0.5
							c0.1-0.3,0.1-0.5-0.1-0.7l-0.2-0.3l0.4-0.2l2,3.7l-0.4,0.2l-0.2-0.3c-0.2-0.4-0.5-0.5-0.9-0.5c-0.3,0-0.9,0.3-1.8,0.7
							l-9.5,5.1c-0.7,0.4-1.2,0.7-1.4,0.9c-0.2,0.1-0.3,0.3-0.3,0.5c-0.1,0.3-0.1,0.5,0.1,0.7L293.5,153.6L293.5,153.6z"/>
						<path class="st5" d="M229.1,136.2l-1-1.7c1.1-0.6,2.1-1.2,3.3-1.7l0.8,1.8C231.1,135.2,230.1,135.7,229.1,136.2L229.1,136.2
							L229.1,136.2z M249.8,126.7c12.9,0,24.5,5.2,33,13.7c8.4,8.4,13.7,20.1,13.7,33s-5.2,24.5-13.7,33c-8.4,8.4-20.1,13.7-33,13.7
							c-12.9,0-24.5-5.2-33-13.7c-8.4-8.4-13.7-20.1-13.7-33s5.2-24.5,13.7-33C225.3,131.9,236.9,126.7,249.8,126.7L249.8,126.7
							L249.8,126.7z M282.3,140.7c-8.3-8.3-19.8-13.5-32.5-13.5s-24.2,5.2-32.5,13.5c-8.3,8.3-13.5,19.8-13.5,32.5
							s5.2,24.2,13.5,32.5c8.3,8.3,19.8,13.5,32.5,13.5s24.2-5.2,32.5-13.5c8.3-8.3,13.5-19.8,13.5-32.5S290.7,149.1,282.3,140.7
							C282.3,140.7,282.3,140.7,282.3,140.7z M227.1,135.2l1,1.7c-1,0.6-2,1.2-2.9,1.9l-1.1-1.6C225,136.5,226,135.8,227.1,135.2
							L227.1,135.2L227.1,135.2z M250.4,130.8c1.2,0,2.3,0.1,3.4,0.2l0.2-1.9c-1.2-0.1-2.4-0.2-3.6-0.2V130.8L250.4,130.8z
							 M254.7,131.1c1.2,0.1,2.4,0.3,3.6,0.6l0.4-1.9c-1.2-0.2-2.5-0.4-3.8-0.6L254.7,131.1L254.7,131.1z M259.1,131.9
							c1.2,0.3,2.4,0.6,3.5,0.9l0.6-1.8c-1.2-0.4-2.4-0.7-3.7-1L259.1,131.9L259.1,131.9L259.1,131.9z M263.4,133.1
							c1.2,0.4,2.3,0.8,3.4,1.3l0.8-1.8c-1.2-0.5-2.4-1-3.6-1.4L263.4,133.1L263.4,133.1z M267.6,134.7c1,0.5,2.1,1,3.1,1.6l1-1.7
							c-1.1-0.6-2.1-1.2-3.3-1.7L267.6,134.7L267.6,134.7L267.6,134.7z M271.6,136.9c1,0.6,2,1.2,2.9,1.9l1.1-1.6
							c-1-0.7-2-1.4-3.1-2L271.6,136.9L271.6,136.9L271.6,136.9z M275.2,139.2c1,0.7,1.9,1.5,2.8,2.3l1.3-1.4c-0.9-0.8-2-1.7-3-2.4
							L275.2,139.2L275.2,139.2L275.2,139.2z M278.7,142.1c0.4,0.4,0.9,0.8,1.3,1.2c0.4,0.4,0.8,0.9,1.2,1.3l1.4-1.3
							c-0.4-0.5-0.9-0.9-1.3-1.4c-0.4-0.4-0.9-0.9-1.4-1.3L278.7,142.1L278.7,142.1L278.7,142.1z M281.8,145.3
							c0.8,0.9,1.6,1.8,2.3,2.8l1.6-1.1c-0.8-1-1.6-2-2.4-3L281.8,145.3L281.8,145.3L281.8,145.3z M284.6,148.8
							c0.7,0.9,1.3,1.9,1.9,2.9l1.7-1c-0.6-1-1.3-2.1-2-3.1L284.6,148.8L284.6,148.8z M287,152.7c0.6,1,1.1,2,1.6,3.1l1.8-0.8
							c-0.5-1.1-1.1-2.2-1.7-3.3L287,152.7L287,152.7L287,152.7z M288.9,156.5c0.5,1.1,0.9,2.2,1.3,3.4l1.8-0.6
							c-0.4-1.2-0.9-2.4-1.4-3.6L288.9,156.5L288.9,156.5z M290.5,160.7c0.4,1.2,0.7,2.3,0.9,3.5l1.9-0.4c-0.3-1.2-0.6-2.5-1-3.7
							L290.5,160.7L290.5,160.7L290.5,160.7z M291.6,165c0.2,1.2,0.4,2.4,0.6,3.6l1.9-0.2c-0.1-1.3-0.3-2.5-0.6-3.8L291.6,165
							L291.6,165z M292.3,169.4c0.1,1.1,0.2,2.3,0.2,3.4h1.9c0-1.2-0.1-2.5-0.2-3.6L292.3,169.4L292.3,169.4z M292.4,174
							c0,1.2-0.1,2.3-0.2,3.4l1.9,0.2c0.1-1.2,0.2-2.4,0.2-3.6H292.4z M292.2,178.3c-0.1,1.2-0.3,2.4-0.6,3.6l1.9,0.4
							c0.2-1.2,0.4-2.5,0.6-3.8L292.2,178.3L292.2,178.3z M291.4,182.7c-0.3,1.2-0.6,2.3-0.9,3.5l1.8,0.6c0.4-1.2,0.7-2.4,1-3.7
							L291.4,182.7L291.4,182.7L291.4,182.7z M290.2,187c-0.4,1.2-0.8,2.3-1.3,3.4l1.8,0.8c0.5-1.2,1-2.4,1.4-3.6L290.2,187
							L290.2,187z M288.6,191.2c-0.5,1-1,2.1-1.6,3.1l1.7,1c0.6-1.1,1.2-2.1,1.7-3.3L288.6,191.2L288.6,191.2L288.6,191.2z
							 M286.4,195.3c-0.6,1-1.2,2-1.9,2.9l1.6,1.1c0.7-1,1.4-2,2-3.1L286.4,195.3L286.4,195.3L286.4,195.3z M284.1,198.8
							c-0.7,1-1.5,1.9-2.3,2.8l1.4,1.3c0.8-0.9,1.7-2,2.4-3L284.1,198.8L284.1,198.8L284.1,198.8z M281.2,202.3
							c-0.4,0.4-0.8,0.9-1.2,1.3c-0.4,0.4-0.9,0.8-1.3,1.2l1.3,1.4c0.5-0.4,0.9-0.9,1.4-1.3c0.4-0.4,0.9-0.9,1.3-1.4L281.2,202.3
							L281.2,202.3L281.2,202.3z M278,205.4c-0.9,0.8-1.8,1.6-2.8,2.3l1.1,1.6c1-0.8,2-1.6,3-2.4L278,205.4L278,205.4L278,205.4z
							 M274.5,208.2c-0.9,0.7-1.9,1.3-2.9,1.9l1,1.7c1-0.6,2.1-1.3,3.1-2L274.5,208.2L274.5,208.2L274.5,208.2z M270.6,210.6
							c-1,0.6-2,1.1-3.1,1.6l0.8,1.8c1.1-0.5,2.2-1.1,3.3-1.7L270.6,210.6L270.6,210.6L270.6,210.6z M266.8,212.5
							c-1.1,0.5-2.2,0.9-3.4,1.3l0.6,1.8c1.2-0.4,2.4-0.9,3.6-1.4L266.8,212.5L266.8,212.5z M262.6,214.1c-1.2,0.4-2.3,0.7-3.5,0.9
							l0.4,1.9c1.2-0.3,2.5-0.6,3.7-1L262.6,214.1L262.6,214.1L262.6,214.1z M258.3,215.2c-1.2,0.2-2.4,0.4-3.6,0.6l0.2,1.9
							c1.3-0.1,2.5-0.4,3.8-0.6L258.3,215.2L258.3,215.2z M253.9,215.9c-1.1,0.1-2.3,0.2-3.4,0.2v1.9c1.2,0,2.5-0.1,3.6-0.2
							L253.9,215.9L253.9,215.9L253.9,215.9z M249.2,216.1c-1.2,0-2.3-0.1-3.4-0.2l-0.2,1.9c1.2,0.1,2.4,0.2,3.6,0.2V216.1
							L249.2,216.1L249.2,216.1z M245,215.8c-1.2-0.1-2.4-0.3-3.6-0.6l-0.4,1.9c1.2,0.3,2.5,0.4,3.8,0.6L245,215.8L245,215.8z
							 M240.6,215c-1.2-0.3-2.4-0.6-3.5-0.9l-0.6,1.8c1.2,0.4,2.4,0.7,3.7,1L240.6,215L240.6,215L240.6,215z M236.3,213.9
							c-1.2-0.4-2.3-0.8-3.4-1.3l-0.8,1.8c1.2,0.5,2.4,1,3.6,1.4L236.3,213.9L236.3,213.9z M232.1,212.2c-1-0.5-2.1-1-3.1-1.6
							l-1,1.7c1.1,0.6,2.1,1.2,3.3,1.7L232.1,212.2L232.1,212.2L232.1,212.2z M228,210.1c-1-0.6-2-1.2-2.9-1.9l-1.1,1.6
							c1,0.7,2,1.4,3.1,2L228,210.1L228,210.1L228,210.1z M224.5,207.7c-1-0.7-1.9-1.5-2.8-2.3l-1.3,1.4c0.9,0.8,2,1.7,3,2.4
							L224.5,207.7L224.5,207.7L224.5,207.7z M221,204.8c-0.4-0.4-0.9-0.8-1.3-1.2c-0.4-0.4-0.8-0.9-1.2-1.3l-1.4,1.3
							c0.4,0.5,0.9,0.9,1.3,1.4c0.4,0.4,0.9,0.9,1.4,1.3L221,204.8C221,204.8,221,204.8,221,204.8z M217.9,201.7
							c-0.8-0.9-1.6-1.8-2.3-2.8L214,200c0.8,1,1.6,2,2.4,3L217.9,201.7L217.9,201.7L217.9,201.7z M215.1,198.2
							c-0.7-0.9-1.3-1.9-1.9-2.9l-1.7,1c0.6,1,1.3,2.1,2,3.1L215.1,198.2L215.1,198.2L215.1,198.2z M212.6,194.2
							c-0.6-1-1.1-2-1.6-3.1l-1.8,0.8c0.5,1.1,1.1,2.2,1.7,3.3L212.6,194.2L212.6,194.2L212.6,194.2z M210.8,190.4
							c-0.5-1.1-0.9-2.2-1.3-3.4l-1.8,0.6c0.4,1.2,0.9,2.4,1.4,3.6L210.8,190.4L210.8,190.4z M209.2,186.2c-0.4-1.2-0.7-2.3-0.9-3.5
							l-1.9,0.4c0.3,1.2,0.6,2.5,1,3.7L209.2,186.2L209.2,186.2L209.2,186.2z M208.1,181.9c-0.2-1.2-0.4-2.4-0.6-3.6l-1.9,0.2
							c0.1,1.3,0.4,2.5,0.6,3.8L208.1,181.9L208.1,181.9z M207.4,177.5c-0.1-1.1-0.2-2.3-0.2-3.4h-1.9c0,1.2,0.1,2.5,0.2,3.6
							L207.4,177.5L207.4,177.5z M207.2,172.9c0-1.2,0.1-2.3,0.2-3.4l-1.9-0.2c-0.1,1.2-0.2,2.4-0.2,3.6H207.2z M207.5,168.6
							c0.1-1.2,0.3-2.4,0.6-3.6l-1.9-0.4c-0.2,1.2-0.4,2.5-0.6,3.8L207.5,168.6L207.5,168.6z M208.3,164.2c0.3-1.2,0.6-2.4,0.9-3.5
							l-1.8-0.6c-0.4,1.2-0.7,2.4-1,3.7L208.3,164.2L208.3,164.2L208.3,164.2z M209.4,159.9c0.4-1.2,0.8-2.3,1.3-3.4l-1.8-0.8
							c-0.5,1.2-1,2.4-1.4,3.6L209.4,159.9L209.4,159.9z M211.1,155.8c0.5-1.1,1-2.1,1.6-3.1l-1.7-1c-0.6,1.1-1.2,2.1-1.7,3.3
							L211.1,155.8L211.1,155.8L211.1,155.8z M213.2,151.7c0.6-1,1.2-2,1.9-2.9l-1.6-1.1c-0.7,1-1.4,2-2,3.1L213.2,151.7
							L213.2,151.7z M215.6,148.1c0.7-1,1.5-1.9,2.3-2.8l-1.4-1.3c-0.8,0.9-1.7,2-2.4,3L215.6,148.1L215.6,148.1L215.6,148.1z
							 M218.5,144.6c0.4-0.4,0.8-0.9,1.2-1.3c0.4-0.4,0.9-0.8,1.3-1.2l-1.3-1.4c-0.5,0.4-0.9,0.9-1.4,1.3c-0.4,0.4-0.9,0.9-1.3,1.4
							L218.5,144.6C218.5,144.6,218.5,144.6,218.5,144.6z M221.7,141.5c0.9-0.8,1.8-1.6,2.8-2.3l-1.1-1.6c-1,0.8-2,1.6-3,2.4
							L221.7,141.5L221.7,141.5L221.7,141.5z M232.9,134.4c1.1-0.5,2.2-0.9,3.4-1.3l-0.6-1.8c-1.2,0.4-2.4,0.9-3.6,1.4L232.9,134.4
							L232.9,134.4z M237.1,132.8c1.2-0.4,2.3-0.7,3.5-0.9l-0.4-1.9c-1.2,0.3-2.5,0.6-3.7,1L237.1,132.8L237.1,132.8L237.1,132.8z
							 M241.4,131.7c1.2-0.2,2.4-0.4,3.6-0.6l-0.2-1.9c-1.3,0.1-2.5,0.3-3.8,0.6L241.4,131.7L241.4,131.7z M245.8,131
							c1.1-0.1,2.3-0.2,3.4-0.2v-1.9c-1.2,0-2.5,0.1-3.6,0.2L245.8,131L245.8,131z M279.7,143.6c-7.6-7.6-18.2-12.4-29.8-12.4
							s-22.2,4.7-29.8,12.4c-7.6,7.6-12.4,18.2-12.4,29.8c0,11.7,4.7,22.2,12.4,29.8c7.6,7.6,18.2,12.4,29.8,12.4
							s22.2-4.7,29.8-12.4c7.6-7.6,12.4-18.2,12.4-29.8S287.3,151.2,279.7,143.6L279.7,143.6z M249.8,128.5c12.4,0,23.6,5,31.7,13.2
							c8.1,8.1,13.2,19.3,13.2,31.7s-5,23.6-13.2,31.7c-8.1,8.1-19.3,13.2-31.7,13.2c-12.4,0-23.6-5-31.7-13.2
							c-8.1-8.1-13.2-19.3-13.2-31.7c0-12.4,5-23.6,13.2-31.7C226.2,133.6,237.5,128.5,249.8,128.5
							C249.8,128.5,249.8,128.5,249.8,128.5z"/>
						<g>
							<path class="st5" d="M264.4,158.5c0.6,0.1,1,0.4,1.3,0.8c0.1-0.7,1.4-2,2.5-1.5c0.9,0.4,0.9,1.4,0.4,2.1
								c-0.3,0.3-0.6,0.6-1,0.5c-0.3-0.1-0.6-0.4-0.4-0.8c0.1-0.1,0.2-0.3,0.4-0.4c0.4-0.1,0.4-0.1,0.5-0.1c0.3-0.1,0.1-0.5-0.2-0.6
								c-0.6-0.2-1.3,0.2-1.5,0.7c-0.1,0.3-0.2,0.6-0.2,0.9c0.2,0.8,0,1.8-0.6,2.4l2.9-1.8l1.5-2.2c2.6-0.6,9.4-4.4,12.7-6.2
								c0.1-0.1,0.2,0,0.3,0.1c0.1,0.1,0,0.2-0.1,0.3c-3.1,2.3-9.4,6.7-11.1,8.8l-2.6,0.4l-2.9,1.8c0.8-0.3,1.8-0.1,2.4,0.5
								c0.3,0.1,0.6,0.2,0.9,0.2c0.5,0,1.2-0.5,1.3-1.1c0.1-0.4-0.2-0.7-0.4-0.5c-0.1,0.1-0.1,0.1-0.4,0.4c-0.1,0.1-0.4,0.2-0.5,0.2
								c-0.4,0-0.6-0.4-0.5-0.7c0.1-0.4,0.5-0.6,0.9-0.7c0.8-0.1,1.7,0.4,1.7,1.3c-0.1,1.2-1.7,1.9-2.4,1.6c0.2,0.4,0.3,0.9,0.1,1.5
								c-0.4,1.8-2.6,2.5-3.9,2.2c-0.1,0-0.1,0-0.2-0.1c0.1,0.1,0.1,0.2,0.2,0.2c0.9,1.4,0.5,3.5-1.4,4.8c-2.3,1.8-5.6,1.2-7.1-0.6
								c-0.7-0.8-1-1.8-1-3l-5.7,3.6l-0.8-1.3l5.7-3.6c-1-0.6-1.8-1.3-2.2-2.2c-1-2.2-0.1-5.3,2.5-6.6c2-1.1,4.1-0.6,5,0.8
								c0.1,0.1,0.1,0.2,0.1,0.3c0-0.1,0-0.1,0-0.2c0.3-1.3,1.9-2.9,3.7-2.5l0,0L264.4,158.5z M264.6,168.1
								c-0.1-0.2-0.2-0.4-0.1-0.7c0.1-0.5,0.7-1.2,1.4-1.2c0.3,0,0.6,0.1,0.8,0.4c0.3,0.5,0.2,0.6,0.3,0.8c0.3,0.3,0.9-0.1,1.1-0.8
								c0.2-1.1-0.6-1.9-1.5-2c-0.6-0.1-1.2,0.1-1.8,0.3l-6,3.8c-1.3,1.3-1.3,2.9-0.8,3.7c0.9,1.4,3.5,1.8,5.3,0.1
								c0.9-0.8,0.6-2.3-0.1-2.7l0,0c-0.2,0.4-0.5,0.7-0.9,0.9c-0.8,0.4-1.7,0.1-2-0.6c-0.3-0.7,0.1-1.6,1-2
								c0.1-0.1,0.3-0.1,0.4-0.1C262.6,167.5,263.7,167.7,264.6,168.1L264.6,168.1L264.6,168.1z M263.8,163.5c0.5-0.4,0.9-1,1.1-1.5
								c0.3-0.9,0-2-1.1-2.3c-0.7-0.2-1.4,0.2-1.2,0.6c0.1,0.2,0.2,0.2,0.6,0.6c0.2,0.2,0.1,0.6,0,0.8c-0.3,0.6-1.2,0.9-1.7,0.7
								c-0.3-0.1-0.4-0.2-0.6-0.4c0,0.9-0.3,2-1,2.8c-0.1,0.1-0.2,0.2-0.3,0.3c-0.7,0.6-1.7,0.6-2.2,0c-0.5-0.6-0.4-1.5,0.3-2.1
								c0.4-0.3,0.8-0.4,1.2-0.4l0,0c-0.1-0.8-1.3-1.7-2.4-1.2c-2.3,0.9-3.1,3.4-2.2,4.9c0.5,0.8,2,1.6,3.7,0.9L263.8,163.5
								L263.8,163.5L263.8,163.5z"/>
							<path class="st5" d="M249.9,173.3L249.9,173.3l-0.6,0.7l-0.6-0.5c-5,0.5-7.5-3-9.9-6.6c-1.5-2.2-4.9-6.8-7.2-6.9
								c-1.4-0.1-2.9,1-2.5,2.9c0.3,1,1.6,1.7,2.3,1.7l0,0c-0.2-0.3-0.3-0.5-0.3-1c0.1-0.5,0.7-1,1.5-0.7c0.7,0.3,1.2,1.4,1.2,1.8
								c0,0.4,0,0.2-0.1,0.3c-0.3,1.1-1.7,1.7-2.8,1.5c-1.6-0.4-3.1-1.9-3.3-3.8c-0.1-0.8,0-1.4,0.3-2c-1.5,0.3-4.4-1.6-4.3-4.1
								c0.1-2,2.3-2.5,3.7-2l-1.1-0.9l-6.4-5.5l-1.4-0.4c-0.7-1.2-3.4-3.8-4.9-5.3l-0.1-0.1c0,0-0.1-0.1-0.1-0.1l-0.1-0.1
								c0,0-0.1-0.1,0-0.2c0,0,0.1-0.1,0.2,0l0.1,0.1c0,0,0.1,0,0.1,0.1l0.1,0.1c1.7,1.3,4.7,3.5,6,4l0.6,1.3l6.4,5.5l1.1,0.9
								c-0.7-1.4-0.5-3.6,1.4-4c2.5-0.5,4.8,2,4.7,3.6c0.5-0.4,1.1-0.6,1.9-0.6c1.9,0,3.7,1.2,4.3,2.7c0.4,1,0,2.5-1.1,2.9
								c-0.1,0.1,0.1,0-0.3,0.1c-0.4,0.1-1.6-0.2-2-0.9c-0.4-0.7,0-1.4,0.5-1.5c0.5-0.1,0.7,0,1.1,0.1l0,0c0-0.7-1-1.9-2-2
								c-2-0.2-2.8,1.5-2.5,2.9c0.5,2.2,5.5,5,7.9,6.1c4,1.8,7.9,3.7,8.1,8.8l0.6,0.5L249.9,173.3L249.9,173.3L249.9,173.3z
								 M233,154.8c0.1-0.6,0-1.2-0.2-1.8c-0.4-1-1.7-1.9-2.9-1.6c-0.8,0.1-1.1,0.9-0.6,1.2c0.3,0.2,0.3,0.1,1,0.3
								c0.3,0.1,0.6,0.5,0.7,0.8c0.2,0.7-0.4,1.4-1,1.5c-0.2,0-0.3,0-0.5,0l4,3.3c-0.3-0.4-0.5-0.9-0.6-1.4
								C232.7,156.3,232.7,155.5,233,154.8C233,154.8,233,154.8,233,154.8z M239.1,163.2l10.4,8.6c-1.5-4.3-4.6-5.9-7.9-7.4
								C240.7,164.1,239.9,163.6,239.1,163.2L239.1,163.2L239.1,163.2z M248.3,173.1l-10.1-8.9c0.6,0.8,1.2,1.6,1.6,2.3
								C241.8,169.5,243.8,172.3,248.3,173.1C248.3,173.1,248.3,173.1,248.3,173.1z M232.7,159.3l-3.9-3.4c0.1,0.1,0.1,0.3,0.1,0.5
								c0,0.6-0.5,1.3-1.3,1.2c-0.3,0-0.7-0.2-0.9-0.5c-0.4-0.7-0.3-0.7-0.5-1c-0.4-0.4-1,0-1.1,0.8c0,1.3,1,2.4,2,2.6
								c0.6,0.1,1.2,0.1,1.9,0c0.7-0.4,1.4-0.6,2.2-0.5C231.7,159,232.1,159.1,232.7,159.3C232.7,159.3,232.7,159.3,232.7,159.3z"/>
							<path class="st5" d="M251,171.6c0.9,0.6,1.1,1.7,0.5,2.6s-1.7,1.1-2.6,0.5c-0.9-0.6-1.1-1.7-0.5-2.6
								C248.9,171.2,250.1,171,251,171.6L251,171.6z"/>
						</g>
					</g>
				</g>
			</g>
		</g>
	</g>
</g>
</svg>
