<?xml version="1.0" encoding="utf-8"?>
<!-- Generator: Adobe Illustrator 26.5.0, SVG Export Plug-In . SVG Version: 6.00 Build 0)  -->
<svg version="1.1" id="Layer_1" xmlns="http://www.w3.org/2000/svg" xmlns:xlink="http://www.w3.org/1999/xlink" x="0px" y="0px"
	 viewBox="0 0 500 500" style="enable-background:new 0 0 500 500;" xml:space="preserve">
<style type="text/css">
	.st0{fill-rule:evenodd;clip-rule:evenodd;fill:#4D4D4D;}
	.st1{fill-rule:evenodd;clip-rule:evenodd;fill:#A2C239;}
	.st2{fill-rule:evenodd;clip-rule:evenodd;fill:#FFFFFF;}
	.st3{fill-rule:evenodd;clip-rule:evenodd;fill:#FF9022;}
	.st4{fill:#4D4D4D;}
</style>
<g>
	<polygon class="st0" points="25.2,393.7 116.4,393.7 116.4,387.3 25.2,387.3 	"/>
	<polygon class="st1" points="25.2,401.3 116.4,401.3 116.4,394.9 25.2,394.9 	"/>
	<polygon class="st0" points="28.3,434.6 114.2,434.6 114.2,401.4 28.3,401.4 	"/>
	<path class="st2" d="M112.3,430.5c-0.8,0-1.4,0.7-1.4,1.6s0.6,1.6,1.4,1.6s1.4-0.7,1.4-1.6C113.8,431.2,113.1,430.5,112.3,430.5z"
		/>
	<path class="st2" d="M112.3,420.9c-0.8,0-1.4,0.7-1.4,1.6s0.6,1.6,1.4,1.6s1.4-0.7,1.4-1.6C113.8,421.6,113.1,420.9,112.3,420.9z"
		/>
	<path class="st2" d="M112.3,411.3c-0.8,0-1.4,0.7-1.4,1.6s0.6,1.6,1.4,1.6s1.4-0.7,1.4-1.6C113.8,412,113.1,411.3,112.3,411.3z"/>
	<path class="st2" d="M112.3,401.8c-0.8,0-1.4,0.7-1.4,1.6s0.6,1.6,1.4,1.6s1.4-0.7,1.4-1.6C113.8,402.5,113.1,401.8,112.3,401.8z"
		/>
	<path class="st2" d="M107.8,426.1c-0.8,0-1.4,0.7-1.4,1.6s0.6,1.6,1.4,1.6s1.4-0.7,1.4-1.6S108.6,426.1,107.8,426.1z"/>
	<path class="st2" d="M107.8,416.6c-0.8,0-1.4,0.7-1.4,1.6s0.6,1.6,1.4,1.6s1.4-0.7,1.4-1.6C109.3,417.3,108.6,416.6,107.8,416.6z"
		/>
	<path class="st2" d="M107.8,407c-0.8,0-1.4,0.7-1.4,1.6s0.6,1.6,1.4,1.6s1.4-0.7,1.4-1.6C109.3,407.7,108.6,407,107.8,407z"/>
	<path class="st2" d="M103.2,430.5c-0.8,0-1.4,0.7-1.4,1.6s0.6,1.6,1.4,1.6s1.4-0.7,1.4-1.6C104.7,431.2,104,430.5,103.2,430.5z"/>
	<path class="st2" d="M103.2,420.9c-0.8,0-1.4,0.7-1.4,1.6s0.6,1.6,1.4,1.6s1.4-0.7,1.4-1.6C104.7,421.6,104,420.9,103.2,420.9z"/>
	<path class="st2" d="M103.2,411.3c-0.8,0-1.4,0.7-1.4,1.6s0.6,1.6,1.4,1.6s1.4-0.7,1.4-1.6C104.7,412,104,411.3,103.2,411.3z"/>
	<path class="st2" d="M103.2,401.8c-0.8,0-1.4,0.7-1.4,1.6s0.6,1.6,1.4,1.6s1.4-0.7,1.4-1.6C104.7,402.5,104,401.8,103.2,401.8z"/>
	<path class="st2" d="M98.7,426.1c-0.8,0-1.4,0.7-1.4,1.6s0.6,1.6,1.4,1.6s1.4-0.7,1.4-1.6S99.5,426.1,98.7,426.1z"/>
	<path class="st2" d="M98.7,416.6c-0.8,0-1.4,0.7-1.4,1.6s0.6,1.6,1.4,1.6s1.4-0.7,1.4-1.6C100.2,417.3,99.5,416.6,98.7,416.6z"/>
	<path class="st2" d="M98.7,407c-0.8,0-1.4,0.7-1.4,1.6s0.6,1.6,1.4,1.6s1.4-0.7,1.4-1.6C100.2,407.7,99.5,407,98.7,407z"/>
	<path class="st2" d="M94.1,430.5c-0.8,0-1.4,0.7-1.4,1.6s0.6,1.6,1.4,1.6s1.4-0.7,1.4-1.6S94.9,430.5,94.1,430.5z"/>
	<path class="st2" d="M94.1,420.9c-0.8,0-1.4,0.7-1.4,1.6s0.6,1.6,1.4,1.6s1.4-0.7,1.4-1.6S94.9,420.9,94.1,420.9z"/>
	<path class="st2" d="M94.1,411.3c-0.8,0-1.4,0.7-1.4,1.6s0.6,1.6,1.4,1.6s1.4-0.7,1.4-1.6S94.9,411.3,94.1,411.3z"/>
	<path class="st2" d="M94.1,401.8c-0.8,0-1.4,0.7-1.4,1.6s0.6,1.6,1.4,1.6s1.4-0.7,1.4-1.6S94.9,401.8,94.1,401.8z"/>
	<path class="st2" d="M89.6,426.1c-0.8,0-1.4,0.7-1.4,1.6s0.6,1.6,1.4,1.6s1.4-0.7,1.4-1.6S90.4,426.1,89.6,426.1z"/>
	<path class="st2" d="M89.6,416.6c-0.8,0-1.4,0.7-1.4,1.6s0.6,1.6,1.4,1.6s1.4-0.7,1.4-1.6C91.1,417.3,90.4,416.6,89.6,416.6z"/>
	<path class="st2" d="M89.6,407c-0.8,0-1.4,0.7-1.4,1.6s0.6,1.6,1.4,1.6s1.4-0.7,1.4-1.6C91.1,407.7,90.4,407,89.6,407z"/>
	<path class="st2" d="M85,430.5c-0.8,0-1.4,0.7-1.4,1.6s0.6,1.6,1.4,1.6s1.4-0.7,1.4-1.6S85.8,430.5,85,430.5z"/>
	<path class="st2" d="M85,420.9c-0.8,0-1.4,0.7-1.4,1.6s0.6,1.6,1.4,1.6s1.4-0.7,1.4-1.6S85.8,420.9,85,420.9z"/>
	<path class="st2" d="M85,411.3c-0.8,0-1.4,0.7-1.4,1.6s0.6,1.6,1.4,1.6s1.4-0.7,1.4-1.6S85.8,411.3,85,411.3z"/>
	<path class="st2" d="M85,401.8c-0.8,0-1.4,0.7-1.4,1.6s0.6,1.6,1.4,1.6s1.4-0.7,1.4-1.6S85.8,401.8,85,401.8z"/>
	<path class="st2" d="M80.5,426.1c-0.8,0-1.4,0.7-1.4,1.6s0.6,1.6,1.4,1.6s1.4-0.7,1.4-1.6S81.3,426.1,80.5,426.1z"/>
	<path class="st2" d="M80.5,416.6c-0.8,0-1.4,0.7-1.4,1.6s0.6,1.6,1.4,1.6s1.4-0.7,1.4-1.6C81.9,417.3,81.3,416.6,80.5,416.6z"/>
	<path class="st2" d="M80.5,407c-0.8,0-1.4,0.7-1.4,1.6s0.6,1.6,1.4,1.6s1.4-0.7,1.4-1.6S81.3,407,80.5,407z"/>
	<path class="st2" d="M75.9,430.5c-0.8,0-1.4,0.7-1.4,1.6s0.6,1.6,1.4,1.6s1.4-0.7,1.4-1.6S76.7,430.5,75.9,430.5z"/>
	<path class="st2" d="M75.9,420.9c-0.8,0-1.4,0.7-1.4,1.6s0.6,1.6,1.4,1.6s1.4-0.7,1.4-1.6S76.7,420.9,75.9,420.9z"/>
	<path class="st2" d="M75.9,411.3c-0.8,0-1.4,0.7-1.4,1.6s0.6,1.6,1.4,1.6s1.4-0.7,1.4-1.6S76.7,411.3,75.9,411.3z"/>
	<path class="st2" d="M75.9,401.8c-0.8,0-1.4,0.7-1.4,1.6s0.6,1.6,1.4,1.6s1.4-0.7,1.4-1.6S76.7,401.8,75.9,401.8z"/>
	<path class="st2" d="M71.4,426.1c-0.8,0-1.4,0.7-1.4,1.6s0.6,1.6,1.4,1.6s1.4-0.7,1.4-1.6S72.2,426.1,71.4,426.1z"/>
	<path class="st2" d="M71.4,416.6c-0.8,0-1.4,0.7-1.4,1.6s0.6,1.6,1.4,1.6s1.4-0.7,1.4-1.6C72.8,417.3,72.2,416.6,71.4,416.6z"/>
	<path class="st2" d="M71.4,407c-0.8,0-1.4,0.7-1.4,1.6s0.6,1.6,1.4,1.6s1.4-0.7,1.4-1.6S72.2,407,71.4,407z"/>
	<path class="st2" d="M66.8,430.5c-0.8,0-1.4,0.7-1.4,1.6s0.6,1.6,1.4,1.6s1.4-0.7,1.4-1.6C68.2,431.2,67.6,430.5,66.8,430.5z"/>
	<path class="st2" d="M66.8,420.9c-0.8,0-1.4,0.7-1.4,1.6s0.6,1.6,1.4,1.6s1.4-0.7,1.4-1.6C68.2,421.6,67.6,420.9,66.8,420.9z"/>
	<path class="st2" d="M66.8,411.3c-0.8,0-1.4,0.7-1.4,1.6s0.6,1.6,1.4,1.6s1.4-0.7,1.4-1.6C68.2,412,67.6,411.3,66.8,411.3z"/>
	<path class="st2" d="M66.8,401.8c-0.8,0-1.4,0.7-1.4,1.6s0.6,1.6,1.4,1.6s1.4-0.7,1.4-1.6C68.2,402.5,67.6,401.8,66.8,401.8z"/>
	<path class="st2" d="M62.3,426.1c-0.8,0-1.4,0.7-1.4,1.6s0.6,1.6,1.4,1.6c0.8,0,1.4-0.7,1.4-1.6S63.1,426.1,62.3,426.1z"/>
	<path class="st2" d="M62.3,416.6c-0.8,0-1.4,0.7-1.4,1.6s0.6,1.6,1.4,1.6c0.8,0,1.4-0.7,1.4-1.6C63.7,417.3,63.1,416.6,62.3,416.6z
		"/>
	<path class="st2" d="M62.3,407c-0.8,0-1.4,0.7-1.4,1.6s0.6,1.6,1.4,1.6c0.8,0,1.4-0.7,1.4-1.6S63.1,407,62.3,407z"/>
	<path class="st2" d="M57.6,430.5c-0.8,0-1.4,0.7-1.4,1.6s0.6,1.6,1.4,1.6c0.8,0,1.4-0.7,1.4-1.6C59.1,431.2,58.4,430.5,57.6,430.5z
		"/>
	<path class="st2" d="M57.6,420.9c-0.8,0-1.4,0.7-1.4,1.6s0.6,1.6,1.4,1.6c0.8,0,1.4-0.7,1.4-1.6C59.1,421.6,58.4,420.9,57.6,420.9z
		"/>
	<path class="st2" d="M57.6,411.3c-0.8,0-1.4,0.7-1.4,1.6s0.6,1.6,1.4,1.6c0.8,0,1.4-0.7,1.4-1.6C59.1,412,58.4,411.3,57.6,411.3z"
		/>
	<path class="st2" d="M57.6,401.8c-0.8,0-1.4,0.7-1.4,1.6s0.6,1.6,1.4,1.6c0.8,0,1.4-0.7,1.4-1.6C59.1,402.5,58.4,401.8,57.6,401.8z
		"/>
	<path class="st2" d="M53.2,426.1c-0.8,0-1.4,0.7-1.4,1.6s0.6,1.6,1.4,1.6s1.4-0.7,1.4-1.6S54,426.1,53.2,426.1z"/>
	<path class="st2" d="M53.2,416.6c-0.8,0-1.4,0.7-1.4,1.6s0.6,1.6,1.4,1.6s1.4-0.7,1.4-1.6C54.6,417.3,54,416.6,53.2,416.6z"/>
	<path class="st2" d="M53.2,407c-0.8,0-1.4,0.7-1.4,1.6s0.6,1.6,1.4,1.6s1.4-0.7,1.4-1.6C54.6,407.7,54,407,53.2,407z"/>
	<path class="st2" d="M48.5,430.5c-0.8,0-1.4,0.7-1.4,1.6s0.6,1.6,1.4,1.6c0.8,0,1.4-0.7,1.4-1.6C50,431.2,49.3,430.5,48.5,430.5z"
		/>
	<path class="st2" d="M48.5,420.9c-0.8,0-1.4,0.7-1.4,1.6s0.6,1.6,1.4,1.6c0.8,0,1.4-0.7,1.4-1.6C50,421.6,49.3,420.9,48.5,420.9z"
		/>
	<path class="st2" d="M48.5,411.3c-0.8,0-1.4,0.7-1.4,1.6s0.6,1.6,1.4,1.6c0.8,0,1.4-0.7,1.4-1.6C50,412,49.3,411.3,48.5,411.3z"/>
	<path class="st2" d="M48.5,401.8c-0.8,0-1.4,0.7-1.4,1.6s0.6,1.6,1.4,1.6c0.8,0,1.4-0.7,1.4-1.6C50,402.5,49.3,401.8,48.5,401.8z"
		/>
	<path class="st2" d="M44,426.1c-0.8,0-1.4,0.7-1.4,1.6s0.6,1.6,1.4,1.6c0.8,0,1.4-0.7,1.4-1.6S44.8,426.1,44,426.1z"/>
	<path class="st2" d="M44,416.6c-0.8,0-1.4,0.7-1.4,1.6s0.6,1.6,1.4,1.6c0.8,0,1.4-0.7,1.4-1.6C45.5,417.3,44.8,416.6,44,416.6z"/>
	<path class="st2" d="M44,407c-0.8,0-1.4,0.7-1.4,1.6s0.6,1.6,1.4,1.6c0.8,0,1.4-0.7,1.4-1.6C45.5,407.7,44.8,407,44,407z"/>
	<path class="st2" d="M39.4,430.5c-0.8,0-1.4,0.7-1.4,1.6s0.6,1.6,1.4,1.6c0.8,0,1.4-0.7,1.4-1.6C40.9,431.2,40.2,430.5,39.4,430.5z
		"/>
	<path class="st2" d="M39.4,420.9c-0.8,0-1.4,0.7-1.4,1.6s0.6,1.6,1.4,1.6c0.8,0,1.4-0.7,1.4-1.6C40.9,421.6,40.2,420.9,39.4,420.9z
		"/>
	<path class="st2" d="M39.4,411.3c-0.8,0-1.4,0.7-1.4,1.6s0.6,1.6,1.4,1.6c0.8,0,1.4-0.7,1.4-1.6C40.9,412,40.2,411.3,39.4,411.3z"
		/>
	<path class="st2" d="M39.4,401.8c-0.8,0-1.4,0.7-1.4,1.6s0.6,1.6,1.4,1.6c0.8,0,1.4-0.7,1.4-1.6C40.9,402.5,40.2,401.8,39.4,401.8z
		"/>
	<path class="st2" d="M34.9,426.1c-0.8,0-1.4,0.7-1.4,1.6s0.6,1.6,1.4,1.6c0.8,0,1.4-0.7,1.4-1.6S35.7,426.1,34.9,426.1z"/>
	<path class="st2" d="M34.9,416.6c-0.8,0-1.4,0.7-1.4,1.6s0.6,1.6,1.4,1.6c0.8,0,1.4-0.7,1.4-1.6C36.4,417.3,35.7,416.6,34.9,416.6z
		"/>
	<path class="st2" d="M34.9,407c-0.8,0-1.4,0.7-1.4,1.6s0.6,1.6,1.4,1.6c0.8,0,1.4-0.7,1.4-1.6C36.4,407.7,35.7,407,34.9,407z"/>
	<path class="st2" d="M30.3,430.5c-0.8,0-1.4,0.7-1.4,1.6s0.6,1.6,1.4,1.6s1.4-0.7,1.4-1.6C31.8,431.2,31.1,430.5,30.3,430.5z"/>
	<path class="st2" d="M30.3,420.9c-0.8,0-1.4,0.7-1.4,1.6s0.6,1.6,1.4,1.6s1.4-0.7,1.4-1.6C31.8,421.6,31.1,420.9,30.3,420.9z"/>
	<path class="st2" d="M30.3,411.3c-0.8,0-1.4,0.7-1.4,1.6s0.6,1.6,1.4,1.6s1.4-0.7,1.4-1.6C31.8,412,31.1,411.3,30.3,411.3z"/>
	<path class="st2" d="M30.3,401.8c-0.8,0-1.4,0.7-1.4,1.6s0.6,1.6,1.4,1.6s1.4-0.7,1.4-1.6C31.8,402.5,31.1,401.8,30.3,401.8z"/>
	<polygon class="st1" points="341.4,358.5 381.9,358.5 381.9,343.6 341.4,343.6 	"/>
	<polygon class="st0" points="344.3,363.7 379,363.7 379,359.8 344.3,359.8 	"/>
	<polygon class="st0" points="342,413.8 381.3,413.8 381.3,410.9 342,410.9 	"/>
	<polygon class="st0" points="342,419.8 381.3,419.8 381.3,417 342,417 	"/>
	<polygon class="st0" points="341.4,433.3 381.9,433.3 381.9,422.6 341.4,422.6 	"/>
	<polygon class="st1" points="341.4,407.4 381.9,407.4 381.9,365 341.4,365 	"/>
	<path class="st0" d="M380.9,336.8c-4-4.2-9.4-2.5-16,5.1c-2-1.4-3.9-1.5-5.7-0.4c-1.5-4.4-5.1-6-10.7-4.6c-4.6,1.3-5.4,2.8-2.4,4.3
		c3.7,0.5,5.5,1.3,5.3,2.4c9.1,0,16.7,0,22.9,0c1.2-1.3,2.7-2,4.7-2.2C382.5,341.3,383.1,339.8,380.9,336.8L380.9,336.8z"/>
	<path class="st0" d="M463.5,346.8c-3-5-8.6-4.5-16.7,1.4c-1.7-1.8-3.5-2.4-5.4-1.7c-0.5-4.6-3.6-6.9-9.4-6.9
		c-4.8,0.3-5.9,1.5-3.3,3.7c3.5,1.3,5,2.5,4.7,3.6c8.9,2,16.3,3.8,22.3,5.1c1.4-1,3.1-1.4,5.1-1.1
		C464,351.5,464.9,350.2,463.5,346.8L463.5,346.8z"/>
	<path class="st1" d="M25.4,378.7c4.4-4.5,10.2-2.7,17.3,5.5c2.2-1.5,4.3-1.6,6.2-0.5c1.6-4.8,5.5-6.4,11.6-5c5,1.4,5.8,3,2.6,4.7
		c-4,0.6-5.9,1.5-5.8,2.6c-9.8,0-18.1,0-24.8,0c-1.3-1.4-3-2.2-5.1-2.4C23.7,383.7,23,382,25.4,378.7L25.4,378.7z"/>
	<path class="st1" d="M192.9,389.5c3.2-6.5,10.2-6.6,21-0.1c1.9-2.4,4.1-3.3,6.6-2.7c0.1-5.8,3.7-9,10.9-9.6c6-0.2,7.5,1.2,4.5,4.2
		c-4.2,2.1-6,3.7-5.4,5c-10.8,3.5-19.9,6.5-27.2,8.9c-1.9-1.1-4-1.3-6.5-0.8C192.7,395.5,191.4,393.9,192.9,389.5L192.9,389.5z"/>
	<path class="st1" d="M183.2,348.8c-6.3-6.4-14.5-3.8-24.7,7.9c-3.1-2.1-6.1-2.3-8.8-0.6c-2.3-6.8-7.8-9.2-16.5-7.1
		c-7.1,2.1-8.3,4.3-3.6,6.7c5.7,0.8,8.4,2.1,8.2,3.7c14,0,25.8-0.1,35.3-0.1c1.8-2,4.2-3.1,7.3-3.5
		C185.6,355.8,186.5,353.4,183.2,348.8L183.2,348.8z"/>
	<polygon class="st0" points="397.1,434.5 399.9,434.5 399.9,360.2 397.1,360.2 	"/>
	<polygon class="st0" points="403.4,434.5 406.2,434.5 406.2,360.2 403.4,360.2 	"/>
	<polygon class="st0" points="409.7,434.5 412.5,434.5 412.5,360.2 409.7,360.2 	"/>
	<polygon class="st0" points="418.8,361.6 418.8,434.5 416,434.5 416,360.9 	"/>
	<polygon class="st0" points="425.1,363.2 425.1,434.5 422.3,434.5 422.3,362.5 	"/>
	<polygon class="st0" points="431.4,364.8 431.4,434.5 428.6,434.5 428.6,364.1 	"/>
	<polygon class="st0" points="437.7,366.4 437.7,434.5 434.9,434.5 434.9,365.7 	"/>
	<polygon class="st0" points="444,368 444,434.5 441.2,434.5 441.2,367.3 	"/>
	<polygon class="st0" points="450.3,369.6 450.3,434.5 447.5,434.5 447.5,368.9 	"/>
	<polygon class="st0" points="456.6,371.2 456.6,434.5 453.9,434.5 453.9,370.5 	"/>
	<polygon class="st0" points="462.9,372.8 462.9,434.5 460.2,434.5 460.2,372.1 	"/>
	<polygon class="st0" points="469.3,374.4 469.3,434.5 466.5,434.5 466.5,373.7 	"/>
	<path class="st0" d="M475.1,360.2h0.5v0.1L475.1,360.2z M475.6,376v58.5h-2.8v-59.2L475.6,376L475.6,376z"/>
	<polygon class="st3" points="483.9,360.8 403.7,340.4 400.9,355.4 481,375.7 	"/>
	<polygon class="st1" points="483.9,360.8 403.7,340.4 400.9,355.4 481,375.7 	"/>
	<path class="st1" d="M0.9,58.2h498.3v383.5H0.9V58.2L0.9,58.2z M14.2,68.5h471.6v363H14.2V68.5z"/>
	<path class="st4" d="M182.9,114.5L161.2,136c-13.7-14.5-29.8-21.8-48-21.8c-15.9,0-29.3,5.3-40,15.8C62.4,140.6,57,153.4,57,168.5
		c0,15.6,5.6,28.8,16.7,39.7c11.2,10.9,24.9,16.3,41.3,16.3c10.6,0,19.6-2.3,26.9-6.7c7.3-4.5,13.2-11.5,17.7-21h-46.9v-28.9h81.5
		l0.2,6.8c0,14.2-3.7,27.6-11,40.3c-7.4,12.7-16.9,22.4-28.5,29.1c-11.7,6.7-25.4,10-41.1,10c-16.8,0-31.8-3.6-45-10.9
		c-13.2-7.3-23.6-17.7-31.3-31.2S26,183.9,26,168.3c0-21.4,7.1-40.1,21.3-55.9c16.7-19,38.6-28.5,65.6-28.5
		c14.1,0,27.3,2.6,39.6,7.8C162.8,96.2,173,103.8,182.9,114.5L182.9,114.5z M220.4,88H251v162h-30.7L220.4,88L220.4,88z M286.2,88
		h80.3v29.8h-49.6v29.6h49.6v29.8h-49.6V250h-30.7L286.2,88L286.2,88z M378.3,88h89.6v30.5h-29.6V250h-31.4V118.5h-28.7V88H378.3z"
		/>
	<path class="st4" d="M40.7,267.4h7.6v10.9c3-4.1,6.5-7.2,10.4-9.3c3.9-2,8.3-3.1,13.1-3.1c8.4,0,15.6,3,21.6,9.1c6,6,9,13.3,9,21.8
		c0,8.7-3,16.1-8.9,22.1C87.6,325,80.4,328,72,328c-4.7,0-9-1-13-2.9c-4-2-7.5-4.9-10.7-8.8v31.9h-7.6L40.7,267.4L40.7,267.4z
		 M71.3,273.4c-6.6,0-12.1,2.3-16.6,6.9s-6.8,10.3-6.8,17.1c0,4.5,1,8.5,3,12.1s4.9,6.4,8.6,8.5c3.8,2.1,7.7,3.1,11.9,3.1
		c4.1,0,7.9-1.1,11.5-3.2s6.5-5.1,8.6-8.8c2.1-3.8,3.2-7.8,3.2-11.9c0-4.2-1.1-8.2-3.2-11.9c-2.1-3.8-5-6.7-8.6-8.7
		C79.4,274.4,75.5,273.4,71.3,273.4L71.3,273.4z M175.7,267.4v59.2h-7.6v-10.2c-3.2,3.9-6.8,6.8-10.7,8.7c-4,1.9-8.3,2.9-13,2.9
		c-8.4,0-15.5-3-21.5-9.1c-5.9-6.1-8.9-13.4-8.9-22.1c0-8.5,3-15.8,9-21.8c6-6,13.2-9.1,21.6-9.1c4.9,0,9.2,1,13.2,3.1
		c3.9,2,7.4,5.1,10.4,9.3v-10.9H175.7L175.7,267.4z M145.2,273.4c-4.2,0-8.2,1-11.7,3.1c-3.6,2.1-6.4,5-8.6,8.7
		c-2.1,3.8-3.2,7.7-3.2,11.9c0,4.1,1.1,8.1,3.2,11.9s5,6.7,8.6,8.8c3.6,2.1,7.5,3.2,11.6,3.2s8.1-1,11.8-3.1s6.6-4.9,8.6-8.5
		s3-7.6,3-12.1c0-6.8-2.3-12.5-6.8-17.1C157.3,275.6,151.8,273.4,145.2,273.4L145.2,273.4z M250.5,279.8l-6,3.8
		c-5.2-6.9-12.4-10.4-21.5-10.4c-7.3,0-13.3,2.3-18.1,7c-4.8,4.6-7.2,10.2-7.2,16.9c0,4.3,1.1,8.4,3.3,12.2c2.2,3.8,5.2,6.7,9.1,8.8
		c3.8,2.1,8.1,3.1,12.9,3.1c8.7,0,15.9-3.5,21.4-10.4l6,4c-2.8,4.3-6.7,7.5-11.4,9.9c-4.8,2.3-10.2,3.5-16.4,3.5
		c-9.4,0-17.2-3-23.4-8.9c-6.2-6-9.3-13.2-9.3-21.7c0-5.7,1.5-11,4.4-15.9s6.9-8.7,11.9-11.5c5.1-2.8,10.7-4.1,17-4.1
		c3.9,0,7.7,0.6,11.4,1.8c3.6,1.2,6.8,2.8,9.3,4.7C246.6,274.4,248.7,276.8,250.5,279.8L250.5,279.8z M265.1,244.6h7.6v46.8l27.7-24
		h11l-32.6,28.2l34.5,31h-10.8l-29.8-26.8v26.8h-7.6L265.1,244.6L265.1,244.6z M351,273.9l-4.9,5.1c-4.1-3.9-8.1-5.9-12-5.9
		c-2.5,0-4.6,0.8-6.4,2.5c-1.8,1.6-2.7,3.5-2.7,5.7c0,1.9,0.7,3.8,2.2,5.5c1.4,1.8,4.5,3.9,9.2,6.3c5.7,2.9,9.5,5.8,11.5,8.5
		c2,2.8,3,5.9,3,9.3c0,4.9-1.7,9-5.1,12.4s-7.7,5.1-12.8,5.1c-3.4,0-6.7-0.7-9.8-2.2c-3.1-1.5-5.7-3.5-7.7-6.2l4.8-5.4
		c3.9,4.4,8,6.6,12.4,6.6c3,0,5.7-1,7.8-2.9c2.1-2,3.2-4.3,3.2-6.9c0-2.2-0.7-4.1-2.1-5.8c-1.4-1.7-4.6-3.8-9.6-6.3
		c-5.4-2.8-9-5.5-10.9-8.1c-1.9-2.7-2.9-5.7-2.9-9.2c0-4.5,1.5-8.2,4.6-11.2s7-4.4,11.7-4.4C340,266,345.5,268.6,351,273.9
		L351,273.9z M367,318.7c1.2,0,2.3,0.4,3.1,1.3c0.9,0.9,1.3,1.9,1.3,3.2c0,1.2-0.4,2.3-1.3,3.1c-0.9,0.9-1.9,1.3-3.1,1.3
		s-2.3-0.4-3.1-1.3c-0.9-0.9-1.3-1.9-1.3-3.1s0.4-2.3,1.3-3.2C364.8,319.2,365.8,318.7,367,318.7z M414.8,313.7l4.2,2.2
		c-1.4,2.7-3,4.9-4.8,6.6s-3.9,2.9-6.1,3.8c-2.3,0.9-4.9,1.3-7.7,1.3c-6.4,0-11.4-2.1-15-6.2c-3.6-4.2-5.4-8.9-5.4-14.1
		c0-4.9,1.5-9.3,4.6-13.2c3.9-4.9,9-7.4,15.5-7.4c6.7,0,12,2.5,16,7.6c2.8,3.6,4.3,8,4.3,13.3h-35.3c0.1,4.5,1.6,8.2,4.4,11.1
		s6.3,4.3,10.4,4.3c2,0,3.9-0.3,5.8-1s3.5-1.6,4.8-2.7C411.9,318.1,413.3,316.3,414.8,313.7L414.8,313.7z M414.9,303.2
		c-0.7-2.7-1.7-4.8-2.9-6.4c-1.3-1.6-3-2.9-5.1-3.9s-4.3-1.5-6.7-1.5c-3.9,0-7.2,1.2-9.9,3.7c-2,1.8-3.6,4.5-4.6,8.1L414.9,303.2
		L414.9,303.2z M429,287.7h5v18.2c0,4.4,0.2,7.5,0.7,9.2c0.7,2.4,2.1,4.3,4.1,5.7c2,1.4,4.4,2.1,7.2,2.1c2.8,0,5.2-0.7,7.1-2
		c1.9-1.4,3.3-3.1,4-5.3c0.5-1.5,0.8-4.7,0.8-9.6v-18.2h5.1v19.1c0,5.4-0.6,9.4-1.9,12.1s-3.1,4.9-5.7,6.4c-2.5,1.5-5.7,2.3-9.5,2.3
		s-7-0.8-9.5-2.3s-4.5-3.7-5.7-6.4c-1.3-2.8-1.9-6.9-1.9-12.4L429,287.7L429,287.7z"/>
	<polygon class="st0" points="283.1,392.5 226.1,408.4 226.1,433.4 324.5,433.4 324.5,392.5 	"/>
	<polygon class="st1" points="196.4,408.9 297.9,378 300.5,384 198.1,414.1 	"/>
	<polygon class="st1" points="193.1,399.4 294.5,368.5 297.1,374.5 194.8,404.6 	"/>
	<polygon class="st1" points="129.3,398.1 185.3,398.1 185.3,381.7 129.3,381.7 	"/>
	<polygon class="st0" points="129.3,433.8 185.3,433.8 185.3,407.1 129.3,407.1 	"/>
	<polygon class="st0" points="124.6,375.5 190,375.5 190,359.4 124.6,359.4 	"/>
</g>
</svg>
