<?xml version="1.0" encoding="utf-8"?>
<!-- Generator: Adobe Illustrator 26.5.0, SVG Export Plug-In . SVG Version: 6.00 Build 0)  -->
<svg version="1.1" id="Layer_1" xmlns="http://www.w3.org/2000/svg" xmlns:xlink="http://www.w3.org/1999/xlink" x="0px" y="0px"
	 viewBox="0 0 500 500" style="enable-background:new 0 0 500 500;" xml:space="preserve">
<style type="text/css">
	.st0{clip-path:url(#SVGID_00000114038913647919536780000009751675556160707768_);}
	.st1{clip-path:url(#SVGID_00000134969049007531431740000017001556811604076222_);}
	.st2{clip-path:url(#SVGID_00000089564606413592559880000014325991303910672024_);}
	.st3{fill:#633510;}
	.st4{opacity:0.23;}
	.st5{clip-path:url(#SVGID_00000092428259040313106800000009347648170525193366_);}
	.st6{clip-path:url(#SVGID_00000051342097387411035700000017009622116594747324_);}
	.st7{clip-path:url(#SVGID_00000063598784711295539120000004252432342846463374_);}
	.st8{fill:#FFFFFF;}
	.st9{fill:#CFC9B9;}
	.st10{font-family:'ArialMT';}
	.st11{font-size:11.7971px;}
	.st12{letter-spacing:1;}
	.st13{clip-path:url(#SVGID_00000148653505061080804160000003342099184060194964_);}
	.st14{clip-path:url(#SVGID_00000055665495750246718640000013456402039524828576_);}
	.st15{fill:none;stroke:#633510;stroke-width:0.76;stroke-miterlimit:10;}
	.st16{fill:#EE2C25;}
	.st17{fill:#00A153;}
</style>
<g>
	<g id="Layer_2_00000000915553071724867850000002872033509429683889_">
		<g id="Layer_1-2">
			<g>
				<defs>
					<rect id="SVGID_1_" x="-7.6" y="4.4" width="515.1" height="491.1"/>
				</defs>
				<clipPath id="SVGID_00000010306323569994545180000005025004449362129592_">
					<use xlink:href="#SVGID_1_"  style="overflow:visible;"/>
				</clipPath>
				<g style="clip-path:url(#SVGID_00000010306323569994545180000005025004449362129592_);">
					<g>
						<defs>
							
								<rect id="SVGID_00000070798426617465346440000014388237776201720971_" x="-141.4" y="-157.4" width="1198.1" height="847.1"/>
						</defs>
						<clipPath id="SVGID_00000022546992464763360400000007662902260500074930_">
							<use xlink:href="#SVGID_00000070798426617465346440000014388237776201720971_"  style="overflow:visible;"/>
						</clipPath>
						<g style="clip-path:url(#SVGID_00000022546992464763360400000007662902260500074930_);">
							<g>
								<defs>
									<rect id="SVGID_00000067943903378397004520000002343591449603047609_" x="-39.6" y="4.4" width="577.5" height="491.1"/>
								</defs>
								<clipPath id="SVGID_00000094597651008955935040000012384406859983711877_">
									<use xlink:href="#SVGID_00000067943903378397004520000002343591449603047609_"  style="overflow:visible;"/>
								</clipPath>
								<g style="clip-path:url(#SVGID_00000094597651008955935040000012384406859983711877_);">
									<rect x="119.7" y="33.5" class="st3" width="246.4" height="189.2"/>
									<g class="st4">
										<g>
											<defs>
												
													<rect id="SVGID_00000080895242429981095700000001232380177313136259_" x="4.8" y="146.9" width="489.7" height="327.7"/>
											</defs>
											<clipPath id="SVGID_00000000927693520760363600000015869779951985966252_">
												<use xlink:href="#SVGID_00000080895242429981095700000001232380177313136259_"  style="overflow:visible;"/>
											</clipPath>
											<g style="clip-path:url(#SVGID_00000000927693520760363600000015869779951985966252_);">
												<g>
													<defs>
														
															<rect id="SVGID_00000165217835237207812730000005185202332541592500_" x="4.8" y="146.9" width="489.7" height="327.7"/>
													</defs>
													<clipPath id="SVGID_00000168837199158584414960000006588141703156439185_">
														<use xlink:href="#SVGID_00000165217835237207812730000005185202332541592500_"  style="overflow:visible;"/>
													</clipPath>
													<g style="clip-path:url(#SVGID_00000168837199158584414960000006588141703156439185_);">
														<g>
															<defs>
																
																	<rect id="SVGID_00000136403592503971309460000005165611159440113571_" x="4.8" y="146.9" width="489.7" height="327.7"/>
															</defs>
															<clipPath id="SVGID_00000097476359922543033640000017128662130430627516_">
																<use xlink:href="#SVGID_00000136403592503971309460000005165611159440113571_"  style="overflow:visible;"/>
															</clipPath>
															<g style="clip-path:url(#SVGID_00000097476359922543033640000017128662130430627516_);">
																
																	<image style="overflow:visible;enable-background:new    ;" width="693" height="464" xlink:href="D56908D5A543813C.png"  transform="matrix(0.71 0 0 0.71 4.9977 146.8784)">
																</image>
															</g>
														</g>
													</g>
												</g>
											</g>
										</g>
									</g>
									<path class="st8" d="M474.2,350.1c5.2-13.1,7.6-28.6,7.4-45.9c0.3-17.6-2.2-33.1-7.4-46.1c-10-25.3-0.8-36.4-0.6-36.8
										c2-2.2,2.6-5.4,1.3-8.1l-17.7-38.9c-1.1-2.5-3.4-4.4-6.1-4.6c-2.7-0.2-5.1,0.9-6.5,3.1c-1.2,1.1-11.8,10.4-46.5,7.4
										c-15.7-1.4-32-6.8-51-13.2C318,157.2,284.8,146,243,146.7c-42.1-0.6-75.2,10.5-104.5,20.3c-18.9,6.3-35.2,11.8-51,13.2
										c-34.7,3-45.4-6.2-46.5-7.4c-1.4-2.2-3.8-3.3-6.5-3.1c-2.7,0.2-5,2.1-6.1,4.6l-17.7,38.9c-1.2,2.7-0.7,5.9,1.3,8.1
										c0.1,0.1,9.5,11.2-0.5,36.8c-5.2,13-7.6,28.6-7.4,45.9c-0.2,17.6,2.2,33.1,7.4,46.1c10,25.3,0.8,36.4,0.5,36.8
										c-2,2.2-2.6,5.4-1.3,8.1L28.5,434c1.1,2.5,3.4,4.4,6.1,4.6c2.7,0.2,5.1-0.9,6.5-3.1c1.2-1.1,11.8-10.4,46.5-7.4
										c15.7,1.4,32,6.8,51,13.2c29.3,9.8,62.4,20.9,104.2,20.3c1.1,0,2.2,0,3.4,0c40.4,0,72.6-10.8,101.1-20.3
										c18.9-6.3,35.2-11.8,51-13.2c34.7-3,45.4,6.2,46.5,7.4c1.4,2.2,3.8,3.3,6.5,3.1c2.7-0.2,5-2.1,6.1-4.6L475,395
										c1.2-2.7,0.8-5.8-1.2-8C473.4,386.6,464.2,375.4,474.2,350.1"/>
									<path class="st8" d="M467.3,347.4c-12.1,30.6,0.9,44.5,0.9,44.5l-17.7,38.9c0,0-10.2-13.9-53-10.2
										c-41.7,3.6-87,34.4-154.7,33.4c-67.7,1-113-29.8-154.7-33.4c-42.8-3.7-53,10.2-53,10.2l-17.7-38.9c0,0,13-13.9,0.9-44.5
										c-5.7-14.5-7.1-30.5-6.9-43.3c-0.2-12.8,1.1-28.8,6.9-43.3c12.1-30.6-0.9-44.5-0.9-44.5l17.7-38.9c0,0,10.2,13.9,53,10.2
										c41.7-3.6,87-34.4,154.7-33.4c67.7-1,113,29.8,154.7,33.4c42.8,3.7,53-10.2,53-10.2l17.7,38.9c0,0-13,13.9-0.9,44.5
										c5.7,14.5,7.1,30.5,6.9,43.3C474.4,316.9,473.1,332.9,467.3,347.4"/>
									<path class="st8" d="M467.3,347.4c-12.1,30.6,0.9,44.5,0.9,44.5l-17.7,38.9c0,0-10.2-13.9-53-10.2
										c-41.7,3.6-87,34.4-154.7,33.4c-67.7,1-113-29.8-154.7-33.4c-42.8-3.7-53,10.2-53,10.2l-17.7-38.9c0,0,13-13.9,0.9-44.5
										c-5.7-14.5-7.1-30.5-6.9-43.3c-0.2-12.8,1.1-28.8,6.9-43.3c12.1-30.6-0.9-44.5-0.9-44.5l17.7-38.9c0,0,10.2,13.9,53,10.2
										c41.7-3.6,87-34.4,154.7-33.4c67.7-1,113,29.8,154.7,33.4c42.8,3.7,53-10.2,53-10.2l17.7,38.9c0,0-13,13.9-0.9,44.5
										c5.7,14.5,7.1,30.5,6.9,43.3C474.4,316.9,473.1,332.9,467.3,347.4"/>
									<path class="st3" d="M467.1,347.1L467.1,347.1c4.8-12,7-26.5,6.8-43c0.2-16.5-2-31-6.8-43c-10.9-27.5-2.2-42.1,0.5-45.7
										l-16.4-36.1c-4.6,3.9-18.6,12-53,9.1c-16.9-1.5-34.6-7.4-53.4-13.7c-28.8-9.6-61.3-20.6-102-20
										c-40.8-0.6-73.4,10.3-102.1,20c-18.8,6.3-36.5,12.2-53.4,13.7c-34.3,3-48.4-5.2-52.9-9.1l-16.4,36.1
										c2.7,3.6,11.4,18.2,0.5,45.7c-4.8,12-7,26.5-6.8,43c-0.2,16.5,2.1,31,6.8,43c10.9,27.5,2.2,42.1-0.5,45.7l16.4,36.1
										c4.6-3.9,18.6-12,52.9-9.1c16.9,1.5,34.6,7.4,53.4,13.7c28.7,9.6,61.3,20.6,102,20c40.8,0.6,73.3-10.3,102.1-20
										c18.8-6.3,36.5-12.2,53.4-13.7c34.3-3,48.4,5.2,53,9.1l16.4-36.1C465,389.1,456.3,374.6,467.1,347.1 M459.9,392.6
										l-12.3,27.1c-8.5-4.3-23.9-8.7-50.6-6.3c-17.5,1.5-35.4,7.5-54.4,13.9c-28.1,9.4-60,20.1-99.8,19.5
										c-39.5,0.6-71.4-10.1-99.5-19.5c-19-6.4-36.9-12.4-54.4-13.9c-26.7-2.3-42.2,2-50.6,6.3L26,392.6c4-7.1,9.2-22.9-0.6-47.9
										c-4.4-11.2-6.6-24.9-6.4-40.7c-0.2-15.6,1.9-29.3,6.4-40.5c9.9-25,4.6-40.8,0.6-47.9l12.3-27.1c8.5,4.3,23.9,8.7,50.6,6.3
										c17.5-1.5,35.4-7.5,54.4-13.9c28.1-9.4,60-20.2,99.8-19.5c39.5-0.6,71.4,10.1,99.5,19.5c19,6.4,36.9,12.4,54.4,13.9
										c26.7,2.3,42.2-2,50.6-6.3l12.3,27.1c-4,7.1-9.2,22.9,0.6,47.9c4.4,11.3,6.6,24.9,6.4,40.7c0.2,15.6-1.9,29.2-6.4,40.5
										C450.6,369.7,455.9,385.5,459.9,392.6"/>
									<path class="st9" d="M474.2,350.1c5.2-13.1,7.6-28.6,7.4-45.9c0.3-17.6-2.2-33.1-7.4-46.1c-10-25.3-0.8-36.4-0.6-36.8
										c2-2.2,2.6-5.4,1.3-8.1l-17.7-38.9c-1.1-2.5-3.4-4.4-6.1-4.6c-2.7-0.2-5.1,0.9-6.5,3.1c-1.2,1.1-11.8,10.4-46.5,7.4
										c-15.7-1.4-32-6.8-51-13.2C318,157.2,284.8,146,243,146.7c-42.1-0.6-75.2,10.5-104.5,20.3c-18.9,6.3-35.2,11.8-51,13.2
										c-34.7,3-45.4-6.2-46.5-7.4c-1.4-2.2-3.8-3.3-6.5-3.1c-2.7,0.2-5,2.1-6.1,4.6l-17.7,38.9c-1.2,2.7-0.7,5.9,1.3,8.1
										c0.1,0.1,9.5,11.2-0.6,36.8c-5.2,13-7.6,28.6-7.4,45.9c-0.2,17.6,2.2,33.1,7.4,46.1c10,25.3,0.8,36.4,0.6,36.8
										c-2,2.2-2.6,5.4-1.3,8.1L28.5,434c1.1,2.5,3.4,4.4,6.1,4.6c2.7,0.2,5.1-0.9,6.5-3.1c1.2-1.1,11.8-10.4,46.5-7.4
										c15.7,1.4,32,6.8,51,13.2c29.3,9.8,62.4,20.9,104.2,20.3c1.1,0,2.3,0,3.4,0c40.4,0,72.6-10.8,101.1-20.3
										c18.9-6.3,35.2-11.8,51-13.2c34.7-3,45.4,6.2,46.5,7.4c1.4,2.2,3.8,3.3,6.5,3.1c2.7-0.2,5-2.1,6.1-4.6L475,395
										c1.2-2.7,0.8-5.8-1.2-8C473.4,386.6,464.2,375.4,474.2,350.1 M471.1,393.2l-17.8,39.2c-0.2,0.5-0.8,0.9-1.3,1
										c-0.6,0.1-1.2-0.2-1.5-0.7c-0.1-0.1-10.6-13.2-51.8-9.6c-16.5,1.4-34,7.3-52.6,13.5c-28.2,9.5-60.1,20.2-99.9,20.2
										c-1.1,0-2.2,0-3.3,0c-41.2,0.6-74.1-10.4-103.1-20.1c-18.6-6.2-36.1-12.1-52.6-13.5c-41.6-3.6-51.7,9.5-51.8,9.6
										c-0.4,0.5-0.9,0.7-1.5,0.7c-0.6-0.1-1.1-0.4-1.3-1l-17.8-39.2c-0.3-0.6-0.2-1.3,0.3-1.8c0.1-0.1,12.2-13.7,0.6-43.1
										c-4.9-12.4-7.3-27.3-7-44.2c-0.2-16.9,2.1-31.7,7-44.2c11.6-29.3-0.5-42.9-0.6-43.1c-0.5-0.5-0.6-1.2-0.3-1.8l17.8-39.2
										c0.2-0.5,0.8-0.9,1.3-1c0.6-0.1,1.2,0.2,1.5,0.7c0.1,0.1,10.6,13.2,51.8,9.6c16.5-1.4,34-7.3,52.6-13.5
										c29-9.7,61.8-20.7,103.2-20.1c41.2-0.6,74.1,10.4,103.1,20.1c18.6,6.2,36.1,12.1,52.6,13.5c41.3,3.6,51.8-9.5,51.9-9.6
										c0.4-0.5,0.9-0.7,1.5-0.7c0.6,0.1,1.1,0.4,1.3,1l17.8,39.2c0.3,0.6,0.2,1.3-0.3,1.8c-0.1,0.1-12.2,13.7-0.6,43.1
										c4.9,12.4,7.3,27.3,7,44.2c0.2,16.9-2.1,31.7-7,44.2c-11.6,29.3,0.5,42.9,0.6,43.1C471.3,391.9,471.4,392.6,471.1,393.2"/>
									<path class="st8" d="M246.2,456.8c-1.1,0-2.2,0-3.3,0c-41.2,0.6-74.1-10.4-103.1-20.1c-18.6-6.2-36.1-12.1-52.6-13.5
										c-41.6-3.6-51.8,9.5-51.8,9.6c-0.4,0.5-0.9,0.7-1.5,0.7c-0.6-0.1-1.1-0.4-1.3-1l-17.8-39.2c-0.3-0.6-0.2-1.3,0.3-1.8
										c0.1-0.1,12.2-13.7,0.6-43.1c-4.9-12.4-7.3-27.3-7-44.2c-0.2-16.9,2.1-31.7,7-44.2c11.6-29.3-0.5-42.9-0.6-43.1
										c-0.5-0.5-0.6-1.2-0.3-1.8l17.8-39.2c0.2-0.5,0.8-0.9,1.3-1c0.6-0.1,1.2,0.2,1.5,0.7c0.1,0.1,10.6,13.2,51.8,9.6
										c16.5-1.4,34-7.3,52.6-13.5c29-9.7,61.8-20.7,103.2-20.1c41.2-0.6,74.1,10.4,103.1,20.1c18.6,6.2,36.1,12.1,52.6,13.5
										c41.3,3.6,51.8-9.5,51.9-9.6c0.4-0.5,0.9-0.7,1.5-0.6c0.6,0.1,1.1,0.4,1.3,1l17.8,39.2c0.3,0.6,0.2,1.3-0.3,1.8
										c-0.1,0.1-12.2,13.7-0.6,43.1c4.9,12.4,7.3,27.3,7,44.2c0.2,16.9-2.1,31.7-7,44.2c-11.6,29.3,0.5,42.9,0.6,43.1
										c0.5,0.5,0.6,1.2,0.3,1.8l-17.8,39.2c-0.2,0.5-0.8,0.9-1.3,1c-0.6,0.1-1.2-0.2-1.5-0.7c-0.1-0.1-10.6-13.2-51.8-9.6
										c-16.5,1.4-34,7.3-52.6,13.5C317.8,446.1,285.9,456.8,246.2,456.8 M242.9,453.4c40.8,0.6,73.3-10.3,102.1-20
										c18.8-6.3,36.5-12.2,53.4-13.7c34.3-3,48.4,5.2,53,9.1l16.4-36.1c-2.7-3.6-11.4-18.2-0.5-45.7l0,0c4.8-12,7-26.5,6.8-43
										c0.2-16.5-2-31-6.8-43c-10.9-27.5-2.2-42.1,0.5-45.7l-16.4-36.1c-4.6,3.9-18.6,12.1-53,9.1c-16.9-1.5-34.6-7.4-53.4-13.7
										c-28.8-9.6-61.3-20.6-102-20c-40.8-0.6-73.4,10.3-102.1,20c-18.8,6.3-36.5,12.2-53.4,13.7c-34.3,3-48.4-5.2-52.9-9.1
										l-16.4,36.1c2.7,3.6,11.4,18.2,0.5,45.7c-4.8,12-7,26.5-6.8,43c-0.2,16.5,2.1,31,6.8,43c10.9,27.5,2.2,42.1-0.5,45.7
										l16.4,36.1c4.6-3.9,18.6-12,52.9-9.1c16.9,1.5,34.6,7.4,53.4,13.7C169.6,443.1,202.2,454,242.9,453.4 M468.7,347.7
										L468.7,347.7z"/>
									<path class="st8" d="M330.8,99.9l5.6-9.1h-2.8l-4.1,6.9l-4.1-6.9h-2.8l5.6,9.1v6h2.6L330.8,99.9L330.8,99.9z M320.3,105.9
										v-2.4h-6.9V90.8h-2.5v15.1H320.3L320.3,105.9z M294.8,100.1l2.7-6.2l2.7,6.2H294.8L294.8,100.1z M301.3,102.5l1.5,3.4h2.7
										l-6.6-15.1h-2.7l-6.6,15.1h2.7l1.5-3.4H301.3L301.3,102.5z M286.8,93.1v-2.3h-11.7v2.3h4.6v12.8h2.5V93.1L286.8,93.1
										L286.8,93.1z M266.5,105.9h2.5V90.8h-2.5V105.9z M260.5,105.9v-2.4h-6.9V90.8h-2.5v15.1H260.5L260.5,105.9z M244.6,98.2
										c0-2.2-0.8-4.1-2.3-5.6c-1.5-1.5-3.4-2.2-5.7-2.2s-4.1,0.8-5.7,2.2c-1.5,1.5-2.3,3.3-2.3,5.6s0.8,4.1,2.3,5.6
										c1.5,1.5,3.4,2.2,5.7,2.2s4.1-0.7,5.7-2.2C243.8,102.3,244.6,100.4,244.6,98.2 M242,98.2c0,1.5-0.5,2.8-1.5,3.9
										c-1,1.1-2.3,1.6-3.8,1.6c-1.5,0-2.8-0.5-3.8-1.6c-1-1.1-1.6-2.4-1.6-3.9c0-1.5,0.5-2.8,1.6-3.9c1-1.1,2.3-1.6,3.8-1.6
										c1.5,0,2.8,0.5,3.8,1.6C241.5,95.4,242,96.7,242,98.2 M214.1,102c-1-1-1.6-2.3-1.6-3.8s0.5-2.8,1.6-3.8
										c1-1,2.3-1.5,3.8-1.5c0.9,0,1.6,0.1,2.2,0.4c0.6,0.3,1.3,0.8,2,1.5l1.6-1.8c-1.6-1.7-3.5-2.6-5.9-2.6s-4.3,0.8-5.8,2.2
										s-2.3,3.4-2.3,5.6s0.8,4.1,2.3,5.6c1.5,1.5,3.4,2.2,5.7,2.2c2.3,0,4.2-0.9,5.8-2.7l-1.6-1.7c-0.7,0.6-1.4,1.1-2,1.4
										c-0.6,0.3-1.4,0.4-2.3,0.4C216.4,103.6,215.1,103.1,214.1,102 M204.4,98.3c0-2.2-0.8-4.1-2.3-5.6c-1.5-1.5-3.4-2.2-5.7-2.2
										s-4.1,0.8-5.7,2.2c-1.5,1.5-2.3,3.3-2.3,5.6s0.8,4.1,2.3,5.6c1.5,1.5,3.4,2.2,5.7,2.2s4.1-0.7,5.7-2.2
										C203.7,102.3,204.4,100.5,204.4,98.3 M201.8,98.3c0,1.5-0.5,2.8-1.5,3.9c-1,1.1-2.3,1.6-3.8,1.6c-1.5,0-2.8-0.5-3.8-1.6
										c-1-1.1-1.6-2.4-1.6-3.9s0.5-2.8,1.6-3.9c1-1.1,2.3-1.6,3.8-1.6c1.5,0,2.8,0.5,3.8,1.6C201.3,95.4,201.8,96.7,201.8,98.3
										 M172,105.9v-6.2h7.5v6.2h2.5V90.8h-2.5v6.5H172v-6.5h-2.5v15.1C169.5,105.9,172,105.9,172,105.9z M153.6,102.1
										c-1-1-1.5-2.3-1.5-3.8c0-1.5,0.5-2.8,1.6-3.8c1-1,2.3-1.5,3.8-1.5c0.9,0,1.6,0.1,2.3,0.4c0.6,0.3,1.3,0.8,2,1.5l1.6-1.8
										c-1.6-1.7-3.5-2.6-5.9-2.6s-4.3,0.8-5.8,2.2c-1.5,1.5-2.3,3.4-2.3,5.6s0.8,4.1,2.3,5.6c1.5,1.5,3.4,2.2,5.7,2.2
										c2.3,0,4.2-0.9,5.8-2.7l-1.7-1.7c-0.7,0.6-1.4,1.1-2,1.4c-0.6,0.3-1.4,0.4-2.3,0.4C155.8,103.6,154.6,103.1,153.6,102.1"/>
								</g>
							</g>
							<text transform="matrix(1 0 0 1 183.8843 408.5349)" class="st3 st10 st11 st12">M</text>
							<text transform="matrix(1 0 0 1 195.4111 408.5349)" class="st3 st10 st11 st12">A</text>
							<text transform="matrix(1 0 0 1 204.6611 408.5349)" class="st3 st10 st11 st12">D</text>
							<text transform="matrix(1 0 0 1 214.5508 408.5349)" class="st3 st10 st11 st12">E</text>
							<text transform="matrix(1 0 0 1 222.3779 408.5349)" class="st3 st10 st11 st12"> I</text>
							<text transform="matrix(1 0 0 1 231.7842 408.5349)" class="st3 st10 st11 st12">N</text>
							<text transform="matrix(1 0 0 1 241.5747 408.5349)" class="st3 st10 st11 st12"> I</text>
							<text transform="matrix(1 0 0 1 250.9814 408.5349)" class="st3 st10 st11">T</text>
							<text transform="matrix(1 0 0 1 257.8115 408.5349)" class="st3 st10 st11 st12">A</text>
							<text transform="matrix(1 0 0 1 267.0615 408.5349)" class="st3 st10 st11">L</text>
							<text transform="matrix(1 0 0 1 273.124 408.5349)" class="st3 st10 st11">Y</text>
							<g>
								<defs>
									<rect id="SVGID_00000111163592467255479360000007598363476331158203_" x="-39.6" y="4.4" width="577.5" height="491.1"/>
								</defs>
								<clipPath id="SVGID_00000106832776117955208720000000037701690392680331_">
									<use xlink:href="#SVGID_00000111163592467255479360000007598363476331158203_"  style="overflow:visible;"/>
								</clipPath>
								<g style="clip-path:url(#SVGID_00000106832776117955208720000000037701690392680331_);">
									<path class="st3" d="M379.4,382.7c1.7,0,2.7-0.4,2.7-1.2s-0.5-0.9-1.5-1.7c-4-3.1-5.6-9.3-5.6-16.1
										c0-12.4,3.2-16.2,3.2-17.4c0-0.6-0.5-1-1.2-1c-9.1,0-9.5,8.2-10.5,14.2c-1.3,7.7-5.5,19.3-10.2,19.3c-4,0-7-5.7-7-15.3
										c0-20.8,8.4-30.4,15.1-30.4c3.5,0,5.9,1.8,5.9,5.7c0,1.7-0.3,2.3-0.3,3.2c0,0.5,0.4,0.9,0.9,0.9c1.5,0,5-1.8,5-3.8
										c0-6.1-5-10.4-11.4-10.4c-11.3,0-24.7,11.1-24.7,34.8c0,13.4,7.7,20.6,14.6,20.6c8.6,0,12.7-12.2,12.9-12.8
										C367.5,372.4,370.3,382.7,379.4,382.7 M324.9,384.7c10.5,0,18.3-22.2,18.3-22.2s0.4-1.2,0.4-1.8c0-0.9-0.6-1.4-1.5-1.4
										c-1.2,0-1.7,1.4-1.7,1.4s-6.4,17.1-12.7,17.1c-4.5,0-8.7-5.6-8.7-21.2c0-11.3,0.8-20.7,1.8-28.3c3.5,0,6.9-0.3,9.2-0.8
										c3.2-0.6,5.9-4,5.9-5.9c0-0.6-0.4-1-1-1c-1,0-3.6,2.2-13.4,2.8c1.7-10.1,3.6-15.9,3.6-16.7c0-0.9-0.5-1.4-1.4-1.4
										c-1.4,0-4,1.5-5.2,3.6c-2,3.2-3.8,8.4-5.2,14.8c-6.5,0-8.6-0.6-9.1-0.6c-0.4,0-0.6,0.3-0.6,0.6c0,0.9,0.9,3.7,2.6,4
										c1.5,0.3,3.7,0.5,6.3,0.6c-1.5,8.7-2.4,18.8-2.4,28.3C309.8,376.6,317.5,384.7,324.9,384.7 M242.8,379
										c-7.7,0-10.6-9.1-10.6-19.3v-1.8c4.2,4.9,11.1,7.5,19.2,7.5h2C251.3,374.3,246.8,379,242.8,379 M251.8,361.9
										c-9.1,0-15.9-4-18.7-10.4c1.8-7.9,6.1-12.5,10.6-12.5c0.8,0,1.3-0.4,1.3-1.2c0-0.9-1-1.7-2.9-1.7c-2.6,0-6.1,0.8-9.6,2.9
										c1.8-4.6,6.1-8.1,10.2-8.1c6.9,0,12.2,7.4,12.2,21.6c0,3.3-0.3,6.4-0.8,9.1C253.3,361.9,252.5,361.9,251.8,361.9
										 M222.5,360c0,15.5,9.1,23.7,19.7,23.7c8.4,0,16.4-6.6,19.3-20.1c9.7-4.1,14.6-14.6,17.6-27.7c3.1,1.5,6.5,3.5,6.5,5
										c0,6.1-4.4,14.7-4.4,28.3c0,9.6,5.4,15,12.2,15c12.7,0,19.8-21.6,19.8-21.6s0.4-1.2,0.4-1.8c0-0.9-0.6-1.4-1.5-1.4
										c-1.2,0-1.7,1.4-1.7,1.4s-6.3,17.3-13.2,17.3c-3.8,0-6.6-3.6-6.6-13.7c0-15.6,4-23.7,4-26.7c0-2-1.7-2.7-4.1-2.7
										c-5.5,0-8.3-1.7-10.6-3.7c1.7-12.5-2.8-15.5-6.4-15.5c-2.6,0-5.3,2.4-5.3,6.1c0,5.9,4.5,9.8,7.4,12.4
										c-2.2,11-6.1,20.3-13.4,24.9c0.3-2.3,0.5-4.6,0.5-7.2c0-18.8-9.6-26.2-17.5-26.2c-9.3,0-17.5,7.8-17.9,18
										C224.4,347.3,222.5,352.5,222.5,360 M208.2,384.6c10.5,0,18.3-22.2,18.3-22.2s0.4-1.2,0.4-1.8c0-0.9-0.6-1.4-1.5-1.4
										c-1.2,0-1.7,1.4-1.7,1.4s-6.4,17.1-12.7,17.1c-4.5,0-8.7-5.6-8.7-21.2c0-11.3,0.8-20.7,1.8-28.3c3.4,0,6.9-0.3,9.2-0.8
										c3.2-0.6,5.9-4,5.9-5.9c0-0.6-0.4-1-1-1c-1,0-3.6,2.2-13.4,2.8c1.7-10.1,3.6-15.9,3.6-16.7c0-0.9-0.5-1.4-1.4-1.4
										c-1.4,0-4,1.5-5.2,3.6c-2,3.2-3.8,8.4-5.3,14.8c-6.5,0-8.6-0.6-9.1-0.6c-0.4,0-0.6,0.3-0.6,0.6c0,0.9,0.9,3.7,2.6,4
										c1.5,0.3,3.7,0.5,6.3,0.6c-1.5,8.7-2.4,18.8-2.4,28.3C193.1,376.6,200.7,384.6,208.2,384.6"/>
									<path class="st3" d="M187.5,359.7c0.8,0,1.2-0.2,1.2-0.5c0-0.4-0.2-0.4-0.7-0.8c-1.8-1.4-2.6-4.3-2.6-7.4
										c0-5.7,1.5-7.5,1.5-8c0-0.3-0.2-0.5-0.5-0.5c-4.2,0-4.3,3.8-4.8,6.5c-0.6,3.5-2.5,8.9-4.7,8.9c-1.8,0-3.2-2.6-3.2-7
										c0-9.6,3.9-14,6.9-14c1.6,0,2.7,0.8,2.7,2.6c0,0.8-0.1,1.1-0.1,1.5c0,0.2,0.2,0.4,0.4,0.4c0.7,0,2.3-0.8,2.3-1.8
										c0-2.8-2.3-4.8-5.2-4.8c-5.2,0-11.3,5.1-11.3,16c0,6.2,3.5,9.4,6.7,9.4c3.9,0,5.8-5.6,5.9-5.9
										C182,354.9,183.3,359.7,187.5,359.7 M147.6,343.3c0-13.8,2.5-23.4,4.4-23.4c0.9,0,1.2,1.1,1.2,3c0,8.5-3.7,18.8-5.6,23.6
										C147.6,345.6,147.6,344.5,147.6,343.3 M159.6,345.1c0-15.3,2.9-22.7,5-22.7c0.9,0,1.3,1,1.3,2.5c0,6.2-2.8,16.9-6.2,24.8
										C159.6,348.3,159.6,346.8,159.6,345.1 M152.6,359.7c-2.2,0-4-3.1-4.6-10c1.3-2.8,7-15.4,7-26.2c0-3.5-1.1-6-3.8-6
										c-4.1,0-7.5,8.5-7.5,25.2c0,13.9,3.7,19.9,8,19.9c1.9,0,3.9-2,6-5.3c1.2,2,2.9,2.9,5.1,2.9c4.8,0,8.1-9.9,8.1-9.9
										s0.2-0.5,0.2-0.8c0-0.4-0.3-0.6-0.7-0.6c-0.5,0-0.8,0.6-0.8,0.6s-2.9,7.9-5.9,7.9c-1.3,0-2.8-1.2-3.5-4.8
										c4.1-8.5,7.3-20.4,7.3-27.6c0-3.5-1.2-5.5-3.5-5.5c-3.3,0-8.5,7.5-8.5,25.4c0,4.7,0.4,8.2,1.2,10.6
										C155.3,358.1,153.8,359.7,152.6,359.7 M134.5,336.5c1.2,0,2.5,1.8,2.5,5c0,3.5-1.6,6.2-4.3,6.2c-1.4,0-2.5-0.2-2.9-0.3
										C129.8,340.2,132.5,336.5,134.5,336.5 M135.6,359.2c7.1,0,10.3-8.9,10.3-8.9s0.2-0.5,0.2-0.8c0-0.4-0.3-0.6-0.7-0.6
										c-0.5,0-0.8,0.6-0.8,0.6s-2.7,7-8,7c-3.2,0-6.2-2.3-6.7-7.5c0.8,0.2,2.1,0.5,3.9,0.5c4.1,0,7-2.5,7-7.2
										c0-5.3-3.1-7.8-6.5-7.8c-3.9,0-8.8,4.1-8.8,13.7C125.5,355.6,130.6,359.2,135.6,359.2 M116.3,337.2
										c0-12.2,1.3-16.1,2.7-16.1c0.8,0,1.3,0.4,1.3,2.6c0,5-1.7,12.7-3.9,19.4C116.3,341.3,116.3,339.3,116.3,337.2 M108.5,357.1
										c-2.1,0-4.2-2.7-4.2-9.4c0-6.7,2.7-10.5,5.1-10.5c1.5,0,2.2,1.1,2.2,2.2c0,1.5-0.8,2.2-0.8,2.9c0,0.5,0.6,1.2,1.1,1.2
										c0.4,0,0.7-0.2,0.9-0.6c0.1,2.8,0.2,5.5,0.6,7.8C111.7,354.4,109.9,357.1,108.5,357.1 M119.4,359.6c4.5,0,7.7-9.3,7.7-9.3
										s0.2-0.5,0.2-0.8c0-0.4-0.3-0.6-0.7-0.6c-0.5,0-0.8,0.6-0.8,0.6s-2.6,7.1-5.5,7.1c-2.1,0-3.2-3.3-3.6-8.4
										c3.3-8,5.6-18.2,5.6-24.4c0-3.3-1.7-4.7-3.5-4.7c-2.7,0-5.9,3.5-5.9,17.1v1.1c-0.8-1.4-2.1-2-3.9-2
										c-3.2,0-9.2,3.8-9.2,13.6c0,7.3,3.5,11.1,7.5,11.1c2.3,0,4.7-2.6,6.9-6.5C115,357.2,116.6,359.6,119.4,359.6"/>
									<path class="st3" d="M415.8,288.3c1.5,0,2.4-0.3,2.4-1c0-0.7-0.5-0.8-1.4-1.5c-3.6-2.8-5.1-8.4-5.1-14.5
										c0-11.2,2.9-14.6,2.9-15.6c0-0.6-0.5-0.9-1-0.9c-8.2,0-8.5,7.4-9.4,12.8c-1.2,6.9-5,17.4-9.2,17.4c-3.6,0-6.3-5.2-6.3-13.8
										c0-18.7,7.6-27.4,13.6-27.4c3.1,0,5.3,1.6,5.3,5.2c0,1.5-0.2,2.1-0.2,2.9c0,0.5,0.3,0.8,0.8,0.8c1.4,0,4.5-1.6,4.5-3.4
										c0-5.5-4.5-9.3-10.2-9.3c-10.1,0-22.2,10-22.2,31.3c0,12.1,6.9,18.5,13.1,18.5c7.7,0,11.4-10.9,11.6-11.5
										C405.1,279,407.7,288.3,415.8,288.3 M365.1,301.6c0,11.3-3.7,17.1-8.9,17.1c-2.6,0-4.5-2-4.5-5c0-6.1,6.1-11.6,13-18.3
										C365,297.4,365.1,299.5,365.1,301.6 M361.1,271c0,5.3-5.1,13.7-8.9,13.7c-4.1,0-6.3-4.7-6.3-13c0-14.5,6.8-26.8,14-26.8
										c3,0,5.1,2.5,5.1,6.8c0,2.4-0.3,3.3-0.6,4.1C361.2,258.8,361.1,265,361.1,271 M383.4,270c0,0,0.3-1,0.3-1.6
										c0-0.8-0.6-1.3-1.4-1.3c-1,0-1.5,1.3-1.5,1.3c-2.2,6.3-6.1,11.6-10.3,16.3c-1-5.5-1.9-11.6-1.9-19.6
										c0-6.7,2.2-9.5,2.2-10.6c0-0.5-0.3-0.8-0.8-0.8c-0.8,0-1.5,0.1-2.2,0.2c0.3-1.3,0.5-2.8,0.5-3.8c0-5.6-3.8-9.7-9.2-9.7
										c-10,0-21.3,12-21.3,31.9c0,11.7,6,16.6,12.1,16.6c8,0,12-9.8,12-9.8s1.5,5.1,2.5,11.7c-8.5,8.2-16.7,14.9-16.7,23.7
										c0,5,4,9,9.8,9c7.9,0,14.9-7,14.9-24.4c0-3.6-0.5-6.8-1-10.2C376.3,283.7,380.9,277.6,383.4,270 M319.1,243
										c2.3,0,5,3.4,5,9.8c0,6.9-3.1,12.1-8.5,12.1c-2.8,0-4.8-0.3-5.7-0.7C309.9,250.2,315.2,243,319.1,243 M321.2,287.5
										c13.9,0,20.1-17.5,20.1-17.5s0.3-1,0.3-1.6c0-0.8-0.6-1.3-1.4-1.3c-1,0-1.5,1.3-1.5,1.3s-5.3,13.7-15.8,13.7
										c-6.3,0-12.2-4.6-13.1-14.7c1.5,0.5,4.1,1,7.7,1c7.9,0,13.8-4.8,13.8-14c0-10.5-6.1-15.3-12.7-15.3
										c-7.6,0-17.2,7.9-17.2,26.9C301.6,280.5,311.4,287.5,321.2,287.5 M295.5,232.4c-0.7,0-3.2,1.4-10.8,2.3
										c1.3-8.6,2.8-14,2.8-14.8s-0.5-1.3-1.3-1.3c-1.3,0-5.6,1.7-7.1,3.3c-1,1.2-2.4,5.2-3.3,13.3c-1.9,0.1-4.1,0.1-6.5,0.1h-5.3
										c1.3-9.8,3.2-17.7,3.2-18.7c0-0.8-0.5-1.3-1.3-1.3c-1.3,0-5.6,1.2-6.5,3.1c-1.3,2.6-2.6,8.4-3.4,16.7
										c-4.5-0.2-6.1-0.6-6.4-0.6c-0.3,0-0.6,0.2-0.6,0.6c0,0.8,0.8,3.3,2.3,3.6c0.8,0.1,2.4,0.3,4.5,0.5
										c-0.2,2.8-0.2,5.6-0.2,8.7c0,17.4,0.9,30.6,7.5,40.5c3.7,5.5,9,8.9,13.3,9c1.2,0,1.5-0.6,1.5-1.2c0-0.7-0.6-0.9-1.3-1.3
										c-12.3-6.7-13.3-32-13.3-46.8c0-2.9,0.1-5.7,0.3-8.6h11.8c-0.5,5.2-0.7,11.5-0.7,19.3c0,23.9,6.9,31.2,13.6,31.2
										c9.4,0,16.5-20,16.5-20s0.3-1,0.3-1.6c0-0.8-0.6-1.3-1.4-1.3c-1,0-1.5,1.3-1.5,1.3s-5.7,15.4-11.4,15.4
										c-4,0-7.8-5.1-7.8-24.4c0-7.6,0.5-14.4,1.2-20.1c3.4-0.1,5.7-0.3,7.1-0.7c2.9-0.6,5.3-3.6,5.3-5.3
										C296.4,232.8,296.1,232.4,295.5,232.4 M129,247.7c0-29,23.1-43.1,42.5-43.1c17.7,0,30.2,9.5,30.2,28.7
										c0,18.1-10.8,25.8-10.8,25.8s-2.5-1.5-6.4-1.5c-3.9,0-6.2,1.4-6.2,4.1c0,2.3,1.6,4.1,4.5,4.1c4.3,0,7.8-2.8,7.8-2.8
										c2.6,1.2,6.7,3.6,6.7,12.9c0,9.3-6,19-13.3,19c-8.6,0-15.3-12.4-15.3-44.3c0-24.6,5.1-32.5,5.1-34.5c0-1-0.8-1.6-1.8-1.6
										c-2.8,0-12,8.5-12,41.3c0,30.6,10.1,42.8,22.4,42.8c11.5,0,23.4-10.8,23.4-23.9c0-9.9-10.7-13.8-11-13.9
										c0.8-0.5,16.6-9.9,16.6-29.3c0-21.5-18.2-30.9-36.9-30.9c-25,0-54.4,15.8-54.4,47.4c0,15.3,9,22.4,19.2,22.4
										c10.2,0,16.3-10.2,16.3-19.4s-6.1-15.4-9.3-17.5c-0.8-0.5-1.3-0.7-1.7-0.7c-0.6,0-1,0.6-1,1.2c0,0.5,0.2,0.8,0.6,1.4
										c1.3,2.2,4.3,6.7,4.3,16.7c0,6.1-1.8,15.2-8.4,15.2C133.2,267.1,129,259.9,129,247.7"/>
									<path class="st3" d="M113.6,299.6c4.7,0.5,9.5-9.4,9.5-9.4s0.3-0.6,0.3-0.9c0.1-0.5-0.2-0.8-0.7-0.8c-0.6-0.1-1,0.6-1,0.6
										s-3.8,7.6-6.9,7.3c-2-0.2-2.2-3-1.8-6.6c0.8-6.5,2.7-8.4,2.8-9c0-0.3-0.2-0.6-0.5-0.6c-4.8-0.6-5.5,3.7-6.4,6.8
										c-1.2,4-3.4,9.9-5.9,9.6c-2.1-0.2-3.4-3.5-2.8-8.5c1.3-11,6.3-15.6,9.9-15.2c1.8,0.2,3,1.3,2.7,3.4
										c-0.1,0.9-0.3,1.2-0.3,1.7c0,0.3,0.1,0.5,0.4,0.5c0.8,0.1,2.7-0.6,2.9-1.7c0.4-3.2-2-5.8-5.4-6.2
										c-5.9-0.7-13.7,4.4-15.2,16.8c-0.8,7.1,2.8,11.3,6.4,11.8c4.5,0.5,6.8-5.7,6.9-6C108.5,293.7,109.1,299,113.6,299.6"/>
									<path class="st3" d="M98.2,287.2c0,0,0.3-0.6,0.3-0.9c0.1-0.5-0.3-0.8-0.7-0.8c-0.6-0.1-1,0.6-1,0.6s-6.4,12.6-16.5,11.4
										c-4.7-0.5-8.3-1.9-12.7-2.4c0,0,3-3.3,3.4-7c1.2-10.2-2.3-16.4-1.2-25.6c1.3-10.8,6.7-17.4,14.8-16.4
										c5.9,0.7,8.4,6.5,7.6,13.1c-0.7,5.7-4.2,10.6-8.2,10.1c-3.5-0.4-4.6-3.8-4.2-6.8c0.8-6.4,3.8-7.5,3.9-8.3
										c0-0.3-0.2-0.6-0.5-0.7c-0.5-0.1-6.3,2.5-7.1,9c-0.5,4.1,2.1,8.1,8.1,8.8c4.9,0.6,11.8-3.9,12.7-11.7
										c1.1-9.2-4.4-14.3-12.3-15.2c-10.8-1.3-19.4,6.4-20.7,17.5c-1.3,11.1,3.7,18.5,2.6,27.8c-0.4,3.1-1.6,5.2-1.6,5.2
										s-7.6-0.8-7.9,2.4c-0.2,1.4,0.7,2.2,2.3,2.4c2.9,0.3,6.3-2.1,6.3-2.1c3,0.4,8.4,4.3,13.2,4.9
										C90,303.6,98.2,287.2,98.2,287.2"/>
									<path class="st3" d="M232.2,219.7c-0.5-1-1.1-2-1.1-3.2C231.9,217.4,231.9,218.6,232.2,219.7"/>
									<path class="st3" d="M227.2,185c0.4,1.4,0.8,2.9,1.3,4.3c-0.1,0-0.2,0-0.4,0.1c-0.5-1.4-1.1-2.8-1.3-4.3
										C226.9,185,227.1,185,227.2,185"/>
									<path class="st3" d="M228.6,194.3c-0.2-0.6-0.4-1.3-0.6-1.9c0-0.1-0.1-0.3,0.2-0.4c0.2,0,0.3,0.1,0.3,0.2
										C228.6,192.9,229.1,193.5,228.6,194.3"/>
									<path class="st3" d="M232.2,198.1c0.2,0.4,0.4,0.7,0.3,1.2l-0.5-1.1C232,198.2,232.1,198.2,232.2,198.1"/>
									<path class="st3" d="M231.6,206.6c0.2-0.1,0.3,0.1,0.3,0.2c0.4,1.2,0.8,2.3,0.6,3.7c-0.7-1.2-0.6-2.5-1.1-3.7
										C231.4,206.8,231.5,206.6,231.6,206.6"/>
									<path class="st3" d="M230.4,192.2c0.3,0.9,0.5,1.7,0.8,2.6C230.5,194,230.2,193.2,230.4,192.2"/>
									<path class="st3" d="M226,181.5c0.3,0.9,0.6,1.8,0.9,2.7c-0.1,0-0.2,0.1-0.3,0.1c-0.6-0.8-0.6-1.8-0.9-2.7L226,181.5
										L226,181.5z"/>
									<path class="st3" d="M228.3,181.9c0.2,0.7,0.5,1.5,0.7,2.2l-0.3,0C228.4,183.5,228,182.8,228.3,181.9"/>
									<path class="st3" d="M233.1,184.9c0.3-0.1,0.3,0.2,0.4,0.4c0.5,1.8,1,3.5,1.4,5.3c0.1,0.2,0.3,0.5-0.3,0.7
										c-0.6-2.1-1.2-4-1.7-5.9C232.9,185.3,232.8,185,233.1,184.9"/>
									<path class="st3" d="M232.1,186.4c-0.5-0.5-0.3-1.1-0.2-1.6C231.9,185.3,232.5,185.7,232.1,186.4"/>
									<path class="st3" d="M226.9,189.1c-0.4-0.6-0.6-1.2-0.5-1.6C226.8,188,227,188.4,226.9,189.1"/>
									<path class="st3" d="M227.9,244.3c0.8-0.8,1.1-1.8,1.6-2.6C229.5,243.2,228.9,244.2,227.9,244.3"/>
									<path class="st3" d="M232,240.2c-0.3-0.6-0.7-1.2-0.7-2C231.5,238.9,232.1,239.4,232,240.2"/>
									<path class="st3" d="M230.1,238.9c-0.2-0.7-0.6-1.1-0.1-1.8C230.1,237.7,230.3,238.2,230.1,238.9"/>
									<path class="st3" d="M229.1,240.3c-0.3-0.5-0.5-1-0.4-1.8C229.4,239.5,229.4,239.7,229.1,240.3"/>
									<path class="st3" d="M232.9,244.4c0.5,0.7,1,1.4,1.5,2.1c0.1,0.2,0.2,0.5,0.5,0.3c0.2-0.1,0-0.3-0.1-0.5
										c-0.3-0.5-0.6-1-0.9-1.5c0.3,0.2,0.5,0.3,0.7,0.6c0.7,0.8,0.3,2.4,2,2.4c0.6,0.9,1.4,1.7,1.8,2.8c-0.5-0.1-0.7-0.4-1-0.7
										c-0.3-0.4-0.6-1-1-1.1c-1.1-0.3-1.7-1.2-2.3-2c-0.7-0.9-1.3-1.7-1.7-2.8C232.7,244,232.8,244.2,232.9,244.4"/>
									<path class="st3" d="M233.9,244.7c-0.3-0.7-0.8-1.2-0.8-2C233.1,243.5,234.3,243.8,233.9,244.7
										C233.9,244.7,233.9,244.7,233.9,244.7L233.9,244.7"/>
									<path class="st3" d="M233.9,244.7L233.9,244.7L233.9,244.7L233.9,244.7L233.9,244.7L233.9,244.7L233.9,244.7L233.9,244.7
										L233.9,244.7L233.9,244.7z"/>
									<path class="st3" d="M233,240.4c-0.9-1.8-1.5-3.8-2.1-5.7c-0.2-0.5-0.4-1.1,0-1.9c0.8,3,1.7,5.7,2.8,8.4
										C233.3,241.1,233.2,240.7,233,240.4"/>
									<path class="st3" d="M233.7,241.2C233.7,241.2,233.7,241.2,233.7,241.2C233.7,241.3,233.7,241.2,233.7,241.2L233.7,241.2z"
										/>
									<path class="st3" d="M249.4,266.8c0.6,0.3,0.9,0.6,1.1,1.1c0,0-0.2,0.1-0.2,0.1C249.9,267.7,249.4,267.5,249.4,266.8"/>
									<path class="st3" d="M251.2,277.2c-0.1-0.2-0.2-0.5,0-0.9c0.5,0.1,0.5,0.5,0.5,0.8c0,0.3,0.2,0.9-0.2,0.9
										C251,278.1,251.3,277.5,251.2,277.2"/>
									<path class="st3" d="M238.7,251.2c0.9,0.5,1.2,1.3,1.7,2C239.8,252.6,239.1,252.1,238.7,251.2"/>
									<path class="st3" d="M238.8,253.1c-0.1-0.2-0.6-0.4-0.3-0.7c0.3-0.3,0.5,0.2,0.6,0.4c1.8,2,3.3,4.2,4.9,6.3
										c0.9,1.2,1.8,2.3,2.2,3.7c-0.1-0.1-0.3-0.2-0.3-0.3C243.5,259.4,241.1,256.2,238.8,253.1"/>
									<path class="st3" d="M234.6,243.8c-0.5-0.8-1-1.5-0.9-2.5c2.7,5.2,6.7,9.5,9.5,14.7c-0.2,0-0.3,0-0.4-0.1
										C240.1,251.8,237.2,247.9,234.6,243.8"/>
									<path class="st3" d="M233.7,241.2L233.7,241.2L233.7,241.2C233.7,241.2,233.7,241.2,233.7,241.2"/>
									<path class="st3" d="M232.2,246.1c0.8,1.1,2,1.9,2.7,3.1c-0.1,0.1-0.1,0.1-0.2,0.2c-0.6-0.6-1.2-1.2-1.8-1.7
										c-0.4-0.4-0.8-0.8-1.1-1.3c-0.1-0.1-0.1-0.3,0-0.4C232,245.9,232.1,246,232.2,246.1"/>
									<path class="st3" d="M251.3,272.9c-0.3-0.4-0.5-0.9-0.7-1.3c0.1-0.2,0.2-0.4,0.3-0.2c0.4,0.4,0.6,0.9,0.7,1.4
										C251.6,272.9,251.4,273,251.3,272.9"/>
									<path class="st3" d="M210,276.8c0.1,0.8,0.3,1.5,0.4,2.2c0,0.2-0.1,0.4-0.3,0.4c-0.2,0-0.2-0.2-0.2-0.3
										c-0.1-0.7-0.2-1.5-0.4-2.3c0,0-0.1-0.3,0.1-0.3C209.9,276.4,210,276.6,210,276.8"/>
									<path class="st3" d="M224.9,251.8c-1.6,0.9-3.1,1.8-4.5,3C221.4,253.1,222.9,252.2,224.9,251.8"/>
									<path class="st3" d="M231.4,232.1c-0.2-1.1-0.4-2.1-0.7-3.2c0.1,0-0.1-1.3,0-1.3c0.3,1,0.9,3.3,1.2,4.4
										c0,0.2,0,0.3-0.2,0.4C231.6,232.4,231.5,232.2,231.4,232.1"/>
									<path class="st3" d="M223.3,249.5c0.1,0.2-0.1,0.4-0.2,0.3c-0.3-0.1-0.5-0.3-0.6-0.6c0-0.2,0-0.3,0.2-0.3
										C223,249,223.2,249.2,223.3,249.5"/>
									<path class="st3" d="M218.6,257.1c-0.6,1.3-1.3,2.5-2.3,3.6C216.9,259.4,217.5,258.1,218.6,257.1"/>
									<path class="st3" d="M231,250.4c-0.6-0.3-0.9-0.8-1.2-1.7C230.6,249.3,230.9,249.8,231,250.4"/>
									<path class="st3" d="M226.9,251c0,0.2-0.2,0.2-0.3,0.1c-0.2,0-0.4-0.1-0.4-0.3c0-0.1,0.2-0.2,0.3-0.1
										C226.7,250.7,226.8,250.8,226.9,251"/>
									<path class="st3" d="M216.6,289.1c-0.5-0.2-0.6-0.5-0.7-0.9C216.3,288.4,216.5,288.7,216.6,289.1"/>
									<path class="st3" d="M212,283.4c-0.5-0.6-0.9-1.2-0.6-1.9C211.7,282.1,212,282.7,212,283.4"/>
									<path class="st3" d="M210.5,274.8c-0.3-0.5-0.3-1.1-0.2-1.8C210.7,273.7,210.6,274.2,210.5,274.8"/>
									<path class="st3" d="M223.9,248.2c0,0.3-0.3,0.3-0.5,0.3c-0.2,0-0.5-0.1-0.4-0.3c0-0.3,0.3-0.2,0.5-0.2
										C223.6,248,223.9,248,223.9,248.2"/>
									<path class="st3" d="M238.3,274.3c0.1-0.1,0.3,0.3,0.3,0.5c-0.1,0.4-0.2,0.8-0.7,1c-0.2,0-0.3-0.2-0.2-0.4
										C237.6,274.9,237.9,274.5,238.3,274.3"/>
									<path class="st3" d="M240.1,266.8c-0.3-0.5-0.9-0.4-0.7-0.9c0.1-0.2,0.5-0.4,0.8-0.2C240.6,266,240.2,266.3,240.1,266.8"/>
									<path class="st3" d="M240.4,273.5c0,0.6-0.7,0.6-0.9,0.9c-0.2-0.1-0.5-0.2-0.4-0.4c0.3-0.4,0.5-0.8,1-0.9
										C240.4,273.1,240.4,273.3,240.4,273.5"/>
									<path class="st3" d="M221.5,264.2c0,0.2-0.1,0.3-0.3,0.4c-0.2,0-0.2-0.1-0.2-0.2c0-0.2,0.1-0.3,0.3-0.4
										C221.4,263.9,221.5,264.1,221.5,264.2"/>
									<path class="st3" d="M243.3,280.9c-0.5-0.5-0.1-0.9,0.2-1.2c0.1-0.2,0.5-0.3,0.2-0.6c-0.2-0.3-0.5-0.3-0.7,0
										c-0.1,0.2-0.3,0.2-0.5,0c-0.1-0.2-0.1-0.4,0.1-0.5c0.2-0.1,0.4-0.3,0.6-0.3c0.8-0.1,0.7-0.4,0.4-1
										c-0.3-0.5-0.3-1.2-0.1-1.7c0.2-0.5,0.6,0.5,1,0.2c0,0,0.2,0,0.4,0.1c-0.7,0.5-1.2,1,0,1c0.1,0,0.2,0.1,0.2,0.1
										c0.1,0.3,0.8,0.3,0.5,0.7c-0.2,0.4-0.5,0.1-0.8-0.1c-0.5-0.3-0.7,0.2-0.6,0.4c0.5,0.8,0,1.3-0.4,1.9
										c-0.1,0.2-0.2,0.3,0,0.5c0.2,0.1,0.3,0.1,0.5-0.1c0.2-0.2,0.4-0.4,0.6-0.6c0.2-0.2,0.4-0.3,0.6,0c0.2,0.3-0.1,0.5-0.3,0.6
										c-0.3,0.2-0.7,0.2-0.9,0.5C244,281.8,243.6,281.3,243.3,280.9"/>
									<path class="st3" d="M245.6,276c0-0.2,0-0.3,0.2-0.3c0.2,0,0.3,0.2,0.3,0.4c0,0.2-0.1,0.3-0.3,0.3
										C245.7,276.4,245.6,276.2,245.6,276"/>
									<path class="st3" d="M242.6,275.7c-0.2-0.5,0-0.9,0.4-1.2c0.2-0.2,0.4-0.2,0.6,0.1c0.5,1,1,0.6,1.5,0.1
										c0.1-0.1,0.2-0.2,0.3-0.3c0.3-0.4,0.6-0.6,1.2,0.1c-0.3-1.4-0.3-2.4,0.2-3.3c0.2-0.3,0.1-0.6-0.1-0.7
										c-0.8-0.5-1-1.6-1.7-2.1c-0.4-0.3-0.8-0.6-0.1-1c0.1-0.1,0.2-0.3,0-0.3c-0.6-0.3-0.8-1.2-1.6-1.3c-0.5-0.1-0.6-0.3-0.3-0.7
										c0.3-0.4,0-0.6-0.3-0.6c-0.4-0.1-0.8-0.3-1.1-0.5c-0.8-0.5-1.8-0.3-2.3,0.4c-0.1,0.1-0.2,0.3-0.3,0.1
										c-0.4-0.7-1.6-0.5-1.6-1.6c0-0.4-0.3-0.5-0.6-0.6c-0.2-0.1-0.3-0.1-0.4,0c-0.1,0.2-0.1,0.4,0.1,0.5
										c0.4,0.3,0.6,0.7,0.6,1.2c0,0.4,1.6,1.4,2,1.4c0.3,0,0.4-0.2,0.6-0.5c0.1-0.2,0.2-0.4,0.5-0.5c0.3-0.1,0.8-0.1,1,0.1
										c0.3,0.4-0.1,0.6-0.4,0.8c-0.1,0.1-0.2,0.2,0,0.4c0.5-0.3,1.1-0.5,1.5,0.2c0.1,0.1,0.1,0.4,0.1,0.4c-1,0-0.6,2.2-2.1,1.4
										c-0.1-0.1-0.3,0.2-0.2,0.4c0.1,0.2,0.1,0.5,0.1,0.7c0,0.3-0.1,0.5-0.5,0.5c-0.4,0-0.4-0.2-0.3-0.5c0-0.1,0.1-0.3,0-0.4
										c-0.4,0-0.5,0.3-0.5,0.6c0,0.4,0.2,0.8,0.7,0.9c0.5,0.1,0.8,0.4,1,0.9c0.3,0.7,0.9,1.2,1.4,1.8c0.2,0.2,0.5,0.3,0.4,0.6
										c-0.1,0.3-0.4,0.3-0.6,0.2c-0.2-0.1-0.3-0.1-0.5,0.1c-0.1,0.3,0,0.5,0.2,0.5c0.6,0.3,0.4,0.6,0.1,1
										c-0.2,0.3-0.5,0.8,0.3,0.9c0.2,0,0.4,0.3,0.2,0.5c-0.1,0.2-0.4,0.2-0.6,0.1c-0.2-0.3-0.4-0.3-0.7-0.1
										c-0.2,0.2-0.2,0.4,0,0.6c0.3,0.3,0.1,0.6-0.1,0.7c-1,0.8-0.3,1.8-0.3,2.8c0,0.2,0.2,0.2,0.4,0.1c0.5-0.2,0.6-0.6,0.5-1
										c0-0.6,0.2-1.2,0.6-1.6c0.2-0.2,0.6-0.3,0.1-0.6c-0.4-0.2,0-0.5,0.2-0.5C242.8,276.6,242.8,276.2,242.6,275.7 M243.9,267.4
										c-0.2,0-0.3-0.2-0.3-0.4c0-0.1,0-0.3,0.2-0.3c0.2,0,0.4,0.1,0.4,0.3C244.2,267.2,244.1,267.4,243.9,267.4 M242.3,270.2
										c-0.2-0.1-0.5-0.2-0.7-0.3c-0.6-0.2-0.6-0.8-0.6-1.3c0-0.6,0.9-0.2,1-0.8c0.4,0.1,0.6,0.5,0.9,0.8c0.2,0.3,0.3,0.8,0.3,1.1
										C243.2,270.6,243.1,270.6,242.3,270.2 M245.6,271.4c-0.2,0-0.2-0.1-0.2-0.3c0-0.2,0.1-0.4,0.4-0.4c0.2,0,0.2,0.1,0.2,0.2
										C245.9,271.1,245.8,271.3,245.6,271.4 M243.8,273.3c-0.5-0.3-0.7-0.7-0.5-1.2C243.5,272.5,244,272.7,243.8,273.3"/>
									<path class="st3" d="M222.2,284.9c0.1,0.1,0.1,0.2,0,0.3c-0.1,0.3-0.3,0.1-0.4,0c-0.3-0.2-0.6,0.2-1.1-0.1
										c0.5-0.2,0.8-0.4,1.1-0.5C221.9,284.6,222.1,284.7,222.2,284.9"/>
									<path class="st3" d="M239.3,280.8c0,0-0.1,0-0.2,0c-0.2-0.3,0-0.6,0.3-0.9C239.4,280.2,239.6,280.5,239.3,280.8"/>
									<path class="st3" d="M237.6,283.2c0.1,0.3-0.2,0.4-0.4,0.3c-0.4-0.1-0.9,0-1-0.5c0.1-0.3,0.2-0.4,0.5-0.4
										C237,282.7,237.4,282.7,237.6,283.2"/>
									<path class="st3" d="M242.5,292.1c0,0,0.1,0.1,0.2,0.2c-0.3,0.6-0.9,1-1.5,1.4c-0.1-0.1-0.1-0.1-0.2-0.2L242.5,292.1z"/>
									<path class="st3" d="M222.6,286.6c0-0.2,0.1-0.4,0.4-0.4c0.2,0,0.3,0.2,0.3,0.4c0,0.3-0.2,0.4-0.4,0.4
										C222.7,287,222.6,286.8,222.6,286.6"/>
									<path class="st3" d="M220.3,286.6c0.1,0.1,0,0.3-0.1,0.3c-0.2,0-1.3-0.9-1.3-1c0.1-0.2,0.2-0.2,0.4-0.1
										C219.7,286,219.9,286.4,220.3,286.6"/>
									<path class="st3" d="M239.8,276.4c0.1,0.4-0.2,0.6-0.5,0.8c-0.2,0-0.3-0.1-0.3-0.3c0.1-0.3,0.2-0.6,0.5-0.8
										C239.7,276,239.8,276.2,239.8,276.4"/>
									<path class="st3" d="M238.9,278.9c0,0.2-0.1,0.4-0.3,0.3c-0.5-0.1-0.6-0.5-0.6-0.9c0-0.2,0-0.4,0.2-0.4
										C238.6,278.1,238.8,278.5,238.9,278.9"/>
									<path class="st3" d="M246.4,287.4c0.1-0.3,0.3-0.4,0.6-0.4c-0.1,0.3-0.2,0.5-0.5,0.6C246.5,287.6,246.4,287.4,246.4,287.4"
										/>
									<path class="st3" d="M232.7,227.2c-0.1-0.7-0.2-1.3-0.2-1.3c-0.7-1.6-0.5-3.4-1.3-4.9c-0.1,1.7,0.2,3.3,0.6,4.9
										c0,0,0.1,0.6,0.3,1.3c1.1,3.6,1.4,7.4,2.4,11c0.8,2.8,1.6,5.6,3.2,8.1c1.6,2.6,3.5,5.1,5.2,7.6c2.2,3.2,4.5,6.5,6.7,9.8
										c0.1,0.1,0.4,0.3,0.1,0.5c-0.3,0-0.4-0.3-0.6-0.5c-1.6-1.9-3.1-3.8-4.7-5.7c-0.1-0.2-0.2-0.5-0.5-0.3
										c-0.3,0.2,0,0.4,0.1,0.5c1,1.4,2,2.7,3.1,4.1c2,2.4,4.5,4.5,5.3,7.8c0,0.2,0.2,0.4,0.1,0.5c-0.5,0.4-0.2,0.7,0,1
										c0.3,0.6,0.5,1.2,0.8,1.8c0.1,0.3,0.3,0.6,0,1c-0.4-0.4-0.3-1-0.9-1.3c-0.1,0.2-0.1,0.4,0,0.5c0.4,0.7,0.4,1.5,0.6,2.2
										c0.1,0.2,0.2,0.7-0.1,0.8c-0.8,0.2-0.3,0.6-0.2,0.9c0.2,0.8,0.4,1.6,0.3,2.5c-0.3,1.9-1.1,3.5-1.9,5.2
										c-0.3,0.5-0.4,1.2-1.2,1.6c0.9-2.3,1.7-4.4,2.4-6.5c-0.1,0-0.2-0.1-0.3-0.1c-0.4,0.9-0.8,1.8-1.3,2.6
										c-0.5,1-0.8,2.2-1.6,2.9c-1.3,1.3-1.9,2.8-2.5,4.4c0,0,0,0,0,0c0,0,0,0,0,0c0.2,0,0.4-0.2,0.5-0.3c0.3-0.7,0.7-1.3,1-2
										c0.5-1.1,0.6-1.2,1.3-1.6c-0.5,1.6-1.2,3-2.2,4.3c-0.1,0.1-0.2,0.2-0.4,0.2c-0.3-0.1-0.2-0.3-0.2-0.5c0,0,0,0,0,0l0,0l0,0
										l0,0c-0.2,0.2-0.3,0.4-0.4,0.7c-0.5,1-1.2,1.8-2.5,2.1c0.2-0.6,0.6-0.9,0.9-1.3c0.2-0.2,0.4-0.4,0.2-0.6
										c-0.2-0.2-0.4,0.1-0.5,0.3c-1.2,1.6-2.7,2.8-4.6,3.6c-1.2,0.5-2.5,1-4,1.2c0.4-0.8,1.3-0.9,1.7-1.8
										c-1.8,1.1-3.4,2.2-5.4,2.3c-1.9,0.1-3.7-0.3-5.6-1.1c0.3,0.7,0.3,0.8-0.4,0.7c-1.4-0.3-2.3-1.2-3.4-1.9
										c-0.2-0.2-0.4-0.5-0.8-0.3c0.1,0.5,0.7,0.6,0.8,1.1c-2.4-0.5-3.2-1.1-4.7-2.9c-0.7-0.8-1.5-1.6-2.3-2.4
										c-0.1,0.1-0.1,0.1-0.2,0.2c0.3,1,1.4,1.5,1.7,2.5c-2.6-1.6-3.2-4.6-5.1-6.7c0.3,1.4,1.4,2.4,1.8,3.8
										c-1.1-1.1-2.2-2.3-2.7-3.8c-0.5-1.6-1-3.1-1.5-4.7c-0.8-2.6-1.9-5.2-1.2-8.1c0.1-0.2,0-0.6,0.2-0.7
										c0.3-0.2,0.3,0.5,0.6,0.4c0.1-0.5,0.1-1,0-1.6c-0.1-1,0.1-2,0.5-2.9c0.1-0.2,0.2-0.5,0.4-0.3c0.8,0.5,0.6-0.3,0.6-0.5
										c-0.1-1.2,0.4-2.2,1-3.2c1.7-3,3.7-5.7,5.6-8.6c1-1.5,2-3.1,3.7-4c0.3-0.2,0.7-0.4,0.8-0.8c-0.3-0.2-0.5,0.1-0.7,0.2
										c-0.2,0.1-0.4,0.3-0.6,0.2c-0.2-0.2,0-0.4,0.1-0.6c0.2-0.4,0.4-0.9,0.7-1.2c0.8-0.9,0.9-2.7,2.8-2.5c0.2,0,0.5,0,0.7-0.1
										c0.2,0,0.4-0.3,0.2-0.4c-0.6-0.4-0.2-1.2-0.6-1.7h1.9c-0.5-0.8-1.2-0.4-1.7-0.5c-0.2,0-0.4,0-0.5-0.2
										c-0.1-0.3,0.2-0.4,0.4-0.5c0.4-0.1,0.8-0.1,1.2-0.1c2.3-0.4,2.8-1.1,2.2-3.4c-0.3-1.2-0.5-2.4-1-3.6
										c-0.2-0.4-0.3-1.2,0.2-1.3c0.5-0.2,0.3,0.6,0.5,0.9c0.1,0.2,0.2,0.5,0.4,0.4c0.2-0.1,0.1-0.3,0.1-0.5
										c-0.2-0.6-0.4-1.3-0.5-1.9c-0.1-0.3-0.2-0.7,0.1-0.7c0.6-0.1,0.2-0.5,0.2-0.7c0-0.5-0.5-1,0-1.5c0.3,0.1,0.3,0.6,0.7,0.6
										c0.2-0.3,0-0.6-0.1-0.9c-0.4-0.7-0.4-1.5-0.4-2.3c0-0.3,0-0.5,0.4-0.4c0.7,0.3,0.5-0.2,0.4-0.6c-0.1-0.2-0.1-0.5-0.2-0.7
										c-0.2-0.6-0.3-0.9-0.1-1.3c0.2-0.5,0.6-1,0.4-1.6c-0.7-2.2-0.5-4.4-0.3-6.6c0.2-3.1-0.1-6-0.9-8.9
										c-0.6-2.2-0.6-2.4-0.3-3.3c0.9,1.4,0.9,3,1.8,4.4c0.1-0.5,0.2-1,0.1-1.5c-0.9-3.2-1.5-6.4-2.4-9.5
										c-0.6-1.8-1.3-3.6-1.6-5.5c-0.1-0.3-0.2-0.6,0.2-0.8c0.3,0.6,0.4,1.2,0.9,1.7c-0.3-1.9-1.4-3.6-1.5-5.7
										c0.7,0.6,0.6,1.4,1.2,1.9c0.1-1-0.3-1.6-0.6-2.3c-0.7-1.8-2-3.5-0.9-5.6c0.1-0.1,0-0.3-0.1-0.5c-0.4-0.8-0.3-1.6-0.6-2.4
										c-0.2-0.5-0.2-1,0-1.5c0.4-0.9,0.7-1,1.6-0.4c0.2,0.1,0.3,0.3,0.6,0.2c-0.3-0.7-0.3-0.7-1.2-0.9c-0.5-0.1-0.4-0.3-0.2-0.5
										c0.4-0.3,0.9-0.6,1-1.1c0-0.2,0.4-0.2,0.6-0.1c0.3,0.1,0.5,0.2,0.8,0.3c0.9,0.3,1.7-0.2,1.6-1.1c0-0.2-0.2-0.3,0.1-0.5
										c0.6,0.3,0.6,0.9,0.6,1.6c0.4-0.5,0.7-0.7,0.4-1.1c-0.2-0.2-0.3-0.4,0-0.6c0.3-0.2,0.6,0,0.8,0.2c0.2,0.2,0.3,0.5,0.3,0.8
										c0,0.2-0.1,0.7,0.2,0.7c0.5,0,0.3-0.5,0.3-0.8c0-0.1-0.1-0.3-0.1-0.4c-0.1-0.2-0.2-0.4,0-0.5c0.3-0.1,0.6,0,0.7,0.3
										c0.3,0.8,0.6,1.6,0.4,2.4c-0.1,0.6-0.3,0.7-0.9,0.3c-1-0.6-2.1-0.6-3.2-0.1c-1,0.6-1.4,1.6-1.2,2.6c0.3,1.4,1.6,2.3,3,2.1
										s2.4-1.1,2.5-2.6c0-0.2,0.1-0.4,0.1-0.6c0.1-1.2,0.5-2.5,0.1-3.7c-0.1-0.2-0.2-0.4,0-0.5c0.3-0.1,0.4,0.1,0.5,0.4
										c0.2,0.8,0.5,1.6,0.3,2.4c-0.1,0.5-0.3,1-0.1,1.5c0.7-1.2,0.6-2.4,0.3-3.7c0.8,0.2,1.2,0.7,1.5,1.2
										c0.7,1.2,0.4,2.5,0.1,3.7c-0.3,1.3-1.2,2.4-1,3.8c0.2,1.3,0.8,2.5,1,3.8c0.1,0.4,0.1,0.7-0.3,1c-0.3-0.8-0.5-1.6-0.8-2.4
										c-0.8-2.3-1-4.5,0.6-6.5c0.5-0.6,0.6-1.5,0-2.3c-0.1,0.2-0.2,0.4-0.2,0.5c0.1,1.2-0.4,2.1-1.1,3.1c-0.7,0.9-0.7,2-0.4,3.1
										c0.4,1.6,1,3.3,1.4,5c0.6,2.3,0.5,4.1-0.3,6.5c-0.4-2.2-0.7-4.3-1.8-6.3c0.1,1.7,0.9,3.3,0.6,5c-0.3-1-0.7-1.9-1.1-3
										c-0.2,0.3-0.2,0.5-0.2,0.7c0.5,1.5,0.8,3.1,1.3,4.7c0.7,2.4,1,4.7,0.3,7.2c-0.2,0.8-0.2,1.8-0.7,2.7
										c-0.7-1.2-0.6-2.6-1.6-3.4c0.1,0.6,0.2,1.2,0.4,1.7c0.6,1.8,1.5,3.6,1.3,5.6c-0.3,1.9-0.4,3.8-0.2,5.7
										c0,0.2,0.1,0.6-0.2,0.6c-0.4,0.1-0.4-0.2-0.5-0.5c-0.4-1.4-0.8-2.8-1.2-4.2c-0.2,0.1-0.2,0.3-0.1,0.5
										c0.2,1.6,0.6,3.2,1.2,4.7c0.4,1.2,1,2.3,0.6,3.6c-0.4,1.1-0.2,2.2-0.1,3.3c0,0.6,0.1,1.2,0.1,1.8
										C232.8,226.3,232.7,226.8,232.7,227.2 M227.8,203.7c-0.7-1.3-1.2-2.7-1.1-4.2C227.4,200.8,227.8,202.2,227.8,203.7
										 M232.2,179.8c0,0,0,0.1-0.1,0.1c0,0.4-0.5,0.7-0.8,1c-0.3,0.2-0.7,0.2-1.1,0.3c-0.6-0.1-1.2-0.3-1.5-0.8c0,0,0,0,0-0.1
										c0,0,0,0-0.1-0.1c0,0,0-0.1,0-0.1c0-0.1,0-0.1-0.1-0.2c-0.1-0.5-0.1-0.9,0-1.4c0.1-0.4,0.5-0.9,1-1.1
										c0.6-0.1,1.2,0.2,1.8,0.4c0.2,0.1,0.4,0.2,0.6,0.3c0.2,0.2,0.4,0.5,0.4,0.7C232.2,179.3,232.2,179.6,232.2,179.8
										 M236,185.7c-1.1-1-0.9-3.1,0.5-4.8C236.6,182.5,236.3,184,236,185.7 M227.9,174.5c0.4-0.1,0.5,0.3,0.6,0.5
										c-0.1,0.3-0.4,0.6-0.8,0.6c-0.3,0-0.9-0.1-0.9-0.4C226.9,174.7,227.5,174.6,227.9,174.5 M227.3,227.1
										c-0.1,0.7-0.1,1.4-0.2,2.1c-1.2,9.8-5.2,18.4-10.8,26.4c-2.5,3.6-5.2,7.1-6.9,11.2c-1.3,2.9-2.4,5.8-2.3,9
										c0.2,5.2,1.8,9.9,5.1,14c2.5,3.1,5.6,4.8,9.1,6.3c2.1,0.9,4.3,1.2,6.6,1.5c4,0.5,7.8-0.1,11.6-1
										c8.7-3.1,14.8-11.4,14.8-19.8c0-10.6-7.8-18.5-13.4-27.6c-5.2-8.4-6.2-13.3-7.3-22.1c-0.1-0.7-0.1-1.1-0.1-1.7
										c0.2-8.3,0.7-15.3,1.1-17.9c0.7-4.8,2.8-22.1,3-28c0.2-5.7-4.1-6.2-7.1-6.2l0,0c-1.2,0.1-2.4,0.2-3.5,0.8
										c-2.6,1.2-3.9,3.1-4.1,5.6c-0.1,2.3,0.4,4.6,0.7,6.9c0.2,2.1,0.5,4.2,0.8,6.3c0.2,1.7,0.5,3.4,0.7,5.1
										c0.4,2.5,0.7,5,1.1,7.5c0.5,3.2,0.6,6.6,0.8,10c0.2,3.4,0.3,6.8,0.4,10.3C227.3,226,227.3,226.4,227.3,227.1"/>
									<path class="st3" d="M236.2,241.6c0.4,0.6,0.7,1.2,0.8,2C236.6,242.9,236.2,242.4,236.2,241.6"/>
									<path class="st3" d="M226.8,237.8c0.4,1,0.2,1.9,0,2.9c-0.1,0.5-0.4,0.9-1,1c-0.4,0.1-0.6-0.1-0.4-0.5
										C226.1,240.2,226.3,238.9,226.8,237.8"/>
									<path class="st3" d="M225.5,242.3c0.8-0.1,1.5-0.4,1.8-1.2c0.1-0.2,0-0.7,0.4-0.6c0.4,0.1,0.2,0.5,0.3,0.7
										c0,0.9-0.4,1.4-1.3,1.6c-0.4,0.1-0.7,0-1.1,0.2c-0.2,0.1-0.7,0.3-0.7-0.2C224.8,242.4,225.1,242.4,225.5,242.3"/>
									<path class="st3" d="M223.9,245.3c0.2,0,0.3,0.2,0.3,0.4c0,0.2-0.1,0.4-0.5,0.4c-0.2,0-0.2-0.2-0.2-0.4
										C223.5,245.5,223.6,245.3,223.9,245.3"/>
									<path class="st3" d="M244.8,273.9c0.1,1.1,0.7,2.2,1.2,3.2c2.8,5.8-6.1,7.5-8.7,7.9c-3.3,0.5-5.2,3.6-8.6,3.6
										c-4.7,0-8.7-3.1-12.9-5.3c-1.5-0.8-3.3-1.4-4.7-0.6c-1.4,0.8-1.8,2.7-1.4,4.2c0.5,1.5,1.6,2.7,2.8,3.8
										c1.5,1.3,3,2.3,4.7,3.3c1.4,0.8,2.6,1.9,3.9,2.9c1.5,1.2,2.4,2.8,3.2,3.9c1,1.4,2,2.9,2.5,4.6c2.6,8.8,3,11.7,0.8,22.4
										c-1.5,7.2-4.1,14.2-4.8,21.5c-0.2,2.1,0,4.6,1.7,5.7c1.5,1,3.6,0.5,5-0.7c1.4-1.2,2.1-2.9,2.7-4.6c0.5-1.3,0.9-2.6,0.8-3.9
										c-0.1-1.5-0.9-2.9-1.4-4.3c-0.6-1.9-0.6-3.9-0.7-5.9c-0.1-9,0.3-11.4,1.3-18.9c0.8-5.9,2.9-11.6,6.9-15.9
										c1.9-2,6.5-7,8.4-9.1c3.3-3.6,6.1-7.4,6.7-12.2c0.2-1.7-0.5-3.6-1.2-5.1C251.8,271.4,244.3,268.3,244.8,273.9"/>
									<path class="st3" d="M243.4,269.3c-0.1,1.9-2.7,2-3.6,3.7c-0.8,1.7,0.3,3-1.1,4.4c-3.5,3.7,0.5,5.5-9.1,5.3
										c-1.4,0-4-0.6-5.3-0.4c-3.5,0.6-4.6,2.1-7-0.4c-2.4-2.5-4.2-5.6-3.5-9c-0.8-0.7-2.2,0.1-2.4,1.1s0.1,2.1,0.5,3.1
										c0.4,1,0.8,2.1,0.4,3.1c-0.5,1.3-2.2,2-2.6,3.4c-0.4,1.6,1,3,2.3,4c3,2.3,6.2,4.6,10,5.2c3.8,0.6,7.6-0.6,11.2-1.8
										c3.7-1.2,7.5-2.5,10.7-4.7c3.3-2.1,6-5.4,6.8-9.2c0.2-1,2.1,0.8,1.8-0.2c-0.4-1.2,1.4-1.5,1.1-2.7c-1.2-4.5-3.8-5-6.1-8.1
										c-0.7-1-1.1-1.1-1.7-1.7c-0.3-0.4-2.3-1.8-2-1.2c0.6,0.9-0.2,1.6-1,1.3C241.4,263.9,243.5,267.8,243.4,269.3"/>
									<path class="st3" d="M238.1,257.7c-0.2-0.2-0.4-0.5-0.5-0.7c0,0,0,0-0.1,0C237.7,257.3,237.9,257.5,238.1,257.7"/>
									<path class="st3" d="M237.1,256.6c0.1,0.2,0.3,0.3,0.4,0.5c0,0,0,0,0-0.1C237.4,256.8,237.2,256.7,237.1,256.6L237.1,256.6
										L237.1,256.6z"/>
									<path class="st3" d="M250.2,277.2c-0.1-1.3-0.5-2.6,0.1-3.8c0.1-0.2-0.1-0.4-0.1-0.6c-0.6-1.4-0.9-2.9-1.2-4.4
										c-0.1-0.7-0.6-1.2-1-1.7c-2.5-3.7-5.3-7.2-8-10.8c-0.4-0.5-0.8-0.9-1.2-1.3c-0.6-0.6-1.1-1.2-1.3-2
										c-0.3-0.8-0.7-1.5-1.6-1.8c0.3,0.6,0.7,1.1,1,1.7c0.1,0.1,0.2,0.3,0.1,0.4c-0.1,0.2-0.3,0-0.5,0c-0.7-0.3-1.3-0.6-1.5-1.5
										c-0.3-1.2-1.2-2-2-2.8c-0.5-0.5-0.8-1.2-1.5-1.5c-0.2,0.5,0.1,0.6,0.3,0.9c0.7,1.2,2,1.8,2.6,3.2c0.1,0.2,0.4,0.5,0.1,0.7
										c-0.3,0.3-0.5,0-0.8-0.1c-0.5-0.2-0.8-0.6-1-1.1c-0.4-0.9-0.9-1.7-1.7-2.4c0,0.4,0.2,1,0.8,2c0.1,0.2,0.3,0.4,0.4,0.7
										c0.1,0.3,0,0.7-0.5,0.5c-2.1-0.7-4,0.3-5.9,1c-2.1,0.7-3.6,2.1-4.8,3.9c-1.9,2.9-4.2,5.4-6.1,8.3c-1.7,2.6-3.1,5.3-3.5,8.5
										c-0.7,4.9,0.6,9.3,3.7,13.1c2.1,2.6,4.7,4.5,7.1,6.8c0.2,0.2,0.5,0.5,0.7,0.2c0.3-0.3-0.2-0.5-0.4-0.6
										c-0.3-0.2-0.6-0.4-0.7-0.8c1.8,0.2,3.1,1.3,4.3,2.4c0.1-0.5-0.4-0.7-0.5-1.2c1.1,0.3,2.2,0.4,3.2,1
										c1.1,0.8,1.4,0.8,2.4,0.5c-0.3-0.7-1.2-0.1-1.5-0.9c1.6,0,3.1-0.2,4.7-0.4c0,0.6-0.6,0.5-0.6,1c0.8,0,1.3-0.6,1.8-1
										c0.2-0.1,0.4-0.4,0.6-0.3c0.3,0.2-0.2,0.4,0.1,0.7c2-1.3,4-2.6,6.2-4c-0.4,1.1-1.4,1.4-1.9,2.4c1.3-0.7,2.2-1.5,2.9-2.5
										c1-1.6,2.4-2.9,3.4-4.5c1.1-1.7,2.1-3.5,2.5-5.6c0.4,0.3,0.2,0.7,0.5,0.9C250.4,279.2,250.3,278.2,250.2,277.2 M226.3,258
										c-0.2,0.4-0.6,0.5-0.8,0.7C225.7,258.4,225.8,258,226.3,258 M223.2,290.8c-0.2-0.1-0.6-0.2-0.6-0.6c0-0.2,0.1-0.3,0.3-0.3
										c0.3,0,0.6,0.1,0.6,0.4C223.6,290.6,223.5,290.7,223.2,290.8 M247.9,275.5c-0.3,0.5-0.7,1.4-0.4,1.8c0.4,0.6,0.1,1.1,0,1.6
										c-0.1,0.4,0.1,1.2-0.8,1.2c-0.3,0-0.7,0.6-0.5,1.1c0.1,0.3,0.1,0.7-0.2,0.8c-0.5,0.2-0.6,0.6-0.7,1c-0.2,0.5-0.5,0.9-1,1.2
										c-0.6,0.4-1.1,0.8-1.6,1.2c-0.1,0.1-0.3,0.2-0.1,0.4c0.4,0.4,0.4,0.6-0.1,0.7c-0.2,0.1-0.4,0-0.5,0.2
										c-1.2,1.8-3.5,1.9-5.1,3.2c-0.4,0.3-1.5,0.5-1.6,0.4c-0.9-0.4-1,0.1-1.3,0.6c-0.2,0.3-0.4,0.5-0.7,0.5
										c-1.5-0.3-3.2,0.4-4.6-0.6c-0.2-0.1-0.4-0.1-0.5,0c-1.2,0.9-2.2,0.1-3.6,0c1-0.6,1.9-0.9,2.6-1.5c0.1-0.1,0.3-0.1,0.5,0.1
										c0.5,0.6,2.9,1,3.5,0.5c0.4-0.3,0.7-0.3,1.1-0.3c0.8,0.1,1.4-0.1,1.6-1c0.1-0.2,0.2-0.5,0.5-0.6c0.3-0.1,0.6-0.6,0.8-0.2
										c0.9,1.4,1.4,0.2,2-0.3c0.3-0.2,0.5-0.5,0.9-0.4c0.9,0.3,1.1-0.3,1.2-0.9c0.1-0.4,0.2-0.7,0.6-0.7c1.3,0,1.8-1.1,2.6-1.7
										c0.1-0.1,0.3-0.2,0.1-0.4c-0.1-0.1-0.3-0.3-0.3-0.3c-0.8,0.6-0.7-0.5-1.1-0.6c-0.1,0-0.4-0.3-0.2-0.5
										c0.2-0.2,0.5-0.2,0.6-0.1c0.4,0.5,0.8,0.2,1.2,0.1c0.2,0,0.4-0.1,0.3-0.3c0-0.2-0.2-0.5-0.3-0.4c-0.7,0.3-1.6-0.4-2.3,0.3
										c-0.2,0.2-0.5,0.3-0.8,0.3c-1-0.2-1,0.4-0.9,1.1c0.1,0.3,0.2,0.6,0.3,0.9c0.1,0.1,0.2,0.3,0,0.4c-0.1,0.1-0.4,0.1-0.4,0
										c-0.4-0.5-0.8-0.1-1.1,0.1c-0.4,0.2-0.7,0.6-1.2,0.5s-0.7,0.1-0.7,0.6c0,0.3-0.1,0.5-0.4,0.5c-0.3,0-0.3-0.2-0.3-0.5
										c0-0.2,0.1-0.6-0.3-0.6c-0.4,0-0.4,0.5-0.4,0.6c0.3,1.1-0.4,0.9-1,0.7c-0.5-0.2-1.1-0.4-1.6-0.5c-0.2,0-0.5,0-0.6,0.3
										c0,0.3,0.2,0.3,0.5,0.3c0.2,0,0.5,0.1,0.5,0.3c0,0.3-0.3,0.2-0.5,0.3c-0.5,0.3-0.9,0-1.2-0.4c-0.6-0.8-0.8-0.7-1.3,0.1
										c-0.1,0.2-0.4,0.4-0.1,0.6c0.3,0.3,0.4-0.1,0.5-0.3c0.1-0.2,0.2-0.3,0.4-0.2c0.2,0.1,0.1,0.5,0.1,0.5
										c-0.5,0-0.5,1.5-1.3,0.4c-0.1-0.1-0.2-0.1-0.3-0.1c-0.5,0.2-0.8,0-1-0.5c-0.1-0.2-0.3-0.3-0.4-0.3
										c-0.7,0.2-1.4-0.1-2.1-0.2c0.1,0.6,0.8,0.7,1,1.2c0,0.1,0.1,0.2,0.1,0.3c0,0.1-0.3,0.1-0.3,0.1c-0.5-0.5-1.1-0.4-1.7-0.1
										c-0.1-0.5,0.8-0.7,0.4-1.1c-0.3-0.3-0.5,0.4-0.8,0.5c-0.3,0.2-0.8-0.1-0.8,0.4c0.1,0.7-0.3,0.4-0.6,0.3
										c-0.6-0.2-1.2-0.6-1.8-0.7c-0.5,0-1.1-0.1-0.5,0.7c0.1,0.1,0.2,0.3,0,0.4c-0.1,0.1-0.3,0.1-0.4,0c-0.5-0.4-0.8-0.8-0.4-1.4
										c0.4-0.6-0.1-0.8-0.4-1.1c-0.5-0.3-0.5,0.2-0.6,0.4c-0.1,0.2-0.1,0.4-0.4,0.4c-0.3-0.1-0.4-0.3-0.3-0.6
										c0.1-1-0.1-1.7-1.3-1.7c-0.1,0-0.3-0.1-0.3-0.2c-0.8-1-1.8-1.9-2-3.3c-0.2-1.2-0.2-2.4-0.6-3.5c-0.6-1.6-0.4-3,0.6-4.4
										c0.4-0.6,0.8-1.3,1-2c0.5-1.9,1.6-3.6,3.1-4.8c1.1-0.8,1.9-1.7,2.5-2.8c0.2-0.4,0.6-0.7,1-1c0.3-0.3,0.8-1,0.8,0.2
										c0,0.4,0.5,0.6,0.8,0.7c0.5,0.1,0.5-0.6,0.9-0.8c0.3-0.2-0.1-0.3-0.3-0.5c-0.4-0.4,0.1-0.8,0.1-1.2c0-0.4,0.4-0.6,0.7-0.6
										c0.4,0,0.9-0.2,1.3,0c1.1,0.5,1.5-0.3,2-0.9c0.2-0.2,0.4-0.4,0.2-0.7c-0.7-1.4-0.4-2.8-0.4-4.3c0-0.7-0.2-1.6,0.3-2.1
										c0.5-0.6,1.5-0.4,2.2-0.4c2.1-0.1,4.1,0.3,5.9,1.3c0.2,0.1,0.4,0.3,0.2,0.6l0,0c0,0,0.1-0.1,0.1-0.1c0,0-0.1,0.1-0.1,0.1
										c0.6-0.2,1,0.1,1.3,0.5c1.2,1,2.2,2.2,3.1,3.4c0.5,0.6,0.9,1.2,1.4,1.8c-1.3-0.9-2.2-2.1-3.3-3.3c-0.8-0.9-1.5-1.8-2.6-2.3
										l0,0c-0.5-0.5-1.2-0.6-1.9-0.8c0.1,0.7,0.6,0.7,0.9,0.9c1.1,0.6,2.2,1.3,2.5,2.6c0,0,0,0,0,0.1c0,0,0,0,0,0.1
										c0.9,0.4,1.4,1.1,1.9,1.9c0.1,0.1,0.1,0.1,0.2,0.2c0.4,0.3,0.8,0.5,1.2,0.8c0.8,0.6,1.5,1.3,2,2.1c0.4-0.1,0.6,0.4,0.9,0.8
										c0.2,0.3,0.5,0.7,0.7,1.1c0.5,1,0.6,2.1,1.4,2.8c1.4,1.2,1.7,2.7,1.9,4.3c0.1,0.9,0,1.9,0.3,2.7
										C248.3,274.5,248.3,275,247.9,275.5 M233.2,287.4c0-0.2,0-0.4,0.3-0.4c0.3,0,0.4,0.2,0.5,0.5c0,0.2-0.1,0.3-0.3,0.3
										C233.4,287.8,233.2,287.6,233.2,287.4 M239.5,283c0-0.3,0.3-0.4,0.5-0.4c0.2,0,0.2,0.2,0.2,0.4c-0.1,0.2-0.2,0.3-0.5,0.3
										C239.6,283.3,239.5,283.2,239.5,283"/>
									<path class="st3" d="M215.5,278.7c0.6,0.2,0.6,0.7,0.6,1.2c0,0.3-0.2,0.4-0.4,0.3c-1.1-0.4-1.1,0.3-1.2,1
										c0,0.2,0,0.3,0,0.5c0.1,0.5,0,0.8-0.9,0.8c1.2,0.8,1.9,1.5,2.2,2.5c0.1,0.3,0.3,0.5,0.5,0.4c1-0.2,1.8,0.4,2.7,0.3
										c0.5-0.1,1-0.1,0.8,0.7c0,0.1,0.1,0.3,0.2,0.3c0.7-0.2,1.4,0.3,2-0.1c0.5-0.3,0.6-0.2,0.7,0.3c0.1,0.4,0.4,0.4,0.6,0.3
										c0.4-0.2,0.7-0.3,1.1-0.4c0.9-0.2,1.5-1,1.4-1.9c0-0.1,0-0.3,0.1-0.3c0.8,0.2,1.5-0.8,2.2,0.1c0.3,0.3,0.6,0.1,0.9,0
										c0.2-0.1,0.3-0.2,0.3-0.3c0-0.2-0.2-0.3-0.4-0.3c-0.5,0.1-0.9-0.1-1.3-0.4c-0.3-0.2-2.2,0.1-2.4,0.4
										c-0.2,0.2-0.1,0.5-0.1,0.7c0.1,0.2,0.2,0.5,0,0.7c-0.2,0.3-0.5,0.6-0.8,0.6c-0.4-0.1-0.3-0.5-0.3-0.9c0-0.1,0-0.2-0.3-0.3
										c-0.1,0.6-0.4,1.1-1.2,0.9c-0.2,0-0.4-0.2-0.4-0.2c0.8-0.7-1.1-2,0.5-2.5c0.2,0,0.1-0.3-0.1-0.5c-0.2-0.1-0.4-0.3-0.6-0.4
										c-0.3-0.2-0.3-0.4,0-0.7c0.3-0.2,0.4-0.1,0.6,0.2c0.1,0.1,0.1,0.3,0.3,0.3c0.3-0.3,0.2-0.6-0.1-0.8
										c-0.3-0.2-0.7-0.4-1.1-0.2c-0.4,0.3-0.8,0.2-1.4,0c-0.7-0.3-1.5-0.2-2.3-0.3c-0.2,0-0.5,0.1-0.7-0.1
										c-0.2-0.3,0-0.5,0.3-0.6c0.2-0.1,0.3-0.1,0.3-0.4c-0.1-0.3-0.3-0.3-0.5-0.3c-0.6,0.2-0.7-0.1-0.8-0.6
										c-0.1-0.4-0.2-1-0.9-0.5c-0.2,0.1-0.4,0.1-0.5-0.2c-0.1-0.3,0.1-0.5,0.3-0.4c0.4,0,0.5-0.1,0.6-0.4c0-0.3-0.2-0.5-0.4-0.5
										c-0.4,0-0.5-0.3-0.4-0.6c0.1-1.3-1.1-1.5-1.7-2.2c-0.2-0.2-0.3,0-0.4,0.2c-0.2,0.5,0,0.8,0.3,1.1c0.5,0.4,0.7,0.9,0.6,1.6
										c0,0.3-0.2,0.7,0.4,0.5c0.4-0.1,0.3,0.3,0.3,0.5C214.8,278.2,215,278.5,215.5,278.7 M220.4,285.6c0.2-0.1,0.3-0.1,0.5,0
										c0.1,0.1,0.2,0.2,0.1,0.3c-0.1,0.2-0.3,0.2-0.5,0.1C220.3,285.9,220.3,285.7,220.4,285.6 M219.7,282.4
										c0.2-0.1,0.5-0.2,0.7-0.3c0.6-0.3,1,0.1,1.4,0.5c0.4,0.5-0.5,0.8-0.1,1.3c-0.4,0.2-0.8,0.1-1.2,0.1c-0.4-0.1-0.7-0.4-1-0.6
										C218.7,282.8,218.7,282.7,219.7,282.4 M216.5,283.9c0.1-0.2,0.3-0.1,0.4,0c0.2,0.2,0.2,0.4,0,0.6c-0.1,0.1-0.2,0-0.3,0
										C216.4,284.3,216.3,284.1,216.5,283.9 M216.4,281.2c0.5-0.1,0.9,0,1.2,0.5C217.2,281.6,216.6,281.8,216.4,281.2"/>
								</g>
							</g>
							<g>
								<defs>
									<path id="SVGID_00000050638965066573199610000013177871561407919778_" d="M133.4,369.5v48.2c3.9,1.3,7.8,2.6,11.7,3.9
										c27.7,9.3,59.2,19.7,97.6,19.2c1,0,2.1,0,3.1,0c37.4,0,67.8-10.2,94.7-19.2c4-1.3,8-2.7,11.9-3.9v-48.2H133.4z"/>
								</defs>
								<clipPath id="SVGID_00000007416824177960627300000005687765090458499231_">
									<use xlink:href="#SVGID_00000050638965066573199610000013177871561407919778_"  style="overflow:visible;"/>
								</clipPath>
								<g style="clip-path:url(#SVGID_00000007416824177960627300000005687765090458499231_);">
									<rect x="158.4" y="417.1" class="st15" width="168.6" height="35.3"/>
									<rect x="214.6" y="417.1" class="st8" width="56.2" height="35.3"/>
									<rect x="270.8" y="417.1" class="st16" width="56.2" height="35.3"/>
									<rect x="158.4" y="417.1" class="st17" width="56.2" height="35.3"/>
								</g>
							</g>
						</g>
					</g>
				</g>
			</g>
		</g>
	</g>
</g>
</svg>
