<?xml version="1.0" encoding="utf-8"?>
<!-- Generator: Adobe Illustrator 26.5.0, SVG Export Plug-In . SVG Version: 6.00 Build 0)  -->
<svg version="1.1" id="Layer_2_00000163787786035421602060000004682439850309139367_"
	 xmlns="http://www.w3.org/2000/svg" xmlns:xlink="http://www.w3.org/1999/xlink" x="0px" y="0px" viewBox="0 0 500 500"
	 style="enable-background:new 0 0 500 500;" xml:space="preserve">
<style type="text/css">
	.st0{fill:#8A2432;}
</style>
<g id="Livello_1">
	<g>
		<g>
			<path class="st0" d="M498.5,319.3c-1.1-0.5-22-5.6-33.5-5.3c0,0,6.8-17.6,9.4-22.8c2.5-5.2,7.9-13.9,0.4-8.4l-3.4,4.8
				c-3,3.1-9.5,9.5-16.1,12.6c-8.2,3.8-10,2-11.2,1c-1.1-1.2-4.6-6.6-0.8-11.3c3.7-4.6-1.9-3.7-1.9-3.7c-1.6,0.1-5.4,9.1-3.1,15.1
				c2.3,6,9.1,5.5,13.7,3.2c4.7-2.3,14.9-8.6,16-9.7c0.2-0.1,0.4-0.4,0.6-0.4c-0.8,3.1-2.4,7.4-3,9.5c-1.2,3.1-4.3,10.2-4.3,10.2
				s-16.2,1-26.8,6.4c-10.6,5.4-24.2,12.8-29.8,22.6c-5.5,9.7-1.1,15.5,9.4,15.8c10.4,0.4,30.5-15.6,38.1-24.6
				c7.6-8.9,11.4-16.7,11.4-16.7s5-0.5,12.8,0.2c7.9,0.7,20.5,3,21.4,3.5C498.5,321.7,499.7,319.8,498.5,319.3L498.5,319.3z
				 M441.8,341.2c-13.3,12.2-25.6,12.8-28.8,11.6c-3.2-1.2-5.2-2.3-1.3-8.6c3.7-6.5,17.9-16.6,27.2-21.2c9.4-4.7,19.7-5.5,20.1-5.2
				C459.6,318.3,455.2,329,441.8,341.2L441.8,341.2z"/>
			<path class="st0" d="M294.4,261.2c2.3-2.2,4.1-4.3,2.2-6.2c-1.8-1.9-2.6-1.9-3.2-1.9s-1.8,0.4-3.7,3.9s-1.8,5.7-1,6.4
				S292.1,263.4,294.4,261.2L294.4,261.2z"/>
			<path class="st0" d="M110.2,300.1c0.1-0.7,0.2-2.2,0.2-2.9c-2.2,1.2-4.6,2.5-8.7,4.2c-4.2,1.6-11.1,2.8-15-1.6
				c-3.8-4.6-6.8-9.7-10.8-10.2c-4.1-0.5-15.7,10-18.7,11.6c-5,2.9-6.2-3.2-3.9-7c2.3-3.7,4.6-5.9,4.6-5.9c1-0.2,19.9-9.9,26-14.6
				c6.2-4.7,19.1-14.9,19-21.8c0-7-8.2-6.6-17-1.1c-8.8,5.4-12.9,6.7-34.4,40.2c-2.2,3.3-3.5,8.1-3.5,10.3c0,4.5,3.5,5,6.2,4.7
				c4.3-0.2,18.6-13.8,21.9-13.1c3.4,0.6,6.2,10.2,13.5,12.3c7.1,2,10.9,0.2,20.6-5C110.2,300.2,110.2,300.2,110.2,300.1
				L110.2,300.1z M77.8,261.3c10.6-10.2,19.4-12.5,20.8-11.3c1.5,1.2,3.5,2.8-6.1,13c-9.5,10.3-29.7,20.2-31.3,20.8
				C61.3,279.8,67.2,271.6,77.8,261.3L77.8,261.3z"/>
			<path class="st0" d="M187.7,292.3c-3.5,5.1-15.2,10.8-23.5,10.8c-11.6,0-14.2-6.2-10.6-11.7c3.6-5.5,11-8.5,13.5-9.2
				c2.5-0.8,7.9,0,8.9,0s0.8-3-1.4-4.6c-2.3-1.6-12.8,1.5-21.3,10.2c-8.4,8.7-5.3,18.5,10.6,18.5c14.5,0,23.5-10.8,23.8-11.2
				C187.9,294.8,187.6,292.8,187.7,292.3L187.7,292.3z"/>
			<path class="st0" d="M432.1,297c-7.7,3.8-17.4,6.1-22.2,5.4c-4.9-0.8-10.9-4.9-9.5-10c0.2-0.8,15-11.4,20.8-17.3
				c5.6-5.9,14.2-16.4,13.4-21.1c-0.7-4.7-6.7-4.2-11-1.3c-4.3,2.9-14.8,10.7-24,26.3c-2.2,3.7-5.4,10.3-5.2,16.1
				c-2.7,1.9-8.5,5.9-13.4,5.7c-6.4-0.2-9.2-5.4-8.6-6.2c0.8-0.8,4.8-4.9,4.2-5.4c-0.5-0.5-3.1-1.7-3.5-1.4c-0.4,0.1-4.9,6-7.1,7.8
				c-2.3,1.8-6.4,4.7-10.2,6.1c-3.7,1.3-6.7,1.6-7.6-0.5c-1.1-2.5,5.8-8.8,8-10.7c2.3-1.8,7.8-6.2,10.3-6.8c2.6-0.6,4.6-0.6,5.8,1
				c0.6,0.8,1,1.2,1,1.2c0.4,0,3.2-2.8,3-3.7c-0.1-1.1-3.6-3.6-6.4-3.4c-2.8,0.1-10.6,2.5-19.4,10.9c-2.3,2.2-4.1,4.2-5.4,5.9
				c-0.4,0.2-0.7,0.4-1.1,0.6c-3,1.7-15.4,7.3-25.8,6.5c-10.6-1-8-10.2-7.2-13.4c0.8-3.3,7.3-14.1,7.3-14.1s28,0.6,29.6-0.2
				c1.6-0.7,2.6-2-1.8-2.2s-18.1-0.2-18.1-0.2h-7.8c5.2-7.2,8.9-9.4,10.9-9.9c2-0.5,3.9-2.3,2.4-4.1c-0.4-0.4-0.9-0.7-1.5-1
				c-1.6,0.1-4.1,1.2-7.9,4.3c-7.8,6.4-10.7,11.2-10.7,11.2s-12.6-0.6-13.3-0.2c-0.6,0.4-3.5,4.4-1.7,4.3c1.8-0.1,13.3-1.3,13.3-1.3
				s-5.4,9.4-6.6,14c-0.2,0.9-0.5,2.6-0.5,4.6c0,0.3-7.1,3.9-8.9,4.7c-1.7,0.8-3.6,1.8-5.4,2.3c-1.8,0.6-3.7,1.2-7.8,1.1
				c-1.8,0-3-0.6-4.1-1.3c-1.1-0.7-1.8-1.7-2-3c-0.2-1.3,0.1-3,1.3-5.2c1.1-2,2-3.6,3-4.8c0.8-1.2,1.4-2.2,1.8-3
				c0.4-0.8,0.4-1.7,0.1-2.4c-0.2-0.7-1.1-1.6-2.3-2.6c-0.2-0.1-0.7,0.1-1.3,0.8c-0.6,0.8-1.3,1.8-2.2,3.1c-0.8,1.3-1.7,2.8-2.5,4.4
				c-0.7,1.5-1.4,2.9-1.9,4.3c-0.5,1-1.5,1.7-6.5,4.2c-7.7,3.8-17.4,6.1-22.2,5.4c-4.9-0.8-10.9-4.9-9.5-10
				c0.2-0.8,15-11.4,20.8-17.3c5.6-5.9,14.2-16.4,13.4-21.1c-0.7-4.7-6.7-4.2-11-1.3c-4.3,2.9-14.8,10.7-24,26.3
				c-2.1,3.5-5.1,9.8-5.2,15.3l0,0c0,0.9,0.2,1.9,0.3,2.8c0.8,3.8,3.4,7,9.4,8.2c14.4,3.1,29.9-6.5,33.2-8.7
				c-0.1,0.5-0.2,0.9-0.4,1.4c-0.2,1.4-0.2,2.6,0,3.5c0.4,1.2,1.5,3.5,8.2,4.2c6.6,0.7,16-4.4,18-5.3c1.9-1,3.7-1.8,5.2-2.5
				s2.2-1.2,2.6-1.4c0.4,4.1,2.3,8.4,7.8,9.2c7.7,1.1,22-2.5,30.1-6.4c-1.2,2.6-0.9,4.4,0.3,5.4c2.2,1.9,7,2.9,15.4-1.4
				c6.1-3.1,9-6.8,9.4-6.8c0.5,0,3.2,3.5,6,5.2c3.1,1.9,6.8,2.4,12.4,0.5c3.7-1.2,6.9-3.4,8.7-4.8c0.8,3.7,3.5,6.8,9.3,8
				c15.7,3.4,32.9-8.4,33.8-9.1c0.6-0.5,2.4-2.9-0.1-2.3C436.3,294.9,434.3,296,432.1,297L432.1,297z M407.7,273.9
				c10-12.8,18.7-20.2,21-18.8c2.4,1.6,1.6,7.1-8,17.5c-9.7,10.4-19.4,15.6-20.2,15.1C400.5,287.7,400.2,283.6,407.7,273.9z
				 M241.7,273.9c10-12.8,18.7-20.2,21-18.8c2.4,1.6,1.6,7.1-8,17.5c-9.7,10.4-19.4,15.6-20.2,15.1
				C234.5,287.7,234.1,283.6,241.7,273.9z"/>
			<path class="st0" d="M229.7,289.2c-3.2,2.9-14.6,3.7-17.4-0.8c-0.4-1.5-1.5-6.5-5.7-9.1c-4.2-2.6-6.8-0.3-6.9,1.6
				c0,0-5.9,0.6-11,8.3c-1.6,2.4-2.6,6-1.7,9.9c0.9,3.9,3.9,7.6,12.4,7s12.4-13.2,12.2-14.7c2,2.6,12.7,4.5,18.6,0.5
				C230,291.2,229.9,289.9,229.7,289.2L229.7,289.2z M197.9,302.6c-11,0.1-6.9-11.6-3.1-14.9c2.5-2.3,6.3-4.6,6.3-4.6
				s4.6,5.5,8.4,7.2C209.9,290.5,206.6,302.6,197.9,302.6L197.9,302.6z"/>
			<path class="st0" d="M154.6,286.5c-3,1.9-6.3,3.9-11.1,4.4c-4.9,0.5-8.2-2.4-8.2-2.4s-1.5-6.5-5.7-9.2c-4.2-2.6-6.8-0.3-6.9,1.6
				c0,0-14.9,6.6-13,17.6c1.1,5.3,5.6,8.4,13.5,7.2s11.2-12.7,11.4-14.2c5.8,3.8,14.4,1.1,16.2-0.6
				C150.7,290.7,154.6,287.2,154.6,286.5L154.6,286.5z M121,302.6c-11,0.1-6.9-11.9-3.1-15.2c2.5-2.3,6.3-4.3,6.3-4.3
				s4.6,5.5,8.4,7.2C133,290.5,129.6,302.6,121,302.6L121,302.6z"/>
			<path class="st0" d="M53.9,291.7c-2.4,2.2-29,25-43.3,10.1c-14.3-14.9-9-35.6-6.2-42.3c9.7-20.3,25-32.8,44.9-29.8
				c19.9,3,6.3,24.9,2.3,30.8c-8.5,11.9-18,11-20.8,10.5c-2.3-0.5-4-1.5-5.2-3s-1.5-3.7-0.8-6.3c1.5-4.4,3.8-5,4.4-5
				s1.1,0.2,1.4,0.6c0.4,0.4,0.4,1.1,0.1,2c-0.2,0.4-0.4,0.8-0.6,1.4c-0.2,0.6-0.4,1.1-0.5,1.7c-0.4,1.9-0.6,5.9,2,6.6
				c7.2,0.5,14-8.6,15.4-10.6c1.5-2,15-19.3,2.3-25.6c-4.2-1.7-26.5,0.5-38.8,25.4c-9.9,20.1-3.1,35.7,2.7,41
				c13.5,9.3,32.1-1.9,39.8-10.6C55.2,286.1,56.3,289.5,53.9,291.7L53.9,291.7z"/>
		</g>
		<g>
			<path class="st0" d="M194.7,162.8c3.5-3.8,7.4-7.2,11.7-10.1c8.6-5.8,18.6-9.6,29-11c5.2-0.7,10.5-0.8,15.7-0.4
				c5.2,0.4,10.4,1.5,15.4,3c10.1,3,19.3,8,27.8,13.9l0,0c0.8,0.6,1.1,1.6,0.8,2.5c-1.2,4-3.5,7.5-6.2,10.3
				c-2.7,2.9-5.9,5.2-9.2,7.2c-6.7,4-14.1,6.4-21.6,7.5c-7.5,1.1-15.3,0.8-22.6-1.5c-7.3-2.2-13.9-6.5-18.4-12.5
				c5.1,5.5,11.8,9,18.9,10.6c7.1,1.6,14.5,1.5,21.6,0.2c7.1-1.3,14-4,20-7.7c6-3.7,11.2-9,13.2-15.4l0.9,2.5
				c-4.2-2.8-8.4-5.5-12.8-7.6c-4.4-2.2-9-4.2-13.7-5.6c-4.7-1.5-9.6-2.5-14.5-3.1c-4.9-0.5-9.9-0.5-14.8,0
				c-9.8,1-19.5,4.2-28.1,9.2c-4.3,2.6-8.4,5.5-12,9C194.8,164.8,194,163.8,194.7,162.8L194.7,162.8z"/>
			<path class="st0" d="M305.4,177.2c-4.5,5.8-10.1,10.7-16.1,14.9c-4.1,2.9-8.5,5.4-13.2,7.4c-4.7,2-9.5,3.5-14.6,4.4
				c-5,0.9-10.2,1.2-15.3,0.9c-5.1-0.4-10.2-1.3-15.1-2.8c-4.9-1.4-9.6-3.5-14.1-5.9c-4.5-2.4-8.7-5.3-12.7-8.3l0,0
				c-0.8-0.6-1-1.5-0.8-2.4c2-6.3,6.5-11.2,11.6-14.7c5.1-3.5,10.9-5.8,16.7-7.2c5.9-1.4,11.9-2,17.9-1.8c6,0.2,11.9,1.3,17.4,3.6
				c-5.7-1.6-11.6-2.1-17.4-1.9c-5.8,0.3-11.6,1.2-17.1,2.9c-5.5,1.7-10.8,4.1-15.3,7.4c-4.5,3.3-8.2,7.7-9.7,12.8l-0.8-2.4
				c7.8,5.7,16.4,10.5,25.5,13.3c9.1,2.8,18.9,3.7,28.3,2.3c9.5-1.4,18.7-5,27-10c6-3.7,11.7-8.3,16.6-13.5
				C305,175.9,305.9,176.6,305.4,177.2L305.4,177.2z"/>
		</g>
		<g>
			<path class="st0" d="M29,339.6V350h-1.1v-10.4H29z"/>
			<path class="st0" d="M39.3,339.6h1.1V350h-0.9l-6.5-8.6v8.6h-1.1v-10.4H33l6.4,8.4V339.6z"/>
			<path class="st0" d="M51.6,350.2c-3.1,0-5.1-2.5-5.1-5.4s2.1-5.4,5.2-5.4s5.1,2.5,5.1,5.4S54.6,350.2,51.6,350.2z M51.6,340.5
				c-2.3,0-4,1.9-4,4.3c0,2.4,1.7,4.3,4,4.3c2.3,0,4-1.9,4-4.3S53.9,340.5,51.6,340.5z"/>
			<path class="st0" d="M63.7,350.2c-3.2,0-5.1-2.4-5.1-5.4c0-3,2-5.4,5.1-5.4c1.7,0,2.8,0.5,3.8,1.4l-0.7,0.9
				c-0.8-0.7-1.6-1.2-3.1-1.2c-2.2,0-3.8,2-3.8,4.3c0,2.5,1.6,4.3,4,4.3c1.2,0,2.2-0.5,2.9-1v-2.6h-3.1v-1.1h4.2v4.2
				C66.9,349.5,65.5,350.2,63.7,350.2L63.7,350.2z"/>
			<path class="st0" d="M77.7,339.6h1.1V350h-0.9l-6.5-8.6v8.6h-1.1v-10.4h1.1l6.4,8.4C77.7,347.9,77.7,339.6,77.7,339.6z"/>
			<path class="st0" d="M82.8,339.6V350h-1.1v-10.4H82.8z"/>
			<path class="st0" d="M96.3,350l-2.9-4h-2.9v4h-1.1v-10.4h4.3c2.2,0,3.7,1.2,3.7,3.1c0,1.7-1.2,2.8-2.8,3.1l3.1,4.3H96.3L96.3,350
				z M93.6,340.7h-3.1v4.2h3.1c1.5,0,2.6-0.8,2.6-2.2C96.2,341.4,95.3,340.7,93.6,340.7z"/>
			<path class="st0" d="M100.9,339.6V350h-1.1v-10.4H100.9z"/>
			<path class="st0" d="M108.4,350.2c-2.9,0-5.1-2.4-5.1-5.4c0-3,2.1-5.4,5.1-5.4c1.8,0,2.9,0.7,3.9,1.7l-0.8,0.9
				c-0.8-0.8-1.8-1.4-3.2-1.4c-2.2,0-3.9,1.9-3.9,4.3c0,2.4,1.7,4.3,3.9,4.3c1.4,0,2.3-0.6,3.3-1.5l0.8,0.8
				C111.4,349.5,110.3,350.2,108.4,350.2L108.4,350.2z"/>
			<path class="st0" d="M121.7,340.7h-6.2v3.6h5.5v1.1h-5.5v3.6h6.2v1.1h-7.4v-10.4h7.3V340.7L121.7,340.7z"/>
			<path class="st0" d="M127.8,350h-1.2v-9.3h-3.4v-1.1h7.9v1.1h-3.4C127.8,340.7,127.8,350,127.8,350z"/>
			<path class="st0" d="M137.1,350h-1.2v-9.3h-3.4v-1.1h7.9v1.1h-3.4C137.1,340.7,137.1,350,137.1,350z"/>
			<path class="st0" d="M150.6,350h-1.2l-1.2-2.8h-5.5l-1.2,2.8h-1.2l4.6-10.5h1.1L150.6,350L150.6,350z M145.5,340.9l-2.3,5.3h4.6
				C147.8,346.2,145.5,340.9,145.5,340.9z"/>
			<path class="st0" d="M152.7,350h-0.5v-1.6h1.3v1.3c0,1.2-0.5,1.8-1.6,2l-0.2-0.5C152.5,351,152.8,350.7,152.7,350L152.7,350z"/>
			<path class="st0" d="M159.6,339.6h1.1v9.3h5.7v1.1h-6.8V339.6z"/>
			<path class="st0" d="M177.9,350h-1.2l-1.2-2.8H170l-1.2,2.8h-1.2l4.6-10.5h1.1L177.9,350z M172.7,340.9l-2.3,5.3h4.6L172.7,340.9
				z"/>
			<path class="st0" d="M190.9,339.6h1.1V350h-0.9l-6.5-8.6v8.6h-1.1v-10.4h1.1l6.4,8.4V339.6z"/>
			<path class="st0" d="M199.4,350.2c-3.1,0-5.1-2.5-5.1-5.4s2.1-5.4,5.2-5.4c3.1,0,5.1,2.5,5.1,5.4S202.5,350.2,199.4,350.2z
				 M199.4,340.5c-2.3,0-4,1.9-4,4.3c0,2.4,1.7,4.3,4,4.3s4-1.9,4-4.3S201.8,340.5,199.4,340.5z"/>
			<path class="st0" d="M210.5,344.2c2.3,0.5,3.3,1.4,3.3,3c0,1.8-1.4,3-3.5,3c-1.6,0-2.9-0.6-4.1-1.7l0.7-0.9
				c1.1,1,2.1,1.5,3.5,1.5s2.3-0.7,2.3-1.8c0-1-0.5-1.5-2.6-2c-2.3-0.5-3.4-1.3-3.4-3s1.4-2.9,3.3-2.9c1.5,0,2.5,0.4,3.6,1.3
				l-0.7,0.9c-0.9-0.8-1.9-1.1-2.9-1.1c-1.3,0-2.2,0.7-2.2,1.7S208.3,343.7,210.5,344.2L210.5,344.2z"/>
			<path class="st0" d="M219.6,350h-1.2v-9.3h-3.4v-1.1h7.9v1.1h-3.4L219.6,350L219.6,350z"/>
			<path class="st0" d="M232,350l-2.9-4h-2.9v4h-1.1v-10.4h4.3c2.2,0,3.7,1.2,3.7,3.1c0,1.7-1.2,2.8-2.8,3.1l3.1,4.3H232L232,350z
				 M229.3,340.7h-3.1v4.2h3.1c1.5,0,2.6-0.8,2.6-2.2C231.9,341.4,231,340.7,229.3,340.7z"/>
			<path class="st0" d="M244.8,350h-1.2l-1.2-2.8h-5.5l-1.2,2.8h-1.2l4.6-10.5h1.1L244.8,350z M239.7,340.9l-2.3,5.3h4.6
				L239.7,340.9z"/>
			<path class="st0" d="M254,346.3h-2.5v3.7h-1.1v-10.4h3.8c2.3,0,3.8,1.2,3.8,3.3C258,345.2,256.1,346.3,254,346.3L254,346.3z
				 M254.1,340.7h-2.6v4.6h2.5c1.7,0,2.8-0.9,2.8-2.3C256.8,341.4,255.7,340.7,254.1,340.7L254.1,340.7z"/>
			<path class="st0" d="M268.4,350h-1.2l-1.2-2.8h-5.5l-1.2,2.8h-1.2l4.6-10.5h1.1L268.4,350z M263.2,340.9l-2.3,5.3h4.6
				L263.2,340.9z"/>
			<path class="st0" d="M273.7,344.2c2.3,0.5,3.3,1.4,3.3,3c0,1.8-1.4,3-3.5,3c-1.6,0-2.9-0.6-4.1-1.7l0.7-0.9
				c1.1,1,2.1,1.5,3.5,1.5s2.3-0.7,2.3-1.8c0-1-0.5-1.5-2.6-2c-2.3-0.5-3.4-1.3-3.4-3s1.4-2.9,3.3-2.9c1.5,0,2.5,0.4,3.6,1.3
				l-0.7,0.9c-0.9-0.8-1.9-1.1-2.9-1.1c-1.3,0-2.2,0.7-2.2,1.7S271.4,343.7,273.7,344.2L273.7,344.2z"/>
			<path class="st0" d="M282.7,344.2c2.3,0.5,3.3,1.4,3.3,3c0,1.8-1.4,3-3.5,3c-1.6,0-2.9-0.6-4.1-1.7l0.7-0.9
				c1.1,1,2.1,1.5,3.5,1.5s2.3-0.7,2.3-1.8c0-1-0.5-1.5-2.6-2c-2.3-0.5-3.4-1.3-3.4-3s1.4-2.9,3.3-2.9c1.5,0,2.5,0.4,3.6,1.3
				l-0.7,0.9c-0.9-0.8-1.9-1.1-2.9-1.1c-1.3,0-2.2,0.7-2.2,1.7S280.4,343.7,282.7,344.2L282.7,344.2z"/>
			<path class="st0" d="M289.4,339.6V350h-1.1v-10.4H289.4z"/>
			<path class="st0" d="M297,350.2c-3.1,0-5.1-2.5-5.1-5.4s2.1-5.4,5.2-5.4c3.1,0,5.1,2.5,5.1,5.4S300.1,350.2,297,350.2z
				 M297,340.5c-2.3,0-4,1.9-4,4.3c0,2.4,1.7,4.3,4,4.3c2.3,0,4-1.9,4-4.3S299.3,340.5,297,340.5z"/>
			<path class="st0" d="M311.9,339.6h1.1V350h-0.9l-6.5-8.6v8.6h-1.1v-10.4h1.1l6.4,8.4L311.9,339.6L311.9,339.6z"/>
			<path class="st0" d="M323.1,340.7h-6.2v3.6h5.5v1.1h-5.5v3.6h6.2v1.1h-7.4v-10.4h7.3V340.7L323.1,340.7z"/>
			<path class="st0" d="M334.9,350v-1.6c-0.6,0.9-1.5,1.7-2.9,1.7c-1.8,0-3.6-1.5-3.6-4c0-2.5,1.8-4,3.6-4c1.4,0,2.3,0.8,2.9,1.6
				v-4.7h1.1V350H334.9z M332.2,343.2c-1.4,0-2.6,1.1-2.6,3s1.2,3,2.6,3s2.7-1.2,2.7-3S333.6,343.2,332.2,343.2z"/>
			<path class="st0" d="M338.8,343.8l-0.3-0.9c0.8-0.4,1.6-0.6,2.7-0.6c2,0,3.2,1.1,3.2,3.1v4.7h-1.1v-1.2c-0.5,0.7-1.4,1.3-2.7,1.3
				c-1.4,0-2.8-0.8-2.8-2.4c0-1.6,1.3-2.5,3.2-2.5c1,0,1.6,0.1,2.3,0.3v-0.3c0-1.4-0.8-2.1-2.2-2.1
				C340.2,343.2,339.5,343.5,338.8,343.8L338.8,343.8z M338.9,347.7c0,1,0.9,1.6,1.9,1.6c1.4,0,2.5-0.9,2.5-2.1v-0.8
				c-0.5-0.2-1.3-0.3-2.2-0.3C339.7,346.1,338.9,346.7,338.9,347.7z"/>
			<path class="st0" d="M346.7,350v-10.9h1.1V350H346.7z"/>
			<path class="st0" d="M355.6,339.5h0.8V350h-1.1v-9.3l-1.9,0.6l-0.3-1L355.6,339.5L355.6,339.5z"/>
			<path class="st0" d="M362.1,350.2c-1.3,0-2.3-0.6-3.1-1.3l0.7-0.9c0.8,0.8,1.6,1.1,2.5,1.1c1.8,0,3.1-1.9,3-4.6
				c-0.5,0.9-1.5,1.7-2.9,1.7c-2.1,0-3.5-1.4-3.5-3.2c0-2,1.5-3.6,3.6-3.6c1.2,0,2,0.4,2.7,1.1c0.8,0.8,1.3,2,1.3,4
				C366.3,347.8,364.6,350.2,362.1,350.2L362.1,350.2z M362.3,340.4c-1.5,0-2.4,1.2-2.4,2.5s1,2.3,2.5,2.3c1.6,0,2.5-1.2,2.5-2.4
				C364.9,341.5,363.8,340.4,362.3,340.4L362.3,340.4z"/>
			<path class="st0" d="M367.7,339.6h6.9v0.9L370,350h-1.3l4.6-9.4h-5.6L367.7,339.6L367.7,339.6z"/>
			<path class="st0" d="M380.1,350.2c-2.6,0-4.3-2.4-4.3-5.4c0-2.9,1.7-5.4,4.3-5.4s4.3,2.4,4.3,5.4S382.7,350.2,380.1,350.2
				L380.1,350.2z M380.1,340.5c-1.9,0-3.1,2-3.1,4.3c0,2.3,1.2,4.3,3.1,4.3s3.1-2,3.1-4.3S382,340.5,380.1,340.5L380.1,340.5z"/>
		</g>
	</g>
</g>
</svg>
