<?xml version="1.0" encoding="utf-8"?>
<!-- Generator: Adobe Illustrator 26.5.0, SVG Export Plug-In . SVG Version: 6.00 Build 0)  -->
<svg version="1.1" id="Layer_2_00000128468043444356579520000005406005930671190408_"
	 xmlns="http://www.w3.org/2000/svg" xmlns:xlink="http://www.w3.org/1999/xlink" x="0px" y="0px" viewBox="0 0 500 500"
	 style="enable-background:new 0 0 500 500;" xml:space="preserve">
<style type="text/css">
	.st0{fill:#181818;}
</style>
<g id="Layer_1-2">
	<g>
		<g>
			<polygon class="st0" points="163.5,220.8 65.8,220.1 44.4,281.6 3.4,281.6 53.5,137.3 189.9,137.3 177.6,173.7 82,173.7 
				74.6,196.7 170.9,196.7 			"/>
			<polygon class="st0" points="235.4,172.6 228,196.5 323.3,196.5 295.2,281.6 157.2,281.6 169.7,245.1 266.7,245.1 274.6,220.7 
				178,220.7 194.1,173.7 206.1,137.3 343.1,137.3 331.2,172.6 			"/>
			<polygon class="st0" points="496.6,137.3 484.6,173.5 436.1,173.5 398.5,281.6 357.2,281.6 395.5,172.6 347.7,172.6 359.4,137.3 
							"/>
		</g>
		<g>
			<path class="st0" d="M1.7,361.9v-48.4h27.2c4.2,0,7.6,0.8,10.3,2.6c2.7,1.7,4.7,4,6,6.8c1.3,2.9,2,6,2,9.5s-0.8,6.7-2.3,9.5
				c-1.5,2.8-3.7,5.1-6.5,6.7c-2.8,1.7-6.1,2.5-9.9,2.5h-8.7v10.8L1.7,361.9L1.7,361.9z M19.9,336.9h4.4c1.4,0,2.6-0.4,3.3-1.2
				c0.7-0.8,1.1-1.9,1.1-3.3c0-3.1-1.4-4.7-4.1-4.7h-4.7L19.9,336.9L19.9,336.9z"/>
			<path class="st0" d="M51,361.9v-48.4h27.2c4.2,0,7.6,0.8,10.3,2.4s4.7,3.7,6,6.5c1.3,2.7,2,5.8,2,9.3c0,3.3-0.8,6.1-2.5,8.6
				c-1.7,2.5-3.7,4.5-6,6.1c0.6,0.4,1,0.7,1.3,1.2s0.6,0.9,0.7,1.3l5.7,13.1H76.8L72,351.2c-0.2-0.6-0.5-1-0.8-1.2
				c-0.3-0.2-0.7-0.3-1.3-0.3h-0.7v12.3H51L51,361.9z M69.2,335.4h4.4c3,0,4.4-1.3,4.4-3.8c0-1.4-0.3-2.4-1-3
				c-0.7-0.6-1.7-0.9-3.1-0.9h-4.7L69.2,335.4L69.2,335.4z"/>
			<path class="st0" d="M125.8,362.7c-5.5,0-10.1-0.8-14-2.4s-6.8-4.3-8.9-7.9c-2.1-3.7-3.1-8.5-3.1-14.6c0-6.1,1-11,3.1-14.6
				c2.1-3.6,5-6.3,8.9-7.9c3.9-1.6,8.5-2.4,14-2.4s10.1,0.8,14,2.4c3.9,1.6,6.8,4.3,8.9,7.9c2.1,3.6,3.1,8.5,3.1,14.6
				s-1,10.9-3.1,14.6c-2.1,3.7-5,6.3-8.9,7.9C135.9,361.9,131.3,362.7,125.8,362.7z M125.8,347.3c2.7,0,4.5-0.7,5.7-2.1
				c1.1-1.4,1.7-3.9,1.7-7.4s-0.6-6-1.7-7.4c-1.1-1.4-3-2.1-5.7-2.1c-2.7,0-4.5,0.7-5.7,2.1c-1.1,1.4-1.7,3.9-1.7,7.4
				c0,3.5,0.6,6,1.7,7.4C121.3,346.6,123.1,347.3,125.8,347.3z"/>
			<path class="st0" d="M166.6,361.9v-35.3h-12.3v-13.1h42.8v13.1h-12.3v35.3H166.6L166.6,361.9z"/>
			<path class="st0" d="M202,361.9v-48.4h38.7v13.1h-20.5v4.4h17.7v13.5h-17.7v4.4h20.5v13.1L202,361.9L202,361.9z"/>
			<path class="st0" d="M245.9,361.9v-48.4h18.2v48.4H245.9z"/>
			<path class="st0" d="M270.8,361.9v-48.4h15.2l13.5,18.9v-18.9h18.2v48.4h-15.3L289,343v18.9H270.8L270.8,361.9z"/>
			<g>
				<path class="st0" d="M344.4,361.9v-48.4h28.7c5,0,8.8,1.2,11.5,3.5c2.7,2.4,4.1,5.7,4.1,10.2c0,2.4-0.4,4.5-1.2,6.2
					s-1.9,3.1-3.3,4.1c1.9,0.9,3.4,2.1,4.5,3.5c1.1,1.4,1.7,3.5,1.7,6.4c0,4.6-1.5,8.2-4.5,10.8c-3,2.6-7.2,3.9-12.5,3.9H344.4z
					 M361.5,332h6.8c2.4,0,3.6-1.1,3.6-3.2c0-2-1.2-3-3.6-3h-6.8V332z M361.5,349.6h6.8c2.4,0,3.6-1.1,3.6-3.2c0-2-1.2-3-3.6-3h-6.8
					V349.6z"/>
				<path class="st0" d="M391.2,361.9l18.7-48.4h18.9l18.7,48.4h-19l-3.5-9h-11.4l-3.5,9H391.2L391.2,361.9z M415.6,340.5h7.4
					l-3.7-9.2L415.6,340.5L415.6,340.5z"/>
				<path class="st0" d="M452.7,361.9v-48.4h27.2c4.2,0,7.6,0.8,10.3,2.4c2.7,1.6,4.7,3.7,6.1,6.5c1.3,2.7,2,5.8,2,9.3
					c0,3.3-0.8,6.1-2.5,8.6c-1.7,2.5-3.7,4.5-6.1,6.1c0.6,0.4,1,0.7,1.3,1.2c0.3,0.4,0.6,0.9,0.8,1.3l5.7,13.2h-19l-4.7-10.8
					c-0.2-0.6-0.5-1-0.8-1.2s-0.7-0.3-1.3-0.3h-0.8v12.3L452.7,361.9L452.7,361.9z M470.9,335.4h4.4c3,0,4.4-1.3,4.4-3.8
					c0-1.4-0.3-2.4-1-3c-0.7-0.6-1.7-0.9-3.1-0.9h-4.7L470.9,335.4L470.9,335.4z"/>
			</g>
		</g>
	</g>
</g>
</svg>
