<?xml version="1.0" encoding="UTF-8"?>
<svg id="Layer_2" data-name="Layer 2" xmlns="http://www.w3.org/2000/svg" viewBox="0 0 155.34 113.91">
  <defs>
    <style>
      .cls-1 {
        fill: #01805d;
      }
    </style>
  </defs>
  <g id="Layer_1-2" data-name="Layer 1">
    <g id="Gmail">
      <path id="Path_107" data-name="Path 107" class="cls-1" d="M134.63,113.91c-1.43,0-2.59-1.16-2.59-2.59V44.01c0-1.43,1.16-2.59,2.59-2.59,1.43,0,2.59,1.16,2.59,2.59V111.32c0,1.43-1.16,2.59-2.59,2.59Z"/>
      <path id="Path_108" data-name="Path 108" class="cls-1" d="M20.71,113.91c-1.43,0-2.59-1.16-2.59-2.59V44.01c0-1.43,1.16-2.59,2.59-2.59,1.43,0,2.59,1.16,2.59,2.59V111.32c0,1.43-1.16,2.59-2.59,2.59Z"/>
      <g id="Group_23" data-name="Group 23">
        <path id="Path_109" data-name="Path 109" class="cls-1" d="M77.67,48.84c-.52,0-1.03-.16-1.46-.45L13.22,5.29c-1.2-.78-1.54-2.38-.76-3.58,.78-1.2,2.38-1.54,3.58-.76,.03,.02,.07,.04,.1,.07l61.52,42.1L124.06,11.38c1.18-.81,2.79-.51,3.6,.66s.51,2.79-.66,3.6c0,0,0,0-.01,0l-47.85,32.73c-.43,.3-.94,.46-1.47,.46Z"/>
      </g>
      <g id="Group_24" data-name="Group 24">
        <path id="Path_110" data-name="Path 110" class="cls-1" d="M142.39,113.91H12.95C5.8,113.9,.01,108.11,0,100.97V12.95C0,11.52,1.16,10.36,2.59,10.36s2.59,1.16,2.59,2.59V100.97c0,4.29,3.48,7.76,7.77,7.77H142.39c4.29,0,7.76-3.48,7.77-7.77V12.95c0-4.29-3.48-7.76-7.77-7.77-1.43,0-2.59-1.16-2.59-2.59S140.96,0,142.39,0c7.15,0,12.94,5.8,12.95,12.95V100.97c-.01,7.14-5.8,12.93-12.95,12.94Z"/>
      </g>
      <g id="Group_25" data-name="Group 25">
        <path id="Path_111" data-name="Path 111" class="cls-1" d="M77.67,72.49c-.53,0-1.04-.16-1.47-.46L5.52,23.29C-.29,19.28-1.75,11.33,2.26,5.52,4.65,2.06,8.58,0,12.78,0H142.56c7.06,0,12.78,5.72,12.78,12.77,0,4.2-2.06,8.13-5.52,10.52l-70.68,48.75c-.43,.3-.95,.46-1.47,.46ZM12.78,5.18c-4.2,0-7.6,3.41-7.59,7.61,0,2.49,1.23,4.82,3.28,6.24l69.21,47.73L146.88,19.03c3.45-2.39,4.32-7.12,1.93-10.57-1.42-2.05-3.75-3.27-6.24-3.28H12.78Z"/>
      </g>
    </g>
  </g>
</svg>