<?xml version="1.0" encoding="UTF-8"?>
<svg id="Layer_2" data-name="Layer 2" xmlns="http://www.w3.org/2000/svg" viewBox="0 0 127.51 127.5">
  <defs>
    <style>
      .cls-1 {
        fill: #01805d;
      }
    </style>
  </defs>
  <g id="Layer_1-2" data-name="Layer 1">
    <g id="Whatsapp">
      <path id="Path_105" data-name="Path 105" class="cls-1" d="M63.76,126.59c-11.95,.02-23.66-3.4-33.73-9.83l-22.41,7.16c-1.1,.35-2.28-.25-2.63-1.35-.14-.43-.13-.89,0-1.31l7.23-21.56C-5.41,74.49-2.15,40.19,19.92,18.75c.83-.81,2.15-.79,2.96,.04,.81,.83,.79,2.15-.04,2.96C1.96,42.03-.84,74.57,16.26,98.12c.4,.55,.51,1.26,.29,1.9l-6.25,18.65,19.41-6.2c.61-.19,1.27-.1,1.8,.25,27.05,17.81,63.42,10.32,81.23-16.73,17.81-27.05,10.32-63.42-16.73-81.23-9.57-6.3-20.78-9.66-32.24-9.66h-.01c-8.95-.03-17.79,2.02-25.82,5.99-1.03,.52-2.29,.11-2.81-.93-.52-1.03-.11-2.29,.93-2.81,.01,0,.02-.01,.04-.02C44.68,3.08,54.14,.88,63.73,.91c34.71,0,62.85,28.12,62.86,62.83,0,34.71-28.12,62.85-62.83,62.86h0Z"/>
      <path id="Path_105_-_Outline" data-name="Path 105 - Outline" class="cls-1" d="M63.76,127.5c-11.98,.01-23.72-3.37-33.85-9.75l-22,7.03c-.3,.09-.6,.14-.91,.14-.8,0-1.57-.32-2.14-.89h0c-.79-.81-1.06-1.99-.7-3.06l7.08-21.12C-6.38,74.28-2.98,39.74,19.29,18.1c1.19-1.15,3.08-1.13,4.24,.05h0c1.15,1.19,1.13,3.09-.06,4.24,0,0,0,0,0,0C2.92,42.37,.15,74.4,16.99,97.59c.57,.79,.73,1.8,.42,2.73l-5.68,16.95,17.7-5.66c.3-.1,.6-.15,.92-.14,.59,0,1.17,.18,1.66,.5h0c26.63,17.53,62.44,10.15,79.97-16.48,17.53-26.63,10.15-62.44-16.48-79.97-9.42-6.2-20.45-9.51-31.72-9.51h-.01c-8.82-.02-17.52,2-25.42,5.9h0c-1.49,.73-3.29,.12-4.02-1.37-.73-1.49-.12-3.29,1.37-4.02C44.4,2.21,54-.02,63.73,0c25.62,.04,48.74,15.37,58.75,38.96,13.69,32.44-1.5,69.83-33.94,83.52-7.84,3.31-16.26,5.02-24.78,5.02Zm-33.6-11.73l.36,.23c28.86,18.35,67.13,9.83,85.49-19.03,18.35-28.86,9.83-67.13-19.03-85.49C87.04,5.16,75.51,1.81,63.73,1.81c-9.45-.02-18.78,2.14-27.25,6.33-.59,.29-.83,1-.55,1.59,.2,.41,.62,.67,1.07,.67,.18,0,.36-.04,.52-.12,8.15-4.02,17.13-6.11,26.22-6.08h.01c32.89-.01,59.57,26.64,59.59,59.53,.01,32.89-26.64,59.57-59.53,59.59-11.66,0-23.07-3.41-32.81-9.84-.2-.13-.43-.2-.66-.2-.12,0-.24,.02-.35,.06h0l-21.11,6.75,6.82-20.35c.12-.37,.06-.77-.16-1.08C-1.83,74.73,1.01,41.7,22.21,21.1c.45-.48,.43-1.23-.05-1.68-.45-.42-1.15-.43-1.61-.02C-1.26,40.51-4.47,74.35,12.98,99.18l.26,.38-7.38,22c-.14,.42-.03,.88,.28,1.2,.23,.23,.53,.35,.85,.35,.12,0,.24-.02,.36-.06l22.81-7.29Z"/>
      <g id="Group_21" data-name="Group 21">
        <path id="Path_106" data-name="Path 106" class="cls-1" d="M83.03,99.33h0c-4.24,0-10.15-1.63-18.6-5.14-11.03-4.57-21.96-14.13-30.79-26.93l-.31-.45c-2.92-3.98-7.64-11.62-7.64-19.59-.17-6.07,2.26-11.93,6.67-16.1,2.11-2,4.94-3.07,7.85-2.96,.8,0,1.51,.04,2.16,.07,2.66,.1,4.2,.77,5.67,4.28l1.52,3.69c1.61,3.9,3.59,8.71,3.9,9.36,.89,1.58,.98,3.49,.23,5.15-.53,1.1-1.22,2.11-2.06,2.99-.59,.67-.98,1.09-1.37,1.51-.46,.49-.93,.98-1.4,1.57q-.81,.95-.54,1.42c2.55,4.35,5.73,8.31,9.44,11.73,3.82,3.51,8.26,6.28,13.08,8.19l.57,.24c.62,.38,1.41,.3,1.95-.18,1.34-1.57,2.59-3.2,3.74-4.91l.83-1.17c.98-1.55,2.68-2.49,4.52-2.5,.78,0,1.55,.16,2.27,.44,1.95,.68,12.2,5.79,12.3,5.84l.99,.48c1.47,.7,2.62,1.26,3.29,2.43,.96,1.67,.58,6.04-.88,10.17-1.75,4.94-8.24,8.8-13.46,9.92-1.29,.29-2.61,.44-3.93,.45ZM40.2,32.36c-1.71-.09-3.39,.46-4.71,1.55-3.72,3.41-5.77,8.27-5.62,13.32,0,4.95,2.45,11.14,6.72,16.97l.49,.69c8.37,12.14,18.65,21.18,28.95,25.44,7.93,3.29,13.33,4.82,17,4.82h0c1.03,0,2.05-.12,3.05-.36,4.08-.88,9.21-3.89,10.39-7.22,.88-2.19,1.26-4.55,1.1-6.9,0,.13-.76-.23-1.37-.52l-1.04-.51c-2.94-1.47-10.53-5.18-11.86-5.64-.27-.11-.55-.18-.85-.19-.19,0-.58,0-1.11,.75l-.84,1.17c-1.26,1.85-2.62,3.63-4.09,5.33-1.76,1.71-4.38,2.18-6.62,1.19l-.53-.22c-5.27-2.09-10.11-5.11-14.3-8.94-4.03-3.72-7.5-8.01-10.27-12.74-1.77-3.05,.02-5.16,.89-6.17,.55-.68,1.08-1.25,1.62-1.82,.35-.37,.7-.75,1.06-1.17,.68-.67,1.24-1.46,1.66-2.31,.12-.24,.19-.58-.25-1.48-.32-.67-2.35-5.59-3.99-9.58l-1.52-3.67q-.69-1.66-2.01-1.71c-.6-.04-1.24-.07-1.95-.07Z"/>
        <path id="Path_106_-_Outline" data-name="Path 106 - Outline" class="cls-1" d="M83.03,100.24c-4.36,0-10.38-1.65-18.94-5.21-11.19-4.63-22.26-14.31-31.19-27.25l-.31-.44c-1.95-2.64-3.63-5.47-5-8.45-1.75-3.64-2.71-7.62-2.81-11.66-.06-3.91,.87-7.77,2.7-11.23,1.13-2.04,2.56-3.89,4.23-5.51,2.28-2.18,5.35-3.35,8.5-3.23,.81,0,1.53,.04,2.2,.08,2.93,.12,4.82,.92,6.46,4.84h0l1.89,4.59c1.44,3.49,3.23,7.83,3.51,8.41,.36,.7,.61,1.45,.75,2.23,.24,1.26,.05,2.57-.53,3.71-.56,1.16-1.29,2.23-2.18,3.17h0c-.58,.67-.96,1.09-1.4,1.55l-.2,.21c-.4,.42-.77,.83-1.15,1.3l-.02,.03c-.15,.17-.29,.34-.39,.46,2.49,4.24,5.6,8.09,9.21,11.43,3.74,3.44,8.09,6.15,12.81,8.02l.59,.24c.2,.09,.42,.15,.64,.17,.11,0,.22-.04,.3-.12,1.31-1.54,2.53-3.14,3.67-4.81l.83-1.17c.68-1,1.61-1.8,2.69-2.32,.8-.37,1.68-.56,2.56-.56,.88,0,1.76,.18,2.58,.49,1.7,.6,9.11,4.25,12.23,5.79l.16,.08h0l.98,.48c1.54,.74,2.87,1.38,3.68,2.79,.62,1.48,.82,3.1,.58,4.69-.21,2.13-.67,4.22-1.39,6.23-.61,1.72-2.1,4.31-5.77,6.84-2.53,1.74-5.36,2.99-8.36,3.67h0c-1.35,.31-2.74,.46-4.12,.47ZM40.21,29.07c-2.66-.11-5.26,.86-7.2,2.68h0c-1.55,1.5-2.88,3.22-3.93,5.1-1.68,3.19-2.54,6.75-2.47,10.36,.09,3.79,.99,7.51,2.64,10.92,1.33,2.87,2.94,5.59,4.82,8.14h.01s.32,.47,.32,.47c8.73,12.66,19.53,22.11,30.39,26.61,8.34,3.46,14.14,5.07,18.25,5.07,1.26,0,2.52-.15,3.75-.43,2.76-.63,5.37-1.78,7.71-3.39,1.16-.79,2.22-1.72,3.15-2.76,.84-.93,1.49-2.01,1.93-3.18,1.5-4.23,1.65-8.18,.94-9.41h0c-.52-.92-1.52-1.4-2.89-2.06h0l-.99-.48-.17-.09c-6.43-3.19-10.93-5.33-12.03-5.71h-.02c-.62-.25-1.29-.38-1.96-.39-.62,0-1.24,.13-1.8,.39-.8,.39-1.48,.99-1.98,1.73h0l-.83,1.17c-1.18,1.74-2.45,3.41-3.82,5h0c-.42,.46-1,.71-1.62,.7-.46-.01-.91-.11-1.34-.3l-.58-.24c-4.92-1.94-9.44-4.77-13.33-8.34-3.78-3.49-7.02-7.51-9.62-11.95h0c-.27-.39-.35-.87-.2-1.31,.21-.42,.49-.81,.82-1.14,.42-.53,.84-.97,1.24-1.4l.2-.21h0c.42-.45,.79-.85,1.35-1.49h0c.78-.83,1.43-1.77,1.92-2.8v-.03c.63-1.4,.54-3.01-.22-4.34h0c-.3-.63-1.95-4.63-3.55-8.51l-1.89-4.59c-.39-1.18-1.11-2.23-2.07-3.02-.84-.5-1.82-.75-2.8-.71h-.02c-.65-.04-1.34-.07-2.11-.07Zm42.82,66.98c-3.79,0-9.3-1.55-17.34-4.89-10.45-4.33-20.87-13.48-29.34-25.76l-.48-.68c-4.38-5.99-6.9-12.36-6.9-17.5-.06-3.21,.7-6.38,2.2-9.21,.99-1.75,2.23-3.35,3.68-4.74h0c1.49-1.27,3.4-1.92,5.35-1.82,.78,0,1.48,.04,2,.08,.63-.06,1.26,.1,1.78,.47,.47,.51,.82,1.13,1.02,1.8l1.52,3.68c1.76,4.29,3.67,8.9,3.97,9.53,.45,.67,.54,1.52,.25,2.27-.46,.93-1.06,1.77-1.79,2.51-.37,.43-.74,.82-1.09,1.19l-.06,.07c-.52,.55-1.01,1.07-1.51,1.7l-.02,.02c-.55,.58-.98,1.26-1.26,2.01-.32,1.05-.15,2.2,.46,3.11,2.73,4.65,6.13,8.87,10.09,12.53,4.11,3.75,8.86,6.72,14.03,8.77h0l.54,.22c.68,.28,1.41,.43,2.15,.43,1.3,.03,2.55-.48,3.46-1.4,1.44-1.67,2.78-3.41,4.01-5.23l.84-1.17c.37-.68,1.07-1.11,1.85-1.13,.4,0,.79,.09,1.16,.24,1.44,.51,9.12,4.26,11.95,5.68l1.04,.51c.34,.18,.69,.33,1.06,.47-.04,0-.09-.01-.13-.01-.45,.01-.83,.37-.86,.82l1.78-.18c.21,.76,.22,3.68-1.12,7.44-.43,1.21-1.55,3.07-4.46,4.98-2.01,1.32-4.24,2.28-6.59,2.82h0c-1.06,.25-2.15,.37-3.24,.38ZM40.2,33.26c-1.46-.09-2.91,.37-4.06,1.27h0c-3.54,3.25-5.5,7.88-5.36,12.69,0,4.76,2.39,10.75,6.55,16.44h.01s.49,.71,.49,.71c8.27,12,18.41,20.92,28.55,25.12,7.81,3.24,13.1,4.75,16.65,4.75,.96,0,1.92-.12,2.86-.34,3.86-.83,8.68-3.7,9.72-6.64,.7-1.88,1.08-3.87,1.12-5.87-.23-.1-.53-.24-.93-.43h0l-1.05-.51c-3.47-1.74-10.57-5.19-11.75-5.6h-.02c-.17-.08-.34-.12-.52-.14h-.03c-.14,.1-.25,.22-.34,.36h0l-.85,1.18c-1.28,1.89-2.67,3.7-4.16,5.42-1.26,1.29-2.99,2-4.79,1.97-.98,0-1.94-.19-2.84-.57l-.53-.22c-5.37-2.12-10.3-5.21-14.56-9.1-4.1-3.78-7.62-8.15-10.45-12.96h0c-.87-1.37-1.1-3.05-.62-4.59,.35-.97,.9-1.86,1.6-2.62,.55-.68,1.08-1.25,1.6-1.8l.06-.07c.35-.38,.69-.73,1.04-1.13h0c.62-.61,1.14-1.32,1.52-2.1h0c-.04-.25-.13-.49-.25-.7h0c-.33-.69-2.37-5.62-4.01-9.62l-1.52-3.67c-.14-.38-.31-.75-.51-1.1-.23-.03-.47-.05-.7-.05h-.03c-.49-.05-1.15-.09-1.89-.09Z"/>
      </g>
      <g id="Group_22" data-name="Group 22">
        <circle id="Ellipse_1" data-name="Ellipse 1" class="cls-1" cx="28.14" cy="13.48" r="2.1"/>
        <path id="Ellipse_1_-_Outline" data-name="Ellipse 1 - Outline" class="cls-1" d="M28.13,10.47c1.66,0,3,1.34,3,3s-1.34,3-3,3-3-1.34-3-3,1.34-3,3-3Zm0,4.19c.66,0,1.19-.53,1.19-1.19,0-.66-.53-1.19-1.19-1.19-.66,0-1.19,.53-1.19,1.19,0,.66,.53,1.19,1.19,1.19Z"/>
      </g>
    </g>
  </g>
</svg>